<?xml version="1.0" encoding="utf-8" standalone="no"?>
<!DOCTYPE svg PUBLIC "-//W3C//DTD SVG 1.1//EN"
  "http://www.w3.org/Graphics/SVG/1.1/DTD/svg11.dtd">
<!-- Created with matplotlib (http://matplotlib.org/) -->
<svg height="639pt" version="1.1" viewBox="0 0 1229 639" width="1229pt" xmlns="http://www.w3.org/2000/svg" xmlns:xlink="http://www.w3.org/1999/xlink">
 <defs>
  <style type="text/css">
*{stroke-linecap:butt;stroke-linejoin:round;}
  </style>
 </defs>
 <g id="figure_1">
  <g id="patch_1">
   <path d="
M0 639
L1229.4 639
L1229.4 0
L0 0
z
" style="fill:#ffffff;"/>
  </g>
  <g id="axes_1">
   <g id="patch_2">
    <path d="
M153.675 296.264
L1106.46 296.264
L1106.46 63.9
L153.675 63.9
z
" style="fill:#ffffff;"/>
   </g>
   <g id="line2d_1">
    <path clip-path="url(#p8348b65751)" d="
M196.568 -1
L196.878 77.2744
L197.579 93.0891
L198.257 80.815
L199.635 160.989
L200.336 146.276
L201.014 148.637
L201.715 146.748
L203.082 145.961
L203.783 147.063
L204.461 145.883
L205.15 147.142
L205.84 144.781
L206.529 145.253
L207.23 145.568
L207.908 146.67
L208.597 143.601
L209.287 143.601
L209.976 141.791
L210.665 141.005
L211.366 141.87
L212.056 129.203
L212.733 129.754
L213.434 117.873
L214.112 118.581
L214.802 123.223
L215.502 118.581
L216.18 119.997
L217.559 118.896
L218.949 119.211
L220.317 209.69
L221.006 211.264
L222.385 211.342
L223.086 211.578
L223.763 211.421
L224.453 211.578
L225.142 211.578
L225.843 211.264
L226.532 211.421
L227.222 211.106
L228.589 211.264
L229.968 209.375
L230.669 206.858
L231.358 196.63
L232.047 208.195
L233.541 208.274
L234.116 208.589
L235.483 207.959
L236.184 208.431
L237.562 207.644
L238.24 202.137
L238.941 208.038
L239.631 208.195
L240.32 206.622
L241.032 208.116
L241.699 208.038
L242.388 208.51
L243.755 207.723
L244.445 208.431
L245.134 208.195
L246.524 208.667
L247.214 208.352
L247.903 207.723
L249.96 208.274
L251.338 207.566
L252.028 208.589
L252.717 207.723
L254.096 208.51
L255.475 207.408
L256.164 207.487
L256.853 208.274
L257.554 207.802
L258.232 207.644
L259.611 208.431
L260.3 207.566
L261.001 207.88
L261.69 208.51
L262.38 207.959
L263.058 207.644
L263.759 208.352
L265.126 208.038
L265.815 207.644
L267.194 208.274
L267.883 207.802
L268.573 207.723
L269.262 208.352
L269.963 207.88
L270.652 207.723
L271.319 207.094
L272.709 207.094
L274.823 207.566
L276.167 207.644
L276.857 208.274
L277.558 207.408
L278.913 208.195
L279.614 208.352
L280.981 207.802
L281.671 208.195
L283.061 207.487
L283.739 207.566
L284.428 208.195
L285.118 204.969
L286.393 208.431
L289.265 208.667
L289.955 207.88
L290.644 202.137
L291.334 195.292
L292.701 207.172
L293.402 207.723
L294.091 208.038
L294.78 207.88
L295.47 205.441
L296.159 206.15
L296.849 208.431
L298.216 159.337
L298.917 201.429
L300.284 205.914
L300.973 198.675
L301.674 200.485
L302.364 201.429
L303.053 206.307
L303.742 187.582
L304.432 206.543
L305.121 192.696
L306.488 155.088
L307.189 155.009
L307.867 155.639
L308.556 154.773
L309.947 155.167
L310.636 154.459
L312.003 154.223
L312.704 154.931
L313.394 154.38
L314.761 154.773
L315.462 154.223
L316.174 154.616
L316.829 153.987
L317.518 154.459
L318.219 154.38
L318.908 154.773
L319.586 154.223
L320.965 154.065
L321.654 155.245
L323.734 154.616
L325.101 174.836
L325.791 149.659
L326.492 155.796
L327.169 154.931
L327.87 155.167
L328.56 155.56
L329.249 155.088
L329.938 155.245
L330.628 154.773
L331.317 155.167
L332.007 154.065
L332.696 153.515
L334.075 173.027
L334.753 165.316
L336.131 168.306
L337.51 165.788
L338.199 166.732
L338.9 166.732
L339.59 166.339
L340.968 167.362
L342.336 167.834
L343.714 167.755
L344.404 168.542
L345.093 165.552
L345.783 165.788
L346.472 166.496
L347.173 165.552
L347.862 165.867
L349.229 167.362
L349.919 168.306
L351.298 168.227
L351.998 166.89
L352.676 166.654
L353.377 167.441
L354.067 166.654
L355.434 165.867
L356.123 166.811
L357.536 166.732
L358.203 166.103
L358.892 166.732
L359.582 165.788
L360.259 166.26
L361.638 167.913
L362.328 167.204
L363.028 167.283
L364.396 169.093
L365.774 165.631
L367.153 167.598
L367.854 165.238
L368.543 166.26
L369.221 165.946
L370.6 165.631
L371.301 166.26
L371.99 166.654
L372.68 164.844
L374.047 166.339
L374.748 165.238
L375.437 165.631
L376.115 166.339
L376.804 166.732
L377.494 167.598
L378.195 166.103
L378.872 166.26
L379.573 165.552
L380.251 165.631
L380.952 165.946
L382.319 165.631
L383.009 165.316
L383.698 166.496
L385.077 166.339
L385.766 165.631
L387.145 166.339
L387.846 166.26
L388.535 168.149
L389.225 167.519
L389.914 165.474
L390.592 165.552
L391.971 167.834
L392.671 167.834
L393.361 166.575
L394.039 166.654
L394.74 166.024
L396.107 166.26
L396.796 166.024
L397.486 167.834
L398.887 167.519
L399.565 165.946
L400.944 166.968
L402.311 166.024
L403.012 165.71
L405.08 167.441
L405.77 165.71
L407.148 167.519
L407.826 167.755
L408.527 166.654
L409.205 167.991
L409.906 166.575
L410.595 165.631
L411.285 167.126
L411.974 168.227
L413.341 165.474
L414.031 166.968
L414.72 167.677
L415.421 166.103
L416.11 166.654
L416.8 168.385
L417.489 167.441
L418.178 166.103
L418.868 168.385
L419.546 167.991
L420.246 166.26
L420.936 167.834
L422.303 167.283
L423.004 166.575
L424.371 167.834
L425.061 167.204
L425.75 166.418
L426.439 164.293
L427.14 167.991
L427.829 168.778
L428.519 166.575
L429.208 165.867
L429.898 167.755
L430.576 168.227
L431.954 166.496
L432.655 166.024
L433.344 167.755
L434.022 168.306
L434.723 167.126
L435.413 165.71
L436.102 166.339
L437.469 166.26
L438.159 166.339
L439.549 168.385
L440.261 168.227
L442.295 165.788
L442.996 166.654
L443.685 169.801
L444.374 194.584
L445.052 194.505
L445.753 193.325
L446.431 127.551
L447.12 99.9342
L448.499 102.059
L449.2 100.406
L449.889 99.7769
L450.59 100.092
L451.28 100.721
L451.946 100.092
L452.635 101.587
L453.325 99.8556
L454.014 101.036
L454.704 100.092
L456.082 100.564
L456.772 101.901
L458.15 100.17
L458.851 100.564
L459.541 100.17
L460.23 99.5408
L460.908 99.5408
L461.609 100.249
L462.988 100.17
L463.665 101.429
L464.355 90.7287
L465.734 91.5942
L467.112 98.9901
L467.802 91.5942
L468.491 176.724
L469.192 179.006
L469.881 184.986
L470.559 178.849
L471.26 180.186
L471.949 175.544
L472.639 183.412
L473.328 179.399
L474.018 183.255
L474.695 175.151
L475.385 174.443
L476.086 146.04
L476.775 184.12
L477.352 -1
M534.37 -1
L534.671 88.1323
L535.36 215.433
L536.061 213.309
L537.428 162.484
L538.118 146.355
L538.819 144.86
L539.508 155.088
L540.197 154.144
L540.887 154.852
L541.576 155.954
L542.265 154.616
L542.943 156.111
L543.644 154.773
L544.345 154.537
L545.011 155.088
L545.701 156.268
L546.39 153.121
L547.08 155.403
L547.78 153.593
L548.47 154.38
L549.159 156.268
L550.526 154.144
L551.905 154.144
L552.595 155.324
L553.284 154.695
L553.985 153.829
L554.674 155.954
L555.364 155.796
L556.742 155.875
L557.42 154.616
L558.11 155.718
L558.799 154.616
L560.178 155.245
L560.867 153.279
L561.568 155.245
L562.257 154.931
L562.935 155.088
L564.383 154.223
L565.026 155.718
L565.693 154.695
L566.382 154.695
L567.761 152.964
L568.45 154.223
L569.829 154.852
L570.53 155.403
L571.219 156.426
L571.909 154.144
L572.598 153.593
L573.287 154.459
L573.977 155.56
L574.666 153.829
L576.033 154.773
L576.723 154.223
L577.412 155.324
L578.113 153.279
L578.802 155.324
L580.17 155.954
L581.56 154.301
L582.249 155.56
L582.939 153.593
L584.317 156.032
L584.995 153.593
L585.696 155.403
L587.063 155.718
L587.753 153.2
L589.131 156.662
L589.832 153.751
L591.211 154.931
L591.889 154.38
L593.268 155.009
L594.646 154.616
L596.025 155.482
L596.715 154.616
L598.794 154.459
L599.472 155.009
L600.161 154.773
L601.54 154.931
L602.241 156.111
L602.93 153.515
L604.309 155.245
L605.688 155.56
L606.377 154.144
L607.067 155.718
L607.744 154.459
L608.445 153.829
L609.813 154.537
L610.513 154.616
L611.203 155.324
L611.892 154.537
L612.57 154.459
L613.259 155.482
L613.96 151.941
L614.65 152.57
L615.328 151.941
L616.028 151.941
L616.718 153.042
L617.407 151.469
L618.097 180.108
L618.786 179.95
L619.464 179.95
L620.153 180.186
L620.843 179.399
L621.543 179.478
L622.221 180.108
L622.911 180.108
L623.612 179.636
L624.99 180.344
L626.358 180.029
L627.047 180.422
L627.748 180.58
L629.115 179.95
L629.804 180.344
L630.505 180.186
L632.562 180.501
L633.251 180.029
L633.952 179.872
L634.642 180.658
L635.331 180.58
L636.698 180.029
L637.399 181.052
L638.077 180.029
L639.456 180.894
L640.145 180.816
L641.524 180.422
L642.213 180.894
L642.903 181.13
L643.603 180.422
L644.293 180.58
L646.349 180.58
L647.062 181.366
L647.751 180.658
L649.13 180.737
L649.808 181.366
L651.175 180.816
L653.243 180.816
L654.622 181.445
L656.69 180.816
L657.391 181.76
L658.103 180.737
L659.459 181.602
L660.137 181.602
L660.826 181.209
L661.527 181.13
L662.216 181.838
L662.894 173.656
L664.273 169.565
L664.974 171.846
L666.341 170.037
L667.72 170.981
L669.11 170.194
L669.788 172.869
L670.477 171.61
L671.167 170.588
L671.856 170.902
L672.546 172.161
L673.246 168.699
L673.936 168.857
L674.614 170.43
L675.315 170.273
L675.992 170.273
L676.682 168.699
L677.371 170.902
L678.072 169.171
L678.807 176.252
L680.818 180.501
L681.507 180.737
L682.886 181.445
L683.587 181.445
L684.276 181.209
L685.644 181.602
L686.333 181.13
L689.137 181.366
L689.791 181.76
L691.159 181.288
L692.537 182.074
L693.238 181.996
L693.928 181.288
L695.295 182.153
L695.996 181.288
L696.674 181.524
L698.052 182.153
L698.753 181.681
L699.443 181.524
L700.132 182.311
L700.821 182.232
L701.499 181.288
L702.89 182.311
L703.567 181.838
L704.268 181.602
L704.958 182.389
L705.647 182.389
L707.014 181.681
L707.704 182.547
L709.082 181.681
L709.783 181.917
L710.473 182.468
L711.84 181.76
L712.529 182.389
L713.23 182.625
L713.919 181.838
L714.597 181.917
L715.31 182.625
L715.976 182.389
L716.677 181.917
L717.355 181.681
L718.044 182.625
L718.745 181.838
L719.446 182.074
L720.124 182.783
L720.813 182.311
L721.503 182.153
L722.87 182.468
L723.571 181.681
L724.938 182.547
L725.627 182.704
L726.328 181.13
L727.707 182.704
L728.408 182.311
L729.787 182.704
L730.464 182.468
L731.855 182.232
L733.21 183.019
L733.9 182.468
L735.29 182.468
L735.968 182.861
L737.347 182.232
L738.048 183.097
L738.725 182.468
L739.415 183.097
L740.116 182.94
L740.805 182.547
L741.494 183.097
L742.184 182.547
L742.862 183.333
L743.563 182.625
L744.24 182.861
L744.941 183.333
L745.631 182.625
L746.32 183.333
L746.998 182.783
L747.687 183.097
L748.388 183.255
L749.078 182.783
L749.767 183.491
L750.456 182.861
L751.824 183.333
L752.524 182.861
L753.214 183.491
L753.903 182.861
L754.581 183.412
L755.282 183.176
L756.649 183.569
L757.339 183.019
L758.717 182.94
L759.407 183.491
L760.107 183.569
L760.785 183.019
L761.486 183.727
L762.164 182.783
L763.543 183.569
L764.232 183.333
L764.933 183.884
L765.622 183.097
L766.3 183.727
L767.679 183.491
L768.38 183.963
L769.069 183.491
L769.759 184.12
L771.137 183.648
L771.884 183.648
L772.505 183.491
L773.217 184.356
L773.895 183.727
L774.584 184.199
L775.262 184.12
L775.952 183.805
L776.641 184.356
L777.342 183.648
L778.709 183.805
L779.41 184.041
L780.099 184.435
L780.789 183.963
L781.49 181.917
L782.213 182.547
L782.845 186.952
L783.546 175.859
L784.247 185.064
L785.603 182.232
L786.292 182.468
L787.671 184.75
L788.372 185.694
L789.061 184.12
L790.44 182.625
L791.807 186.087
L793.174 184.12
L793.887 181.917
L794.576 182.783
L795.266 184.277
L796.633 185.772
L797.322 185.536
L798.023 200.406
L799.39 199.226
L800.091 202.373
L800.781 202.609
L801.47 202.373
L802.148 202.766
L802.895 202.373
L803.527 202.53
L804.905 202.53
L805.595 200.721
L806.973 200.328
L807.674 200.249
L808.364 188.919
L809.042 201.822
L809.731 202.294
L810.432 202.452
L811.121 200.013
L813.189 201.901
L813.867 202.058
L814.557 202.058
L815.246 202.766
L817.325 202.845
L818.015 202.452
L818.693 201.901
L819.382 202.53
L820.083 202.53
L820.761 202.766
L821.462 202.688
L822.151 203.239
L822.84 202.688
L823.53 202.688
L824.897 203.396
L825.598 202.53
L826.287 202.609
L826.977 202.924
L827.666 203.475
L828.344 202.845
L830.412 203.553
L831.101 203.317
L832.48 203.475
L833.859 203.317
L834.571 203.081
L835.249 157.212
L835.927 91.0434
L836.628 88.2109
L837.317 88.7617
L839.374 88.2109
L840.753 88.2896
L841.454 87.5815
L842.143 88.1323
L843.51 88.3683
L844.2 87.4241
L844.912 87.2668
L846.268 87.8962
L846.969 88.9191
L847.646 88.683
L848.347 88.2109
L849.025 88.3683
L849.726 89.7059
L850.415 143.68
L851.105 171.846
L851.794 169.88
L852.472 168.699
L853.885 173.892
L854.54 174.6
L855.253 174.758
L855.919 175.151
L856.608 173.42
L857.309 172.633
L857.987 174.836
L858.676 172.948
L859.377 175.308
L860.055 173.027
L860.768 173.184
L861.434 174.6
L862.813 174.836
L863.514 173.656
L864.214 173.813
L864.892 174.521
L866.271 174.915
L866.96 173.341
L867.65 174.994
L868.339 174.128
L869.706 173.577
L871.085 174.443
L872.475 174.521
L873.165 173.499
L873.854 173.971
L874.543 174.836
L875.233 173.263
L876.612 174.207
L877.99 174.758
L879.369 174.128
L880.058 173.42
L880.748 174.364
L881.437 173.499
L882.127 174.207
L883.494 174.049
L884.195 173.184
L884.884 174.285
L885.573 174.679
L886.263 174.521
L886.952 173.813
L888.319 174.128
L889.02 174.994
L890.388 173.42
L891.088 173.577
L892.456 174.521
L893.145 173.341
L894.535 173.735
L895.236 174.128
L895.914 174.207
L896.592 173.813
L897.293 174.285
L897.971 173.735
L898.672 174.6
L899.361 174.285
L900.039 173.341
L900.74 174.285
L901.418 173.735
L902.107 174.364
L902.796 173.577
L903.497 174.207
L904.187 174.285
L904.864 173.971
L905.565 174.128
L906.933 174.285
L907.622 174.128
L908.311 174.364
L909.69 173.577
L910.379 173.892
L911.069 173.577
L911.77 174.285
L912.448 173.341
L913.137 174.6
L913.838 173.577
L914.527 174.6
L915.217 173.735
L915.906 173.971
L916.595 174.6
L917.285 174.207
L917.974 174.364
L918.675 173.813
L919.341 173.971
L920.042 173.577
L920.72 173.971
L921.421 174.6
L922.11 174.049
L923.478 174.443
L924.167 174.364
L924.868 174.758
L925.557 173.577
L926.246 173.499
L927.625 173.892
L928.315 174.049
L929.004 173.813
L931.75 174.207
L932.439 174.521
L933.14 174.6
L933.83 174.443
L935.197 174.443
L936.599 174.049
L937.276 173.735
L938.644 173.577
L939.333 174.128
L940.022 174.836
L941.401 173.892
L942.102 173.577
L942.791 174.049
L943.481 173.813
L944.17 173.42
L945.537 173.735
L946.238 174.049
L947.606 174.521
L948.984 174.443
L949.685 173.735
L953.121 174.049
L955.2 173.735
L955.878 174.128
L956.567 174.915
L957.268 174.758
L957.958 174.364
L959.336 174.758
L960.704 175.072
L961.405 168.149
L962.772 139.746
L964.151 92.617
L964.851 93.9546
L965.529 132.271
L966.219 149.659
L968.298 151.154
L968.999 151.39
L970.355 150.997
L971.044 150.367
L971.745 151.548
L972.423 150.918
L973.124 150.682
L974.491 151.784
L975.181 150.682
L975.87 141.005
L977.249 155.403
L977.961 156.426
L978.639 155.954
L979.351 156.662
L980.006 156.426
L980.707 156.583
L981.396 157.448
L982.086 158.55
L982.775 157.37
L983.464 157.37
L984.142 156.111
L985.521 157.448
L986.222 155.167
L986.911 156.19
L987.601 155.718
L988.29 155.639
L988.979 156.898
L989.68 157.055
L991.036 157.055
L991.737 158.235
L992.426 156.268
L993.116 155.796
L993.805 156.268
L994.494 157.134
L995.184 155.954
L996.551 157.291
L997.93 159.179
L998.631 191.988
L999.32 201.114
L1000.69 156.347
L1002.07 199.305
L1003.44 230.146
L1004.15 241.554
L1004.84 244.15
L1006.21 258.311
L1006.9 272.787
L1007.59 279.789
L1008.28 278.295
L1008.97 271.45
L1009.66 248.87
L1010.35 214.332
L1011.04 193.325
L1011.73 163.664
L1012.42 149.895
L1013.1 149.423
L1013.8 146.748
L1015.16 137.307
L1015.87 138.802
L1017.93 125.112
L1019.32 124.325
L1019.99 127.944
L1020.69 118.66
L1021.38 115.198
L1022.08 115.906
L1022.76 118.188
L1023.44 116.693
L1024.13 122.279
L1024.83 132.193
L1025.52 128.731
L1026.21 124.325
L1026.9 131.091
L1027.58 140.533
L1028.27 145.096
L1028.96 141.005
L1029.65 141.634
L1030.35 136.835
L1031.73 134.868
L1032.41 132.901
L1033.1 109.927
L1033.78 110.949
L1034.48 101.508
L1035.17 102.767
L1035.86 103.711
L1036.55 114.49
L1037.91 123.617
L1039.29 110.477
L1039.99 131.013
L1040.69 147.614
L1041.38 116.221
L1042.74 121.099
L1043.43 116.536
L1044.14 109.061
L1044.82 104.498
L1045.51 101.508
L1046.21 104.734
L1046.88 108.982
L1047.58 121.414
L1048.28 120.548
L1048.95 122.673
L1049.64 122.437
L1050.32 122.358
L1051.02 122.594
L1051.72 122.201
L1053.08 92.7744
L1053.77 110.949
L1054.47 108.51
L1055.16 99.8556
L1055.84 99.9342
L1056.53 107.409
L1057.23 109.691
L1057.92 109.769
L1058.61 108.196
L1059.3 129.754
L1060.69 129.99
L1062.08 129.518
L1062.75 129.99
L1066.19 129.911
L1068.25 129.675
L1068.94 130.068
L1069.64 129.754
L1070.33 129.99
L1071 129.596
L1071.72 129.832
L1072.39 129.832
L1073.77 130.068
L1074.46 116.3
L1075.14 112.916
L1076.52 112.995
L1077.22 112.287
L1077.91 94.5053
L1078.6 101.901
L1079.28 99.3048
L1079.98 145.411
L1080.67 165.395
L1081.36 165.71
L1082.04 162.405
L1082.73 161.382
L1083.41 127
L1084.8 135.812
L1085.48 147.692
L1086.17 130.068
L1086.87 134.632
L1087.56 153.593
L1088.24 69.3276
L1088.66 -1
L1088.66 -1" style="fill:none;stroke:#0000ff;stroke-linecap:square;"/>
   </g>
   <g id="matplotlib.axis_1">
    <g id="xtick_1">
     <g id="line2d_2">
      <defs>
       <path d="
M0 0
L0 -4" id="m93b0483c22" style="stroke:#000000;stroke-width:0.5;"/>
      </defs>
      <g>
       <use style="stroke:#000000;stroke-width:0.5;" x="192.052290901" xlink:href="#m93b0483c22" y="296.263636364"/>
      </g>
     </g>
     <g id="line2d_3">
      <defs>
       <path d="
M0 0
L0 4" id="m741efc42ff" style="stroke:#000000;stroke-width:0.5;"/>
      </defs>
      <g>
       <use style="stroke:#000000;stroke-width:0.5;" x="192.052290901" xlink:href="#m741efc42ff" y="63.9"/>
      </g>
     </g>
     <g id="text_1">
      <!-- 18:00:00 -->
      <defs>
       <path d="
M12.4062 8.29688
L28.5156 8.29688
L28.5156 63.9219
L10.9844 60.4062
L10.9844 69.3906
L28.4219 72.9062
L38.2812 72.9062
L38.2812 8.29688
L54.3906 8.29688
L54.3906 0
L12.4062 0
z
" id="DejaVuSans-31"/>
       <path d="
M31.7812 34.625
Q24.75 34.625 20.7188 30.8594
Q16.7031 27.0938 16.7031 20.5156
Q16.7031 13.9219 20.7188 10.1562
Q24.75 6.39062 31.7812 6.39062
Q38.8125 6.39062 42.8594 10.1719
Q46.9219 13.9688 46.9219 20.5156
Q46.9219 27.0938 42.8906 30.8594
Q38.875 34.625 31.7812 34.625
M21.9219 38.8125
Q15.5781 40.375 12.0312 44.7188
Q8.5 49.0781 8.5 55.3281
Q8.5 64.0625 14.7188 69.1406
Q20.9531 74.2188 31.7812 74.2188
Q42.6719 74.2188 48.875 69.1406
Q55.0781 64.0625 55.0781 55.3281
Q55.0781 49.0781 51.5312 44.7188
Q48 40.375 41.7031 38.8125
Q48.8281 37.1562 52.7969 32.3125
Q56.7812 27.4844 56.7812 20.5156
Q56.7812 9.90625 50.3125 4.23438
Q43.8438 -1.42188 31.7812 -1.42188
Q19.7344 -1.42188 13.25 4.23438
Q6.78125 9.90625 6.78125 20.5156
Q6.78125 27.4844 10.7812 32.3125
Q14.7969 37.1562 21.9219 38.8125
M18.3125 54.3906
Q18.3125 48.7344 21.8438 45.5625
Q25.3906 42.3906 31.7812 42.3906
Q38.1406 42.3906 41.7188 45.5625
Q45.3125 48.7344 45.3125 54.3906
Q45.3125 60.0625 41.7188 63.2344
Q38.1406 66.4062 31.7812 66.4062
Q25.3906 66.4062 21.8438 63.2344
Q18.3125 60.0625 18.3125 54.3906" id="DejaVuSans-38"/>
       <path d="
M31.7812 66.4062
Q24.1719 66.4062 20.3281 58.9062
Q16.5 51.4219 16.5 36.375
Q16.5 21.3906 20.3281 13.8906
Q24.1719 6.39062 31.7812 6.39062
Q39.4531 6.39062 43.2812 13.8906
Q47.125 21.3906 47.125 36.375
Q47.125 51.4219 43.2812 58.9062
Q39.4531 66.4062 31.7812 66.4062
M31.7812 74.2188
Q44.0469 74.2188 50.5156 64.5156
Q56.9844 54.8281 56.9844 36.375
Q56.9844 17.9688 50.5156 8.26562
Q44.0469 -1.42188 31.7812 -1.42188
Q19.5312 -1.42188 13.0625 8.26562
Q6.59375 17.9688 6.59375 36.375
Q6.59375 54.8281 13.0625 64.5156
Q19.5312 74.2188 31.7812 74.2188" id="DejaVuSans-30"/>
       <path d="
M11.7188 12.4062
L22.0156 12.4062
L22.0156 0
L11.7188 0
z

M11.7188 51.7031
L22.0156 51.7031
L22.0156 39.3125
L11.7188 39.3125
z
" id="DejaVuSans-3a"/>
      </defs>
      <g transform="translate(166.162290916 309.381761364)scale(0.12 -0.12)">
       <use xlink:href="#DejaVuSans-31"/>
       <use x="63.623046875" xlink:href="#DejaVuSans-38"/>
       <use x="127.24609375" xlink:href="#DejaVuSans-3a"/>
       <use x="160.9375" xlink:href="#DejaVuSans-30"/>
       <use x="224.560546875" xlink:href="#DejaVuSans-30"/>
       <use x="288.18359375" xlink:href="#DejaVuSans-3a"/>
       <use x="321.875" xlink:href="#DejaVuSans-30"/>
       <use x="385.498046875" xlink:href="#DejaVuSans-30"/>
      </g>
     </g>
    </g>
    <g id="xtick_2">
     <g id="line2d_4">
      <g>
       <use style="stroke:#000000;stroke-width:0.5;" x="316.139511078" xlink:href="#m93b0483c22" y="296.263636364"/>
      </g>
     </g>
     <g id="line2d_5">
      <g>
       <use style="stroke:#000000;stroke-width:0.5;" x="316.139511078" xlink:href="#m741efc42ff" y="63.9"/>
      </g>
     </g>
     <g id="text_2">
      <!-- 21:00:00 -->
      <defs>
       <path d="
M19.1875 8.29688
L53.6094 8.29688
L53.6094 0
L7.32812 0
L7.32812 8.29688
Q12.9375 14.1094 22.625 23.8906
Q32.3281 33.6875 34.8125 36.5312
Q39.5469 41.8438 41.4219 45.5312
Q43.3125 49.2188 43.3125 52.7812
Q43.3125 58.5938 39.2344 62.25
Q35.1562 65.9219 28.6094 65.9219
Q23.9688 65.9219 18.8125 64.3125
Q13.6719 62.7031 7.8125 59.4219
L7.8125 69.3906
Q13.7656 71.7812 18.9375 73
Q24.125 74.2188 28.4219 74.2188
Q39.75 74.2188 46.4844 68.5469
Q53.2188 62.8906 53.2188 53.4219
Q53.2188 48.9219 51.5312 44.8906
Q49.8594 40.875 45.4062 35.4062
Q44.1875 33.9844 37.6406 27.2188
Q31.1094 20.4531 19.1875 8.29688" id="DejaVuSans-32"/>
      </defs>
      <g transform="translate(290.030136108 309.381761364)scale(0.12 -0.12)">
       <use xlink:href="#DejaVuSans-32"/>
       <use x="63.623046875" xlink:href="#DejaVuSans-31"/>
       <use x="127.24609375" xlink:href="#DejaVuSans-3a"/>
       <use x="160.9375" xlink:href="#DejaVuSans-30"/>
       <use x="224.560546875" xlink:href="#DejaVuSans-30"/>
       <use x="288.18359375" xlink:href="#DejaVuSans-3a"/>
       <use x="321.875" xlink:href="#DejaVuSans-30"/>
       <use x="385.498046875" xlink:href="#DejaVuSans-30"/>
      </g>
     </g>
    </g>
    <g id="xtick_3">
     <g id="line2d_6">
      <g>
       <use style="stroke:#000000;stroke-width:0.5;" x="440.226731256" xlink:href="#m93b0483c22" y="296.263636364"/>
      </g>
     </g>
     <g id="line2d_7">
      <g>
       <use style="stroke:#000000;stroke-width:0.5;" x="440.226731256" xlink:href="#m741efc42ff" y="63.9"/>
      </g>
     </g>
     <g id="text_3">
      <!-- 00:00:00 -->
      <g transform="translate(414.0732938 309.381761364)scale(0.12 -0.12)">
       <use xlink:href="#DejaVuSans-30"/>
       <use x="63.623046875" xlink:href="#DejaVuSans-30"/>
       <use x="127.24609375" xlink:href="#DejaVuSans-3a"/>
       <use x="160.9375" xlink:href="#DejaVuSans-30"/>
       <use x="224.560546875" xlink:href="#DejaVuSans-30"/>
       <use x="288.18359375" xlink:href="#DejaVuSans-3a"/>
       <use x="321.875" xlink:href="#DejaVuSans-30"/>
       <use x="385.498046875" xlink:href="#DejaVuSans-30"/>
      </g>
     </g>
    </g>
    <g id="xtick_4">
     <g id="line2d_8">
      <g>
       <use style="stroke:#000000;stroke-width:0.5;" x="564.313951433" xlink:href="#m93b0483c22" y="296.263636364"/>
      </g>
     </g>
     <g id="line2d_9">
      <g>
       <use style="stroke:#000000;stroke-width:0.5;" x="564.313951433" xlink:href="#m741efc42ff" y="63.9"/>
      </g>
     </g>
     <g id="text_4">
      <!-- 03:00:00 -->
      <defs>
       <path d="
M40.5781 39.3125
Q47.6562 37.7969 51.625 33
Q55.6094 28.2188 55.6094 21.1875
Q55.6094 10.4062 48.1875 4.48438
Q40.7656 -1.42188 27.0938 -1.42188
Q22.5156 -1.42188 17.6562 -0.515625
Q12.7969 0.390625 7.625 2.20312
L7.625 11.7188
Q11.7188 9.32812 16.5938 8.10938
Q21.4844 6.89062 26.8125 6.89062
Q36.0781 6.89062 40.9375 10.5469
Q45.7969 14.2031 45.7969 21.1875
Q45.7969 27.6406 41.2812 31.2656
Q36.7656 34.9062 28.7188 34.9062
L20.2188 34.9062
L20.2188 43.0156
L29.1094 43.0156
Q36.375 43.0156 40.2344 45.9219
Q44.0938 48.8281 44.0938 54.2969
Q44.0938 59.9062 40.1094 62.9062
Q36.1406 65.9219 28.7188 65.9219
Q24.6562 65.9219 20.0156 65.0312
Q15.375 64.1562 9.8125 62.3125
L9.8125 71.0938
Q15.4375 72.6562 20.3438 73.4375
Q25.25 74.2188 29.5938 74.2188
Q40.8281 74.2188 47.3594 69.1094
Q53.9062 64.0156 53.9062 55.3281
Q53.9062 49.2656 50.4375 45.0938
Q46.9688 40.9219 40.5781 39.3125" id="DejaVuSans-33"/>
      </defs>
      <g transform="translate(538.160513992 309.381761364)scale(0.12 -0.12)">
       <use xlink:href="#DejaVuSans-30"/>
       <use x="63.623046875" xlink:href="#DejaVuSans-33"/>
       <use x="127.24609375" xlink:href="#DejaVuSans-3a"/>
       <use x="160.9375" xlink:href="#DejaVuSans-30"/>
       <use x="224.560546875" xlink:href="#DejaVuSans-30"/>
       <use x="288.18359375" xlink:href="#DejaVuSans-3a"/>
       <use x="321.875" xlink:href="#DejaVuSans-30"/>
       <use x="385.498046875" xlink:href="#DejaVuSans-30"/>
      </g>
     </g>
    </g>
    <g id="xtick_5">
     <g id="line2d_10">
      <g>
       <use style="stroke:#000000;stroke-width:0.5;" x="688.401171611" xlink:href="#m93b0483c22" y="296.263636364"/>
      </g>
     </g>
     <g id="line2d_11">
      <g>
       <use style="stroke:#000000;stroke-width:0.5;" x="688.401171611" xlink:href="#m741efc42ff" y="63.9"/>
      </g>
     </g>
     <g id="text_5">
      <!-- 06:00:00 -->
      <defs>
       <path d="
M33.0156 40.375
Q26.375 40.375 22.4844 35.8281
Q18.6094 31.2969 18.6094 23.3906
Q18.6094 15.5312 22.4844 10.9531
Q26.375 6.39062 33.0156 6.39062
Q39.6562 6.39062 43.5312 10.9531
Q47.4062 15.5312 47.4062 23.3906
Q47.4062 31.2969 43.5312 35.8281
Q39.6562 40.375 33.0156 40.375
M52.5938 71.2969
L52.5938 62.3125
Q48.875 64.0625 45.0938 64.9844
Q41.3125 65.9219 37.5938 65.9219
Q27.8281 65.9219 22.6719 59.3281
Q17.5312 52.7344 16.7969 39.4062
Q19.6719 43.6562 24.0156 45.9219
Q28.375 48.1875 33.5938 48.1875
Q44.5781 48.1875 50.9531 41.5156
Q57.3281 34.8594 57.3281 23.3906
Q57.3281 12.1562 50.6875 5.35938
Q44.0469 -1.42188 33.0156 -1.42188
Q20.3594 -1.42188 13.6719 8.26562
Q6.98438 17.9688 6.98438 36.375
Q6.98438 53.6562 15.1875 63.9375
Q23.3906 74.2188 37.2031 74.2188
Q40.9219 74.2188 44.7031 73.4844
Q48.4844 72.75 52.5938 71.2969" id="DejaVuSans-36"/>
      </defs>
      <g transform="translate(662.247734065 309.381761364)scale(0.12 -0.12)">
       <use xlink:href="#DejaVuSans-30"/>
       <use x="63.623046875" xlink:href="#DejaVuSans-36"/>
       <use x="127.24609375" xlink:href="#DejaVuSans-3a"/>
       <use x="160.9375" xlink:href="#DejaVuSans-30"/>
       <use x="224.560546875" xlink:href="#DejaVuSans-30"/>
       <use x="288.18359375" xlink:href="#DejaVuSans-3a"/>
       <use x="321.875" xlink:href="#DejaVuSans-30"/>
       <use x="385.498046875" xlink:href="#DejaVuSans-30"/>
      </g>
     </g>
    </g>
    <g id="xtick_6">
     <g id="line2d_12">
      <g>
       <use style="stroke:#000000;stroke-width:0.5;" x="812.488391788" xlink:href="#m93b0483c22" y="296.263636364"/>
      </g>
     </g>
     <g id="line2d_13">
      <g>
       <use style="stroke:#000000;stroke-width:0.5;" x="812.488391788" xlink:href="#m741efc42ff" y="63.9"/>
      </g>
     </g>
     <g id="text_6">
      <!-- 09:00:00 -->
      <defs>
       <path d="
M10.9844 1.51562
L10.9844 10.5
Q14.7031 8.73438 18.5 7.8125
Q22.3125 6.89062 25.9844 6.89062
Q35.75 6.89062 40.8906 13.4531
Q46.0469 20.0156 46.7812 33.4062
Q43.9531 29.2031 39.5938 26.9531
Q35.25 24.7031 29.9844 24.7031
Q19.0469 24.7031 12.6719 31.3125
Q6.29688 37.9375 6.29688 49.4219
Q6.29688 60.6406 12.9375 67.4219
Q19.5781 74.2188 30.6094 74.2188
Q43.2656 74.2188 49.9219 64.5156
Q56.5938 54.8281 56.5938 36.375
Q56.5938 19.1406 48.4062 8.85938
Q40.2344 -1.42188 26.4219 -1.42188
Q22.7031 -1.42188 18.8906 -0.6875
Q15.0938 0.046875 10.9844 1.51562
M30.6094 32.4219
Q37.25 32.4219 41.125 36.9531
Q45.0156 41.5 45.0156 49.4219
Q45.0156 57.2812 41.125 61.8438
Q37.25 66.4062 30.6094 66.4062
Q23.9688 66.4062 20.0938 61.8438
Q16.2188 57.2812 16.2188 49.4219
Q16.2188 41.5 20.0938 36.9531
Q23.9688 32.4219 30.6094 32.4219" id="DejaVuSans-39"/>
      </defs>
      <g transform="translate(786.334954257 309.381761364)scale(0.12 -0.12)">
       <use xlink:href="#DejaVuSans-30"/>
       <use x="63.623046875" xlink:href="#DejaVuSans-39"/>
       <use x="127.24609375" xlink:href="#DejaVuSans-3a"/>
       <use x="160.9375" xlink:href="#DejaVuSans-30"/>
       <use x="224.560546875" xlink:href="#DejaVuSans-30"/>
       <use x="288.18359375" xlink:href="#DejaVuSans-3a"/>
       <use x="321.875" xlink:href="#DejaVuSans-30"/>
       <use x="385.498046875" xlink:href="#DejaVuSans-30"/>
      </g>
     </g>
    </g>
    <g id="xtick_7">
     <g id="line2d_14">
      <g>
       <use style="stroke:#000000;stroke-width:0.5;" x="936.575611965" xlink:href="#m93b0483c22" y="296.263636364"/>
      </g>
     </g>
     <g id="line2d_15">
      <g>
       <use style="stroke:#000000;stroke-width:0.5;" x="936.575611965" xlink:href="#m741efc42ff" y="63.9"/>
      </g>
     </g>
     <g id="text_7">
      <!-- 12:00:00 -->
      <g transform="translate(910.685611949 309.381761364)scale(0.12 -0.12)">
       <use xlink:href="#DejaVuSans-31"/>
       <use x="63.623046875" xlink:href="#DejaVuSans-32"/>
       <use x="127.24609375" xlink:href="#DejaVuSans-3a"/>
       <use x="160.9375" xlink:href="#DejaVuSans-30"/>
       <use x="224.560546875" xlink:href="#DejaVuSans-30"/>
       <use x="288.18359375" xlink:href="#DejaVuSans-3a"/>
       <use x="321.875" xlink:href="#DejaVuSans-30"/>
       <use x="385.498046875" xlink:href="#DejaVuSans-30"/>
      </g>
     </g>
    </g>
    <g id="xtick_8">
     <g id="line2d_16">
      <g>
       <use style="stroke:#000000;stroke-width:0.5;" x="1060.66283214" xlink:href="#m93b0483c22" y="296.263636364"/>
      </g>
     </g>
     <g id="line2d_17">
      <g>
       <use style="stroke:#000000;stroke-width:0.5;" x="1060.66283214" xlink:href="#m741efc42ff" y="63.9"/>
      </g>
     </g>
     <g id="text_8">
      <!-- 15:00:00 -->
      <defs>
       <path d="
M10.7969 72.9062
L49.5156 72.9062
L49.5156 64.5938
L19.8281 64.5938
L19.8281 46.7344
Q21.9688 47.4688 24.1094 47.8281
Q26.2656 48.1875 28.4219 48.1875
Q40.625 48.1875 47.75 41.5
Q54.8906 34.8125 54.8906 23.3906
Q54.8906 11.625 47.5625 5.09375
Q40.2344 -1.42188 26.9062 -1.42188
Q22.3125 -1.42188 17.5469 -0.640625
Q12.7969 0.140625 7.71875 1.70312
L7.71875 11.625
Q12.1094 9.23438 16.7969 8.0625
Q21.4844 6.89062 26.7031 6.89062
Q35.1562 6.89062 40.0781 11.3281
Q45.0156 15.7656 45.0156 23.3906
Q45.0156 31 40.0781 35.4375
Q35.1562 39.8906 26.7031 39.8906
Q22.75 39.8906 18.8125 39.0156
Q14.8906 38.1406 10.7969 36.2812
z
" id="DejaVuSans-35"/>
      </defs>
      <g transform="translate(1034.77283214 309.381761364)scale(0.12 -0.12)">
       <use xlink:href="#DejaVuSans-31"/>
       <use x="63.623046875" xlink:href="#DejaVuSans-35"/>
       <use x="127.24609375" xlink:href="#DejaVuSans-3a"/>
       <use x="160.9375" xlink:href="#DejaVuSans-30"/>
       <use x="224.560546875" xlink:href="#DejaVuSans-30"/>
       <use x="288.18359375" xlink:href="#DejaVuSans-3a"/>
       <use x="321.875" xlink:href="#DejaVuSans-30"/>
       <use x="385.498046875" xlink:href="#DejaVuSans-30"/>
      </g>
     </g>
    </g>
   </g>
   <g id="matplotlib.axis_2">
    <g id="ytick_1">
     <g id="line2d_18">
      <defs>
       <path d="
M0 0
L4 0" id="m728421d6d4" style="stroke:#000000;stroke-width:0.5;"/>
      </defs>
      <g>
       <use style="stroke:#000000;stroke-width:0.5;" x="153.675" xlink:href="#m728421d6d4" y="295.844829318"/>
      </g>
     </g>
     <g id="line2d_19">
      <defs>
       <path d="
M0 0
L-4 0" id="mcb0005524f" style="stroke:#000000;stroke-width:0.5;"/>
      </defs>
      <g>
       <use style="stroke:#000000;stroke-width:0.5;" x="1106.46" xlink:href="#mcb0005524f" y="295.844829318"/>
      </g>
     </g>
     <g id="text_9">
      <!-- −1325 -->
      <defs>
       <path d="
M10.5938 35.5
L73.1875 35.5
L73.1875 27.2031
L10.5938 27.2031
z
" id="DejaVuSans-2212"/>
      </defs>
      <g transform="translate(111.39875 299.156079318)scale(0.12 -0.12)">
       <use xlink:href="#DejaVuSans-2212"/>
       <use x="83.7890625" xlink:href="#DejaVuSans-31"/>
       <use x="147.412109375" xlink:href="#DejaVuSans-33"/>
       <use x="211.03515625" xlink:href="#DejaVuSans-32"/>
       <use x="274.658203125" xlink:href="#DejaVuSans-35"/>
      </g>
     </g>
    </g>
    <g id="ytick_2">
     <g id="line2d_20">
      <g>
       <use style="stroke:#000000;stroke-width:0.5;" x="153.675" xlink:href="#m728421d6d4" y="238.032639512"/>
      </g>
     </g>
     <g id="line2d_21">
      <g>
       <use style="stroke:#000000;stroke-width:0.5;" x="1106.46" xlink:href="#mcb0005524f" y="238.032639512"/>
      </g>
     </g>
     <g id="text_10">
      <!-- −1320 -->
      <g transform="translate(111.1475 241.343889512)scale(0.12 -0.12)">
       <use xlink:href="#DejaVuSans-2212"/>
       <use x="83.7890625" xlink:href="#DejaVuSans-31"/>
       <use x="147.412109375" xlink:href="#DejaVuSans-33"/>
       <use x="211.03515625" xlink:href="#DejaVuSans-32"/>
       <use x="274.658203125" xlink:href="#DejaVuSans-30"/>
      </g>
     </g>
    </g>
    <g id="ytick_3">
     <g id="line2d_22">
      <g>
       <use style="stroke:#000000;stroke-width:0.5;" x="153.675" xlink:href="#m728421d6d4" y="180.220449706"/>
      </g>
     </g>
     <g id="line2d_23">
      <g>
       <use style="stroke:#000000;stroke-width:0.5;" x="1106.46" xlink:href="#mcb0005524f" y="180.220449706"/>
      </g>
     </g>
     <g id="text_11">
      <!-- −1315 -->
      <g transform="translate(111.39875 183.531699706)scale(0.12 -0.12)">
       <use xlink:href="#DejaVuSans-2212"/>
       <use x="83.7890625" xlink:href="#DejaVuSans-31"/>
       <use x="147.412109375" xlink:href="#DejaVuSans-33"/>
       <use x="211.03515625" xlink:href="#DejaVuSans-31"/>
       <use x="274.658203125" xlink:href="#DejaVuSans-35"/>
      </g>
     </g>
    </g>
    <g id="ytick_4">
     <g id="line2d_24">
      <g>
       <use style="stroke:#000000;stroke-width:0.5;" x="153.675" xlink:href="#m728421d6d4" y="122.408259899"/>
      </g>
     </g>
     <g id="line2d_25">
      <g>
       <use style="stroke:#000000;stroke-width:0.5;" x="1106.46" xlink:href="#mcb0005524f" y="122.408259899"/>
      </g>
     </g>
     <g id="text_12">
      <!-- −1310 -->
      <g transform="translate(111.1475 125.719509899)scale(0.12 -0.12)">
       <use xlink:href="#DejaVuSans-2212"/>
       <use x="83.7890625" xlink:href="#DejaVuSans-31"/>
       <use x="147.412109375" xlink:href="#DejaVuSans-33"/>
       <use x="211.03515625" xlink:href="#DejaVuSans-31"/>
       <use x="274.658203125" xlink:href="#DejaVuSans-30"/>
      </g>
     </g>
    </g>
    <g id="ytick_5">
     <g id="line2d_26">
      <g>
       <use style="stroke:#000000;stroke-width:0.5;" x="153.675" xlink:href="#m728421d6d4" y="64.5960700934"/>
      </g>
     </g>
     <g id="line2d_27">
      <g>
       <use style="stroke:#000000;stroke-width:0.5;" x="1106.46" xlink:href="#mcb0005524f" y="64.5960700934"/>
      </g>
     </g>
     <g id="text_13">
      <!-- −1305 -->
      <g transform="translate(111.39875 67.9073200934)scale(0.12 -0.12)">
       <use xlink:href="#DejaVuSans-2212"/>
       <use x="83.7890625" xlink:href="#DejaVuSans-31"/>
       <use x="147.412109375" xlink:href="#DejaVuSans-33"/>
       <use x="211.03515625" xlink:href="#DejaVuSans-30"/>
       <use x="274.658203125" xlink:href="#DejaVuSans-35"/>
      </g>
     </g>
    </g>
   </g>
   <g id="patch_3">
    <path d="
M153.675 63.9
L1106.46 63.9" style="fill:none;stroke:#000000;"/>
   </g>
   <g id="patch_4">
    <path d="
M1106.46 296.264
L1106.46 63.9" style="fill:none;stroke:#000000;"/>
   </g>
   <g id="patch_5">
    <path d="
M153.675 296.264
L1106.46 296.264" style="fill:none;stroke:#000000;"/>
   </g>
   <g id="patch_6">
    <path d="
M153.675 296.264
L153.675 63.9" style="fill:none;stroke:#000000;"/>
   </g>
  </g>
  <g id="axes_2">
   <g id="patch_7">
    <path d="
M153.675 575.1
L1106.46 575.1
L1106.46 342.736
L153.675 342.736
z
" style="fill:#ffffff;"/>
   </g>
   <g id="line2d_28">
    <path clip-path="url(#p3f00df8ba8)" d="
M189.291 -1
L190.651 250.427
L192.015 342.93
L192.714 399.259
L193.401 433.625
L194.077 461.531
L194.765 482.977
L195.453 479.359
L196.152 481.039
L196.828 490.599
L198.203 480.135
L198.902 509.333
L199.578 506.232
L200.277 505.198
L201.641 511.658
L202.34 506.103
L203.016 510.366
L203.703 510.624
L204.391 511.787
L205.078 501.71
L205.777 503.906
L206.453 504.165
L207.141 511.916
L207.829 511.27
L208.516 522.381
L209.204 507.524
L209.903 506.749
L210.59 493.571
L211.266 484.786
L211.965 485.819
L212.642 485.302
L213.329 481.039
L214.028 477.551
L214.704 477.163
L216.079 465.923
L216.767 470.058
L217.466 478.714
L218.83 480.651
L219.517 533.75
L220.892 534.138
L221.591 532.975
L222.955 528.453
L223.642 536.076
L224.341 531.425
L225.029 528.97
L225.717 535.042
L227.08 534.784
L228.455 533.621
L229.154 510.495
L229.842 532.717
L230.529 532.846
L232.019 526.515
L232.592 526.645
L233.956 523.802
L234.655 489.437
L236.03 484.14
L236.706 527.42
L237.405 531.296
L238.78 514.371
L239.491 474.708
L240.155 503.39
L240.843 507.395
L242.206 536.205
L242.894 534.138
L243.582 534.913
L244.968 532.458
L245.656 535.559
L246.343 532.587
L247.707 530.779
L248.394 536.98
L249.082 538.401
L249.77 539.176
L250.457 536.722
L251.145 536.851
L252.52 536.205
L253.895 538.014
L254.582 535.688
L255.27 536.722
L255.969 534.784
L256.645 531.166
L258.02 538.918
L258.708 536.205
L259.407 536.334
L260.094 536.076
L260.782 532.458
L261.458 536.98
L262.157 535.817
L263.521 534.525
L264.208 535.688
L265.583 534.655
L266.271 536.463
L266.958 537.109
L267.646 536.205
L269.033 536.722
L269.697 537.626
L271.084 536.98
L271.783 539.693
L273.192 538.789
L273.834 538.53
L274.533 538.401
L275.221 538.53
L275.92 538.272
L277.272 538.143
L277.971 539.306
L279.335 537.755
L280.022 539.047
L280.721 536.851
L281.409 539.176
L282.085 535.947
L282.772 538.918
L283.46 527.42
L284.732 536.98
L287.597 536.463
L288.284 537.626
L288.972 537.626
L289.659 538.53
L291.023 539.047
L291.722 534.913
L292.41 522.51
L293.097 516.18
L293.785 511.27
L294.472 520.185
L295.16 512.175
L296.523 539.822
L297.222 519.28
L298.586 501.452
L299.274 512.175
L299.973 536.592
L300.66 516.697
L301.348 518.764
L302.035 538.401
L302.723 503.648
L303.41 535.947
L304.774 530.52
L305.473 522.252
L306.149 526.257
L306.837 521.089
L307.536 485.302
L308.223 483.881
L308.911 498.739
L309.598 508.816
L310.275 522.381
L310.974 501.322
L311.661 493.571
L313.025 489.695
L313.724 512.046
L314.434 504.294
L315.087 517.859
L315.775 506.749
L316.474 518.376
L317.838 501.581
L319.213 504.552
L319.9 504.294
L320.599 497.188
L321.975 510.754
L323.338 497.963
L324.026 503.26
L324.725 525.999
L325.401 528.453
L326.1 517.213
L326.787 534.655
L327.475 533.621
L328.163 521.994
L328.85 527.032
L329.538 523.415
L330.225 510.624
L330.913 427.553
L332.288 509.849
L332.964 517.859
L334.339 496.542
L335.714 517.472
L336.402 526.128
L337.101 515.405
L337.788 486.982
L338.476 509.849
L339.163 516.051
L341.902 508.816
L342.59 518.118
L343.277 533.879
L343.965 518.247
L344.652 523.544
L345.351 520.572
L346.039 522.898
L347.403 519.926
L348.09 515.405
L349.465 530.52
L350.164 532.975
L350.84 530.908
L351.539 536.205
L352.227 527.936
L353.591 522.381
L354.278 530.262
L355.688 525.094
L356.352 525.094
L357.04 514.371
L357.727 530.52
L358.404 521.218
L359.779 532.717
L360.466 528.195
L361.165 525.482
L362.529 530.779
L363.904 516.309
L364.603 530.262
L365.279 517.859
L365.978 524.19
L366.666 517.989
L367.342 524.577
L368.717 509.72
L369.416 524.19
L370.103 523.156
L370.791 528.712
L371.467 535.817
L372.155 524.319
L372.854 530.65
L373.541 521.735
L374.217 522.769
L374.905 516.18
L375.592 523.544
L376.291 523.802
L376.968 498.739
L377.667 529.487
L378.343 534.913
L379.042 527.291
L380.405 516.567
L381.093 529.874
L381.78 520.831
L383.156 517.472
L383.843 529.616
L385.218 524.19
L385.917 527.161
L386.605 529.487
L387.292 517.601
L387.98 527.678
L390.031 513.467
L390.73 520.185
L391.418 530.262
L392.094 500.677
L392.793 524.19
L394.157 527.032
L394.844 522.123
L395.532 528.195
L396.93 526.386
L397.606 529.745
L398.981 523.802
L400.345 523.415
L401.044 518.764
L402.407 510.883
L403.106 520.702
L403.794 520.572
L404.481 527.291
L405.169 492.408
L405.845 524.061
L407.22 519.28
L407.919 516.051
L408.607 505.328
L409.294 498.739
L409.982 513.338
L411.345 518.635
L412.033 525.869
L412.721 498.868
L413.42 520.443
L414.107 509.462
L414.795 526.128
L415.482 523.027
L416.17 526.515
L416.857 525.74
L417.533 527.549
L418.232 522.123
L418.92 484.915
L420.284 515.663
L420.983 534.784
L422.346 525.74
L423.034 532.329
L423.721 533.233
L424.409 534.913
L425.108 532.975
L425.796 516.697
L426.483 525.74
L427.171 509.462
L427.858 519.41
L428.534 531.296
L429.909 525.094
L430.608 532.071
L431.296 512.433
L431.972 527.549
L432.671 527.807
L433.359 534.655
L434.046 526.515
L435.41 527.549
L436.097 533.621
L437.484 518.247
L438.195 532.329
L439.547 528.324
L440.223 535.43
L440.922 530.133
L441.609 522.381
L442.297 529.099
L442.973 517.73
L443.672 524.577
L444.348 505.973
L446.411 464.502
L447.11 407.269
L447.797 437.113
L448.496 457.009
L449.184 424.969
L449.849 436.079
L450.536 430.266
L451.224 417.863
L451.911 388.924
L452.599 413.341
L453.974 409.853
L454.662 371.095
L456.037 473.804
L456.736 444.348
L457.423 436.855
L458.111 447.707
L458.787 453.004
L460.173 429.232
L460.861 443.314
L461.537 420.835
L462.225 471.22
L463.6 448.224
L464.975 500.677
L465.662 473.287
L466.35 517.343
L467.049 504.036
L467.737 497.188
L468.413 486.594
L469.112 512.304
L469.799 525.74
L470.487 518.118
L471.174 522.769
L471.862 521.994
L472.538 522.123
L473.226 497.317
L473.925 525.223
L474.612 519.022
L475.976 478.455
L476.663 465.536
L477.351 460.239
L478.05 449.903
L479.459 442.281
L480.113 382.722
L480.8 334.791
L481.476 279.884
L482.175 202.755
L482.851 86.2217
L483.768 -1
M525.778 -1
L526.167 58.0574
L526.866 252.753
L527.554 360.113
L529.605 434.142
L530.304 466.698
L531.003 471.995
L532.355 478.584
L533.043 473.158
L533.742 489.049
L535.106 508.945
L535.793 488.92
L537.18 498.739
L537.867 499.385
L538.555 496.413
L539.242 485.173
L539.93 484.269
L540.606 486.336
L541.305 512.692
L542.004 524.061
L542.669 488.145
L543.356 508.557
L544.044 509.72
L544.731 508.687
L545.43 489.953
L546.118 489.566
L546.806 480.135
L548.169 491.762
L549.544 467.344
L550.232 507.524
L550.919 497.576
L551.619 508.816
L552.306 506.361
L552.994 506.103
L554.369 512.304
L555.045 490.729
L555.732 508.428
L556.42 518.376
L557.795 491.762
L558.483 493.958
L559.182 508.816
L559.869 496.542
L560.545 492.666
L561.989 498.093
L562.631 507.395
L563.296 503.519
L563.983 507.265
L565.358 471.866
L566.046 516.697
L567.421 524.707
L568.12 515.275
L568.807 512.562
L569.495 516.955
L570.183 510.754
L570.87 507.782
L571.558 502.744
L572.245 512.433
L572.921 479.359
L573.609 496.026
L574.296 507.524
L574.984 493.571
L575.683 497.963
L576.371 433.625
L577.734 508.816
L579.121 488.403
L579.808 496.671
L580.496 489.824
L581.183 494.734
L581.871 506.878
L582.547 492.021
L583.246 499.901
L584.61 513.596
L585.297 499.385
L586.672 493.442
L587.371 493.571
L588.747 498.868
L589.423 508.687
L590.798 506.749
L592.173 498.48
L593.548 494.863
L594.236 492.021
L594.935 451.712
L595.622 492.666
L596.31 472.771
L596.986 485.69
L597.673 485.69
L599.048 502.356
L599.747 478.714
L600.435 480.135
L601.123 476.646
L601.81 444.606
L603.185 471.479
L603.873 432.074
L604.56 478.326
L605.236 472.512
L605.935 463.339
L607.299 473.287
L607.998 464.115
L608.686 467.99
L609.373 505.715
L610.737 494.734
L611.436 492.796
L612.124 486.336
L612.8 500.16
L613.499 494.992
L614.186 504.682
L614.874 494.088
L615.561 493.442
L616.249 477.551
L616.925 484.14
L617.613 474.45
L618.3 481.685
L618.999 483.235
L619.675 485.69
L620.363 467.99
L621.062 473.804
L621.749 481.168
L622.437 496.155
L623.801 482.719
L624.488 479.876
L625.187 498.868
L626.551 478.714
L627.238 490.729
L627.937 495.896
L629.301 468.12
L629.989 512.046
L630.676 500.418
L631.375 499.772
L632.063 508.945
L632.75 498.739
L634.114 495.638
L634.813 486.078
L635.489 474.838
L636.864 431.299
L637.552 508.041
L638.927 497.963
L639.614 494.863
L640.302 503.131
L641.001 499.643
L641.688 468.507
L643.052 468.249
L643.74 482.977
L644.45 466.052
L645.138 470.703
L645.814 477.422
L646.513 498.222
L647.189 493.183
L648.553 495.638
L649.24 492.15
L650.615 430.007
L651.99 485.69
L653.365 420.059
L654.053 485.819
L654.752 487.111
L655.463 486.594
L656.127 500.806
L656.815 500.935
L657.491 501.193
L658.178 374.971
L658.877 397.838
L659.565 481.943
L660.241 473.546
L661.616 429.232
L662.315 449.774
L663.679 451.583
L665.054 429.749
L666.441 465.019
L667.117 466.569
L667.804 453.908
L668.492 433.366
L669.179 451.195
L669.867 446.544
L670.566 469.67
L671.253 478.714
L671.929 465.665
L672.629 407.915
L673.305 438.017
L673.992 455.459
L674.68 450.937
L676.112 464.631
L678.118 463.856
L678.805 476.776
L680.18 478.584
L681.567 514.629
L682.93 521.218
L683.618 523.415
L684.306 521.089
L685.704 525.094
L686.414 511.27
L687.067 503.519
L688.431 505.844
L689.806 520.96
L691.193 509.074
L691.892 511.787
L693.255 500.935
L693.931 522.252
L695.306 500.289
L696.005 493.829
L696.693 509.978
L697.381 510.108
L698.068 523.802
L698.744 524.061
L699.432 514.5
L700.131 516.955
L700.807 509.978
L701.506 509.978
L702.193 520.056
L702.881 516.051
L704.245 516.18
L704.932 510.754
L705.631 479.876
L706.307 497.705
L707.006 497.834
L707.694 509.72
L709.058 508.945
L709.745 500.547
L710.444 530.779
L711.132 532.329
L711.808 518.635
L712.518 527.678
L713.183 531.037
L713.882 527.678
L714.558 511.529
L715.246 524.448
L715.945 518.247
L716.644 519.539
L717.32 495.767
L718.007 509.978
L720.058 519.539
L722.121 502.614
L722.809 512.692
L723.508 509.074
L724.195 485.948
L724.883 501.064
L725.582 508.299
L726.957 508.816
L727.633 504.682
L728.321 498.997
L729.02 495.38
L730.372 495.25
L731.059 495.509
L732.446 493.958
L733.122 494.992
L734.497 501.322
L735.196 492.279
L735.872 506.232
L736.56 494.346
L737.259 498.093
L737.946 513.854
L738.634 515.146
L739.998 533.879
L740.697 525.999
L741.373 529.874
L742.072 517.73
L742.759 471.479
L743.447 514.759
L744.123 520.314
L744.811 487.886
L745.51 505.328
L746.197 497.963
L746.885 497.834
L747.572 521.089
L748.936 489.953
L749.635 530.133
L750.322 518.893
L751.01 529.099
L751.686 526.257
L752.385 506.232
L753.749 509.978
L754.436 476.517
L755.811 520.443
L756.499 522.898
L757.198 522.64
L758.573 502.227
L759.249 501.839
L760.624 504.811
L761.312 509.462
L762.011 498.222
L762.698 499.514
L763.375 493.054
L764.074 501.839
L764.75 496.026
L765.449 499.385
L766.136 503.777
L766.824 480.135
L768.199 492.666
L768.944 518.635
L769.563 517.601
L770.273 521.089
L770.949 515.792
L771.637 521.864
L772.313 523.027
L773 520.96
L773.688 522.769
L774.387 524.19
L775.751 527.678
L776.45 518.505
L777.137 515.792
L777.825 523.544
L778.524 503.906
L779.876 533.621
L781.274 522.769
L782.626 525.999
L783.314 522.51
L784.689 524.448
L785.388 524.448
L786.075 521.735
L786.763 511.141
L787.451 511.916
L788.814 525.74
L790.178 524.19
L790.888 514.113
L791.576 532.458
L792.263 531.166
L793.627 526.128
L794.315 522.252
L795.014 526.257
L796.377 512.95
L797.076 530.65
L797.764 528.066
L798.451 529.745
L799.128 523.285
L799.872 534.009
L800.503 492.796
L802.565 525.869
L803.94 509.849
L804.639 524.061
L805.327 503.648
L806.003 478.068
L807.39 501.193
L808.077 506.878
L809.475 507.265
L810.14 523.156
L810.816 513.596
L811.504 469.412
L812.191 529.358
L812.89 530.004
L813.578 526.645
L814.953 508.041
L815.629 508.945
L816.316 523.027
L817.015 525.353
L817.692 531.683
L818.391 531.942
L819.078 531.812
L819.766 530.52
L820.453 527.807
L821.817 531.812
L822.516 531.425
L823.203 532.458
L823.891 529.358
L824.579 531.812
L825.255 529.874
L826.63 524.319
L827.317 530.391
L828.005 530.133
L829.38 529.099
L830.755 528.97
L831.466 529.358
L832.142 521.864
L833.517 481.814
L834.204 485.044
L834.892 471.349
L835.579 470.316
L836.256 476.776
L837.631 484.398
L838.33 479.876
L839.017 483.881
L840.381 489.695
L841.068 477.034
L841.779 460.239
L843.131 455.975
L843.83 470.187
L844.506 471.737
L845.205 464.89
L845.881 486.853
L846.58 491.762
L847.268 503.648
L847.956 498.609
L848.643 511.4
L849.319 518.764
L850.729 505.457
L851.382 520.185
L852.092 524.319
L852.757 508.041
L853.445 510.366
L854.144 490.858
L854.82 502.098
L855.507 510.108
L856.206 513.467
L856.882 518.505
L857.593 515.663
L858.257 511.658
L859.633 511.141
L860.332 504.165
L861.031 518.764
L861.707 518.118
L862.406 519.022
L863.082 517.213
L863.769 512.821
L864.457 505.069
L865.144 510.495
L866.508 519.151
L867.883 511.4
L869.27 512.821
L869.957 507.395
L870.645 512.175
L872.02 496.671
L873.395 511.27
L874.083 495.38
L874.77 503.777
L876.145 501.839
L876.833 496.93
L877.52 486.336
L878.208 508.557
L878.896 505.715
L880.259 503.519
L880.958 506.361
L881.646 507.007
L882.333 497.834
L883.021 495.767
L883.708 501.71
L885.072 509.849
L885.771 495.638
L887.135 498.48
L887.834 490.47
L889.197 484.786
L889.885 491.891
L891.272 500.418
L891.971 505.457
L892.647 503.519
L893.323 489.824
L894.022 493.829
L894.698 498.868
L895.397 495.509
L896.084 497.188
L896.761 494.217
L898.136 498.997
L898.823 497.705
L899.511 497.834
L900.21 504.552
L900.897 493.829
L901.573 505.457
L902.273 506.49
L903.636 507.782
L904.324 504.552
L905.011 509.074
L906.386 502.744
L907.074 497.059
L907.762 500.677
L908.461 501.452
L909.137 510.108
L909.824 504.036
L910.523 504.552
L911.211 509.978
L911.898 512.304
L912.586 501.322
L913.273 503.519
L913.961 504.294
L914.649 504.552
L915.348 507.653
L916.012 499.514
L916.711 502.744
L918.086 495.896
L918.774 504.036
L920.138 509.333
L920.825 508.428
L921.524 501.193
L922.212 509.849
L922.899 496.671
L923.575 497.576
L924.274 495.638
L924.962 500.16
L925.649 503.519
L927.013 503.26
L928.388 502.485
L929.076 499.385
L929.775 504.165
L930.462 491.891
L931.826 500.289
L933.224 502.356
L935.264 503.777
L935.951 500.677
L936.639 492.021
L938.014 496.284
L938.713 491.504
L939.401 500.289
L940.088 498.868
L940.776 486.724
L941.452 497.188
L942.139 493.571
L942.838 495.25
L944.202 497.834
L945.577 488.92
L946.276 496.284
L946.952 489.437
L947.64 499.643
L949.015 492.666
L950.413 494.992
L951.078 491.504
L951.777 494.088
L952.453 494.604
L953.14 495.38
L953.839 497.576
L954.527 495.38
L955.226 496.542
L955.902 490.987
L957.266 484.915
L957.965 501.193
L959.328 496.542
L960.703 493.829
L961.402 474.708
L962.078 480.264
L962.766 495.767
L963.465 487.24
L964.153 488.532
L964.84 491.504
L965.539 492.15
L966.891 484.527
L967.579 490.858
L968.278 485.819
L968.954 483.106
L969.653 473.417
L971.017 475.613
L971.704 483.881
L972.392 481.168
L973.767 495.25
L974.477 491.633
L975.154 492.925
L975.864 489.437
L976.517 493.7
L977.216 492.15
L977.904 498.997
L978.591 494.217
L979.279 500.16
L979.966 499.255
L980.643 495.121
L982.018 493.183
L982.717 494.604
L983.404 500.16
L984.092 493.7
L984.779 502.873
L985.467 504.036
L986.166 479.876
L987.518 510.754
L988.217 509.978
L988.905 511.141
L989.592 511.4
L990.28 513.208
L990.967 511.27
L991.655 517.73
L993.019 469.67
L994.394 513.725
L995.093 515.146
L995.78 463.985
L998.519 511.787
L999.894 510.108
L1000.59 505.069
L1001.28 501.322
L1001.96 503.648
L1002.66 503.002
L1003.34 498.351
L1004.03 498.222
L1004.72 496.93
L1005.41 506.232
L1006.09 499.514
L1006.78 500.806
L1007.47 502.356
L1008.16 496.542
L1008.84 498.222
L1009.52 500.935
L1010.22 490.341
L1011.58 505.973
L1012.28 502.614
L1013.65 488.791
L1014.34 501.193
L1015.73 500.418
L1016.4 503.519
L1017.09 505.069
L1017.78 500.16
L1018.48 500.418
L1019.16 507.265
L1019.83 499.514
L1020.52 503.519
L1021.22 503.39
L1021.91 498.609
L1022.59 501.71
L1023.28 493.571
L1023.97 497.963
L1024.66 491.762
L1025.35 498.222
L1026.03 488.145
L1026.73 480.264
L1028.11 491.375
L1029.47 463.21
L1030.15 489.824
L1030.85 483.752
L1031.53 490.599
L1032.22 483.365
L1032.91 488.145
L1034.27 487.24
L1035.65 488.015
L1036.35 484.398
L1037.05 487.628
L1037.73 480.264
L1039.08 484.01
L1039.77 475.354
L1041.16 489.695
L1041.85 487.628
L1042.55 462.564
L1043.21 488.92
L1043.91 477.163
L1044.61 460.626
L1045.28 477.809
L1045.97 446.932
L1046.65 479.23
L1047.35 471.608
L1048.05 460.626
L1049.4 464.761
L1050.09 481.427
L1050.78 458.559
L1051.47 468.895
L1052.15 472.641
L1052.84 479.747
L1054.22 459.722
L1054.91 455.071
L1055.6 479.101
L1056.98 480.135
L1057.66 484.656
L1058.37 479.747
L1059.05 477.034
L1059.71 485.948
L1060.4 469.412
L1061.77 483.494
L1062.47 487.24
L1063.16 483.235
L1064.52 487.757
L1065.21 489.437
L1065.91 491.891
L1066.6 460.239
L1067.27 484.14
L1067.99 490.341
L1068.66 471.995
L1069.35 485.69
L1070.04 489.437
L1070.72 474.063
L1071.4 477.938
L1072.78 472.383
L1073.47 472.771
L1074.16 485.302
L1074.85 484.527
L1075.53 492.537
L1076.22 481.685
L1076.91 475.096
L1077.6 490.212
L1078.29 488.274
L1078.97 488.145
L1079.65 494.346
L1081.04 496.93
L1081.71 493.183
L1082.4 498.351
L1083.1 500.935
L1083.79 499.901
L1084.46 475.484
L1085.16 468.895
L1085.85 469.799
L1086.53 472.125
L1087.23 466.698
L1088.6 462.306
L1089.3 445.769
L1090.65 398.096
L1091.34 328.332
L1092.03 297.067
L1092.73 289.186
L1093.41 211.54
L1094.11 193.324
L1094.78 140.096
L1095.48 44.8796
L1095.7 -1
L1095.7 -1" style="fill:none;stroke:#0000ff;stroke-linecap:square;"/>
   </g>
   <g id="matplotlib.axis_3">
    <g id="xtick_9">
     <g id="line2d_29">
      <g>
       <use style="stroke:#000000;stroke-width:0.5;" x="190.639682729" xlink:href="#m93b0483c22" y="575.1"/>
      </g>
     </g>
     <g id="line2d_30">
      <g>
       <use style="stroke:#000000;stroke-width:0.5;" x="190.639682729" xlink:href="#m741efc42ff" y="342.736363636"/>
      </g>
     </g>
     <g id="text_14">
      <!-- 18:00:00 -->
      <g transform="translate(164.74968277 588.218125)scale(0.12 -0.12)">
       <use xlink:href="#DejaVuSans-31"/>
       <use x="63.623046875" xlink:href="#DejaVuSans-38"/>
       <use x="127.24609375" xlink:href="#DejaVuSans-3a"/>
       <use x="160.9375" xlink:href="#DejaVuSans-30"/>
       <use x="224.560546875" xlink:href="#DejaVuSans-30"/>
       <use x="288.18359375" xlink:href="#DejaVuSans-3a"/>
       <use x="321.875" xlink:href="#DejaVuSans-30"/>
       <use x="385.498046875" xlink:href="#DejaVuSans-30"/>
      </g>
     </g>
    </g>
    <g id="xtick_10">
     <g id="line2d_31">
      <g>
       <use style="stroke:#000000;stroke-width:0.5;" x="314.399920488" xlink:href="#m93b0483c22" y="575.1"/>
      </g>
     </g>
     <g id="line2d_32">
      <g>
       <use style="stroke:#000000;stroke-width:0.5;" x="314.399920488" xlink:href="#m741efc42ff" y="342.736363636"/>
      </g>
     </g>
     <g id="text_15">
      <!-- 21:00:00 -->
      <g transform="translate(288.290545464 588.218125)scale(0.12 -0.12)">
       <use xlink:href="#DejaVuSans-32"/>
       <use x="63.623046875" xlink:href="#DejaVuSans-31"/>
       <use x="127.24609375" xlink:href="#DejaVuSans-3a"/>
       <use x="160.9375" xlink:href="#DejaVuSans-30"/>
       <use x="224.560546875" xlink:href="#DejaVuSans-30"/>
       <use x="288.18359375" xlink:href="#DejaVuSans-3a"/>
       <use x="321.875" xlink:href="#DejaVuSans-30"/>
       <use x="385.498046875" xlink:href="#DejaVuSans-30"/>
      </g>
     </g>
    </g>
    <g id="xtick_11">
     <g id="line2d_33">
      <g>
       <use style="stroke:#000000;stroke-width:0.5;" x="438.160158247" xlink:href="#m93b0483c22" y="575.1"/>
      </g>
     </g>
     <g id="line2d_34">
      <g>
       <use style="stroke:#000000;stroke-width:0.5;" x="438.160158247" xlink:href="#m741efc42ff" y="342.736363636"/>
      </g>
     </g>
     <g id="text_16">
      <!-- 00:00:00 -->
      <g transform="translate(412.006720777 588.218125)scale(0.12 -0.12)">
       <use xlink:href="#DejaVuSans-30"/>
       <use x="63.623046875" xlink:href="#DejaVuSans-30"/>
       <use x="127.24609375" xlink:href="#DejaVuSans-3a"/>
       <use x="160.9375" xlink:href="#DejaVuSans-30"/>
       <use x="224.560546875" xlink:href="#DejaVuSans-30"/>
       <use x="288.18359375" xlink:href="#DejaVuSans-3a"/>
       <use x="321.875" xlink:href="#DejaVuSans-30"/>
       <use x="385.498046875" xlink:href="#DejaVuSans-30"/>
      </g>
     </g>
    </g>
    <g id="xtick_12">
     <g id="line2d_35">
      <g>
       <use style="stroke:#000000;stroke-width:0.5;" x="561.920396006" xlink:href="#m93b0483c22" y="575.1"/>
      </g>
     </g>
     <g id="line2d_36">
      <g>
       <use style="stroke:#000000;stroke-width:0.5;" x="561.920396006" xlink:href="#m741efc42ff" y="342.736363636"/>
      </g>
     </g>
     <g id="text_17">
      <!-- 03:00:00 -->
      <g transform="translate(535.76695847 588.218125)scale(0.12 -0.12)">
       <use xlink:href="#DejaVuSans-30"/>
       <use x="63.623046875" xlink:href="#DejaVuSans-33"/>
       <use x="127.24609375" xlink:href="#DejaVuSans-3a"/>
       <use x="160.9375" xlink:href="#DejaVuSans-30"/>
       <use x="224.560546875" xlink:href="#DejaVuSans-30"/>
       <use x="288.18359375" xlink:href="#DejaVuSans-3a"/>
       <use x="321.875" xlink:href="#DejaVuSans-30"/>
       <use x="385.498046875" xlink:href="#DejaVuSans-30"/>
      </g>
     </g>
    </g>
    <g id="xtick_13">
     <g id="line2d_37">
      <g>
       <use style="stroke:#000000;stroke-width:0.5;" x="685.680633765" xlink:href="#m93b0483c22" y="575.1"/>
      </g>
     </g>
     <g id="line2d_38">
      <g>
       <use style="stroke:#000000;stroke-width:0.5;" x="685.680633765" xlink:href="#m741efc42ff" y="342.736363636"/>
      </g>
     </g>
     <g id="text_18">
      <!-- 06:00:00 -->
      <g transform="translate(659.527196283 588.218125)scale(0.12 -0.12)">
       <use xlink:href="#DejaVuSans-30"/>
       <use x="63.623046875" xlink:href="#DejaVuSans-36"/>
       <use x="127.24609375" xlink:href="#DejaVuSans-3a"/>
       <use x="160.9375" xlink:href="#DejaVuSans-30"/>
       <use x="224.560546875" xlink:href="#DejaVuSans-30"/>
       <use x="288.18359375" xlink:href="#DejaVuSans-3a"/>
       <use x="321.875" xlink:href="#DejaVuSans-30"/>
       <use x="385.498046875" xlink:href="#DejaVuSans-30"/>
      </g>
     </g>
    </g>
    <g id="xtick_14">
     <g id="line2d_39">
      <g>
       <use style="stroke:#000000;stroke-width:0.5;" x="809.440871523" xlink:href="#m93b0483c22" y="575.1"/>
      </g>
     </g>
     <g id="line2d_40">
      <g>
       <use style="stroke:#000000;stroke-width:0.5;" x="809.440871523" xlink:href="#m741efc42ff" y="342.736363636"/>
      </g>
     </g>
     <g id="text_19">
      <!-- 09:00:00 -->
      <g transform="translate(783.287433977 588.218125)scale(0.12 -0.12)">
       <use xlink:href="#DejaVuSans-30"/>
       <use x="63.623046875" xlink:href="#DejaVuSans-39"/>
       <use x="127.24609375" xlink:href="#DejaVuSans-3a"/>
       <use x="160.9375" xlink:href="#DejaVuSans-30"/>
       <use x="224.560546875" xlink:href="#DejaVuSans-30"/>
       <use x="288.18359375" xlink:href="#DejaVuSans-3a"/>
       <use x="321.875" xlink:href="#DejaVuSans-30"/>
       <use x="385.498046875" xlink:href="#DejaVuSans-30"/>
      </g>
     </g>
    </g>
    <g id="xtick_15">
     <g id="line2d_41">
      <g>
       <use style="stroke:#000000;stroke-width:0.5;" x="933.201109282" xlink:href="#m93b0483c22" y="575.1"/>
      </g>
     </g>
     <g id="line2d_42">
      <g>
       <use style="stroke:#000000;stroke-width:0.5;" x="933.201109282" xlink:href="#m741efc42ff" y="342.736363636"/>
      </g>
     </g>
     <g id="text_20">
      <!-- 12:00:00 -->
      <g transform="translate(907.31110929 588.218125)scale(0.12 -0.12)">
       <use xlink:href="#DejaVuSans-31"/>
       <use x="63.623046875" xlink:href="#DejaVuSans-32"/>
       <use x="127.24609375" xlink:href="#DejaVuSans-3a"/>
       <use x="160.9375" xlink:href="#DejaVuSans-30"/>
       <use x="224.560546875" xlink:href="#DejaVuSans-30"/>
       <use x="288.18359375" xlink:href="#DejaVuSans-3a"/>
       <use x="321.875" xlink:href="#DejaVuSans-30"/>
       <use x="385.498046875" xlink:href="#DejaVuSans-30"/>
      </g>
     </g>
    </g>
    <g id="xtick_16">
     <g id="line2d_43">
      <g>
       <use style="stroke:#000000;stroke-width:0.5;" x="1056.96134704" xlink:href="#m93b0483c22" y="575.1"/>
      </g>
     </g>
     <g id="line2d_44">
      <g>
       <use style="stroke:#000000;stroke-width:0.5;" x="1056.96134704" xlink:href="#m741efc42ff" y="342.736363636"/>
      </g>
     </g>
     <g id="text_21">
      <!-- 15:00:00 -->
      <g transform="translate(1031.07134698 588.218125)scale(0.12 -0.12)">
       <use xlink:href="#DejaVuSans-31"/>
       <use x="63.623046875" xlink:href="#DejaVuSans-35"/>
       <use x="127.24609375" xlink:href="#DejaVuSans-3a"/>
       <use x="160.9375" xlink:href="#DejaVuSans-30"/>
       <use x="224.560546875" xlink:href="#DejaVuSans-30"/>
       <use x="288.18359375" xlink:href="#DejaVuSans-3a"/>
       <use x="321.875" xlink:href="#DejaVuSans-30"/>
       <use x="385.498046875" xlink:href="#DejaVuSans-30"/>
      </g>
     </g>
    </g>
   </g>
   <g id="matplotlib.axis_4">
    <g id="ytick_6">
     <g id="line2d_45">
      <g>
       <use style="stroke:#000000;stroke-width:0.5;" x="153.675" xlink:href="#m728421d6d4" y="547.315603641"/>
      </g>
     </g>
     <g id="line2d_46">
      <g>
       <use style="stroke:#000000;stroke-width:0.5;" x="1106.46" xlink:href="#mcb0005524f" y="547.315603641"/>
      </g>
     </g>
     <g id="text_22">
      <!-- 4.30 -->
      <defs>
       <path d="
M37.7969 64.3125
L12.8906 25.3906
L37.7969 25.3906
z

M35.2031 72.9062
L47.6094 72.9062
L47.6094 25.3906
L58.0156 25.3906
L58.0156 17.1875
L47.6094 17.1875
L47.6094 0
L37.7969 0
L37.7969 17.1875
L4.89062 17.1875
L4.89062 26.7031
z
" id="DejaVuSans-34"/>
       <path d="
M10.6875 12.4062
L21 12.4062
L21 0
L10.6875 0
z
" id="DejaVuSans-2e"/>
      </defs>
      <g transform="translate(124.34 550.626853641)scale(0.12 -0.12)">
       <use xlink:href="#DejaVuSans-34"/>
       <use x="63.623046875" xlink:href="#DejaVuSans-2e"/>
       <use x="95.41015625" xlink:href="#DejaVuSans-33"/>
       <use x="159.033203125" xlink:href="#DejaVuSans-30"/>
      </g>
     </g>
    </g>
    <g id="ytick_7">
     <g id="line2d_47">
      <g>
       <use style="stroke:#000000;stroke-width:0.5;" x="153.675" xlink:href="#m728421d6d4" y="482.718530593"/>
      </g>
     </g>
     <g id="line2d_48">
      <g>
       <use style="stroke:#000000;stroke-width:0.5;" x="1106.46" xlink:href="#mcb0005524f" y="482.718530593"/>
      </g>
     </g>
     <g id="text_23">
      <!-- 4.35 -->
      <g transform="translate(124.59125 486.029780593)scale(0.12 -0.12)">
       <use xlink:href="#DejaVuSans-34"/>
       <use x="63.623046875" xlink:href="#DejaVuSans-2e"/>
       <use x="95.41015625" xlink:href="#DejaVuSans-33"/>
       <use x="159.033203125" xlink:href="#DejaVuSans-35"/>
      </g>
     </g>
    </g>
    <g id="ytick_8">
     <g id="line2d_49">
      <g>
       <use style="stroke:#000000;stroke-width:0.5;" x="153.675" xlink:href="#m728421d6d4" y="418.121457544"/>
      </g>
     </g>
     <g id="line2d_50">
      <g>
       <use style="stroke:#000000;stroke-width:0.5;" x="1106.46" xlink:href="#mcb0005524f" y="418.121457544"/>
      </g>
     </g>
     <g id="text_24">
      <!-- 4.40 -->
      <g transform="translate(124.34 421.432707544)scale(0.12 -0.12)">
       <use xlink:href="#DejaVuSans-34"/>
       <use x="63.623046875" xlink:href="#DejaVuSans-2e"/>
       <use x="95.41015625" xlink:href="#DejaVuSans-34"/>
       <use x="159.033203125" xlink:href="#DejaVuSans-30"/>
      </g>
     </g>
    </g>
    <g id="ytick_9">
     <g id="line2d_51">
      <g>
       <use style="stroke:#000000;stroke-width:0.5;" x="153.675" xlink:href="#m728421d6d4" y="353.524384495"/>
      </g>
     </g>
     <g id="line2d_52">
      <g>
       <use style="stroke:#000000;stroke-width:0.5;" x="1106.46" xlink:href="#mcb0005524f" y="353.524384495"/>
      </g>
     </g>
     <g id="text_25">
      <!-- 4.45 -->
      <g transform="translate(124.59125 356.835634495)scale(0.12 -0.12)">
       <use xlink:href="#DejaVuSans-34"/>
       <use x="63.623046875" xlink:href="#DejaVuSans-2e"/>
       <use x="95.41015625" xlink:href="#DejaVuSans-34"/>
       <use x="159.033203125" xlink:href="#DejaVuSans-35"/>
      </g>
     </g>
    </g>
   </g>
   <g id="patch_8">
    <path d="
M153.675 342.736
L1106.46 342.736" style="fill:none;stroke:#000000;"/>
   </g>
   <g id="patch_9">
    <path d="
M1106.46 575.1
L1106.46 342.736" style="fill:none;stroke:#000000;"/>
   </g>
   <g id="patch_10">
    <path d="
M153.675 575.1
L1106.46 575.1" style="fill:none;stroke:#000000;"/>
   </g>
   <g id="patch_11">
    <path d="
M153.675 575.1
L153.675 342.736" style="fill:none;stroke:#000000;"/>
   </g>
  </g>
 </g>
 <defs>
  <clipPath id="p3f00df8ba8">
   <rect height="232.363636364" width="952.785" x="153.675" y="342.736363636"/>
  </clipPath>
  <clipPath id="p8348b65751">
   <rect height="232.363636364" width="952.785" x="153.675" y="63.9"/>
  </clipPath>
 </defs>
</svg>
