<?xml version="1.0" encoding="utf-8" standalone="no"?>
<!DOCTYPE svg PUBLIC "-//W3C//DTD SVG 1.1//EN"
  "http://www.w3.org/Graphics/SVG/1.1/DTD/svg11.dtd">
<!-- Created with matplotlib (http://matplotlib.org/) -->
<svg height="639pt" version="1.1" viewBox="0 0 1229 639" width="1229pt" xmlns="http://www.w3.org/2000/svg" xmlns:xlink="http://www.w3.org/1999/xlink">
 <defs>
  <style type="text/css">
*{stroke-linecap:butt;stroke-linejoin:round;}
  </style>
 </defs>
 <g id="figure_1">
  <g id="patch_1">
   <path d="
M0 639
L1229.4 639
L1229.4 0
L0 0
z
" style="fill:#ffffff;"/>
  </g>
  <g id="axes_1">
   <g id="patch_2">
    <path d="
M153.675 296.264
L1106.46 296.264
L1106.46 63.9
L153.675 63.9
z
" style="fill:#ffffff;"/>
   </g>
   <g id="line2d_1">
    <path clip-path="url(#p8348b65751)" d="
M36.144 64.1017
L239.815 64.1063
L240.413 64.4307
L241.62 64.3906
L242.228 65.2227
L242.847 69.1104
L243.445 69.7992
L244.054 75.2826
L245.879 90.2307
L248.921 116.899
L251.974 144.739
L255.614 180.319
L256.831 192.019
L257.44 195.411
L258.667 205.701
L262.307 241.346
L263.534 252.889
L264.741 263.104
L265.36 265.537
L266.567 274.916
L267.175 280.005
L267.783 282.526
L268.402 282.755
L269 282.577
L270.217 283.738
L270.836 283.525
L272.053 283.531
L280.571 283.461
L281.18 283.277
L281.778 283.285
L282.397 283.113
L287.264 283.133
L288.471 284.443
L292.122 284.47
L297.608 284.402
L298.216 284.254
L298.825 284.421
L349.935 284.416
L351.152 284.234
L352.978 284.414
L356.02 284.424
L357.227 283.714
L357.845 284.323
L359.052 284.388
L359.66 284.283
L361.496 284.394
L362.104 284.123
L362.713 284.397
L363.321 284.197
L364.528 283.652
L379.75 283.645
L380.956 283.938
L381.565 283.574
L382.782 283.65
L387.66 283.629
L388.876 283.912
L389.475 283.8
L393.136 283.821
L402.252 283.83
L406.522 283.82
L414.432 283.829
L418.072 283.833
L419.898 283.809
L444.236 283.81
L446.68 283.809
L455.807 283.818
L459.447 283.824
L465.542 283.837
L480.743 283.815
L485.621 283.865
L486.23 284.224
L487.446 284.206
L488.045 283.253
L488.653 282.854
L493.521 282.878
L496.563 282.863
L499.616 282.857
L506.907 282.733
L507.515 283.965
L509.959 284.015
L510.568 283.948
L511.176 284.062
L511.785 284.004
L512.393 284.06
L513.6 283.932
L514.219 283.521
L514.827 284.072
L526.388 222.759
L533.081 185.343
L536.721 164.313
L537.34 161.79
L537.969 161.118
L539.155 160.792
L540.372 160.841
L540.991 161.257
L541.589 161.014
L542.197 161.436
L542.806 161.169
L543.425 161.096
L545.24 160.594
L545.848 160.871
L548.282 161.236
L549.499 171.54
L551.334 185.811
L552.541 193.031
L554.377 205.892
L558.027 232.237
L561.678 257.446
L564.731 276.861
L565.927 282.683
L566.536 284.526
L567.154 284.495
L568.361 283.759
L568.97 283.526
L569.588 283.504
L570.197 283.652
L575.054 283.652
L578.715 283.669
L582.974 283.634
L585.408 283.664
L589.049 283.626
L590.874 283.652
L603.043 283.64
L607.921 283.659
L610.345 283.63
L613.995 283.675
L615.831 283.65
L623.731 283.648
L638.952 283.6
L639.561 284.014
L664.497 284.021
L670.582 284.025
L678.502 284.039
L679.1 283.921
L682.143 283.869
L690.661 283.872
L692.496 283.856
L693.145 283.959
L697.973 284.03
L723.528 284.051
L729.014 284.043
L734.47 284.052
L736.924 284.046
L762.459 284.056
L797.749 284.093
L798.368 284.308
L803.225 284.339
L806.886 284.306
L807.495 284.142
L808.093 284.329
L819.664 284.349
L827.564 284.35
L830.626 284.347
L831.225 283.683
L831.823 282.725
L833.658 282.69
L844.002 282.706
L844.611 283.487
L845.219 283.895
L846.426 283.849
L849.468 283.943
L851.902 283.911
L854.336 283.935
L887.811 283.93
L892.669 283.926
L921.276 283.922
L942.572 283.841
L943.779 283.43
L944.996 282.748
L945.614 282.767
L946.213 283.322
L946.821 283.574
L954.731 283.588
L955.34 283.448
L957.185 283.672
L966.302 283.66
L969.953 283.669
L974.81 283.711
L975.429 284.186
L976.037 284.318
L977.244 283.67
L978.461 284.292
L980.296 284.904
L981.503 285.037
L983.947 285.436
L984.556 285.337
L985.164 285.01
L985.773 284.51
L986.381 284.206
L986.99 283.776
L987.598 283.577
L988.815 283.531
L992.466 283.218
L994.899 283.125
L996.127 283.085
L1000.98 283.441
L1001.59 283.507
L1003.43 283.388
L1005.24 283.331
L1005.85 282.998
L1006.45 283.013
L1007.07 282.876
L1008.29 282.908
L1008.89 283.064
L1010.1 283.197
L1011.32 283.006
L1012.55 283.544
L1013.16 283.089
L1014.97 283.094
L1016.8 282.876
L1018.01 282.985
L1018.63 283.165
L1022.29 283.176
L1023.49 282.75
L1024.1 283.013
L1026.53 282.962
L1028.36 282.973
L1028.97 283.285
L1041.75 283.29
L1042.36 283.091
L1044.17 283.043
L1044.79 283.033
L1045.4 282.775
L1046.01 282.882
L1046.61 282.845
L1047.23 283.512
L1047.84 283.801
L1049.66 283.743
L1050.26 283.246
L1052.08 283.545
L1052.69 283.29
L1053.31 283.356
L1053.92 283.63
L1054.52 282.411
L1055.14 280.711
L1059.99 255.364
L1061.21 249.366
L1063.64 238.381
L1067.31 219.354
L1070.35 202.272
L1073.38 182.826
L1074.62 167.115
L1075.81 174.763
L1076.42 180.168
L1077.04 183.036
L1078.25 182.409
L1078.86 182.806
L1079.47 181.222
L1080.69 172.75
L1085.58 144.825
L1090.42 115.948
L1094.08 94.5129
L1097.12 76.8295
L1097.72 74.3006
L1098.34 74.7258
L1098.95 72.9588
L1100.16 66.6497
L1101.38 64.4112
L1106.25 64.4834
L1106.46 64.4445
L1106.46 64.4445" style="fill:none;stroke:#0000ff;stroke-linecap:square;"/>
   </g>
   <g id="matplotlib.axis_1">
    <g id="xtick_1">
     <g id="line2d_2">
      <defs>
       <path d="
M0 0
L0 -4" id="m93b0483c22" style="stroke:#000000;stroke-width:0.5;"/>
      </defs>
      <g>
       <use style="stroke:#000000;stroke-width:0.5;" x="154.002034391" xlink:href="#m93b0483c22" y="296.263636364"/>
      </g>
     </g>
     <g id="line2d_3">
      <defs>
       <path d="
M0 0
L0 4" id="m741efc42ff" style="stroke:#000000;stroke-width:0.5;"/>
      </defs>
      <g>
       <use style="stroke:#000000;stroke-width:0.5;" x="154.002034391" xlink:href="#m741efc42ff" y="63.9"/>
      </g>
     </g>
     <g id="text_1">
      <!-- 15:00:00 -->
      <defs>
       <path d="
M12.4062 8.29688
L28.5156 8.29688
L28.5156 63.9219
L10.9844 60.4062
L10.9844 69.3906
L28.4219 72.9062
L38.2812 72.9062
L38.2812 8.29688
L54.3906 8.29688
L54.3906 0
L12.4062 0
z
" id="DejaVuSans-31"/>
       <path d="
M11.7188 12.4062
L22.0156 12.4062
L22.0156 0
L11.7188 0
z

M11.7188 51.7031
L22.0156 51.7031
L22.0156 39.3125
L11.7188 39.3125
z
" id="DejaVuSans-3a"/>
       <path d="
M10.7969 72.9062
L49.5156 72.9062
L49.5156 64.5938
L19.8281 64.5938
L19.8281 46.7344
Q21.9688 47.4688 24.1094 47.8281
Q26.2656 48.1875 28.4219 48.1875
Q40.625 48.1875 47.75 41.5
Q54.8906 34.8125 54.8906 23.3906
Q54.8906 11.625 47.5625 5.09375
Q40.2344 -1.42188 26.9062 -1.42188
Q22.3125 -1.42188 17.5469 -0.640625
Q12.7969 0.140625 7.71875 1.70312
L7.71875 11.625
Q12.1094 9.23438 16.7969 8.0625
Q21.4844 6.89062 26.7031 6.89062
Q35.1562 6.89062 40.0781 11.3281
Q45.0156 15.7656 45.0156 23.3906
Q45.0156 31 40.0781 35.4375
Q35.1562 39.8906 26.7031 39.8906
Q22.75 39.8906 18.8125 39.0156
Q14.8906 38.1406 10.7969 36.2812
z
" id="DejaVuSans-35"/>
       <path d="
M31.7812 66.4062
Q24.1719 66.4062 20.3281 58.9062
Q16.5 51.4219 16.5 36.375
Q16.5 21.3906 20.3281 13.8906
Q24.1719 6.39062 31.7812 6.39062
Q39.4531 6.39062 43.2812 13.8906
Q47.125 21.3906 47.125 36.375
Q47.125 51.4219 43.2812 58.9062
Q39.4531 66.4062 31.7812 66.4062
M31.7812 74.2188
Q44.0469 74.2188 50.5156 64.5156
Q56.9844 54.8281 56.9844 36.375
Q56.9844 17.9688 50.5156 8.26562
Q44.0469 -1.42188 31.7812 -1.42188
Q19.5312 -1.42188 13.0625 8.26562
Q6.59375 17.9688 6.59375 36.375
Q6.59375 54.8281 13.0625 64.5156
Q19.5312 74.2188 31.7812 74.2188" id="DejaVuSans-30"/>
      </defs>
      <g transform="translate(128.112034426 309.381761364)scale(0.12 -0.12)">
       <use xlink:href="#DejaVuSans-31"/>
       <use x="63.623046875" xlink:href="#DejaVuSans-35"/>
       <use x="127.24609375" xlink:href="#DejaVuSans-3a"/>
       <use x="160.9375" xlink:href="#DejaVuSans-30"/>
       <use x="224.560546875" xlink:href="#DejaVuSans-30"/>
       <use x="288.18359375" xlink:href="#DejaVuSans-3a"/>
       <use x="321.875" xlink:href="#DejaVuSans-30"/>
       <use x="385.498046875" xlink:href="#DejaVuSans-30"/>
      </g>
     </g>
    </g>
    <g id="xtick_2">
     <g id="line2d_4">
      <g>
       <use style="stroke:#000000;stroke-width:0.5;" x="263.524255268" xlink:href="#m93b0483c22" y="296.263636364"/>
      </g>
     </g>
     <g id="line2d_5">
      <g>
       <use style="stroke:#000000;stroke-width:0.5;" x="263.524255268" xlink:href="#m741efc42ff" y="63.9"/>
      </g>
     </g>
     <g id="text_2">
      <!-- 18:00:00 -->
      <defs>
       <path d="
M31.7812 34.625
Q24.75 34.625 20.7188 30.8594
Q16.7031 27.0938 16.7031 20.5156
Q16.7031 13.9219 20.7188 10.1562
Q24.75 6.39062 31.7812 6.39062
Q38.8125 6.39062 42.8594 10.1719
Q46.9219 13.9688 46.9219 20.5156
Q46.9219 27.0938 42.8906 30.8594
Q38.875 34.625 31.7812 34.625
M21.9219 38.8125
Q15.5781 40.375 12.0312 44.7188
Q8.5 49.0781 8.5 55.3281
Q8.5 64.0625 14.7188 69.1406
Q20.9531 74.2188 31.7812 74.2188
Q42.6719 74.2188 48.875 69.1406
Q55.0781 64.0625 55.0781 55.3281
Q55.0781 49.0781 51.5312 44.7188
Q48 40.375 41.7031 38.8125
Q48.8281 37.1562 52.7969 32.3125
Q56.7812 27.4844 56.7812 20.5156
Q56.7812 9.90625 50.3125 4.23438
Q43.8438 -1.42188 31.7812 -1.42188
Q19.7344 -1.42188 13.25 4.23438
Q6.78125 9.90625 6.78125 20.5156
Q6.78125 27.4844 10.7812 32.3125
Q14.7969 37.1562 21.9219 38.8125
M18.3125 54.3906
Q18.3125 48.7344 21.8438 45.5625
Q25.3906 42.3906 31.7812 42.3906
Q38.1406 42.3906 41.7188 45.5625
Q45.3125 48.7344 45.3125 54.3906
Q45.3125 60.0625 41.7188 63.2344
Q38.1406 66.4062 31.7812 66.4062
Q25.3906 66.4062 21.8438 63.2344
Q18.3125 60.0625 18.3125 54.3906" id="DejaVuSans-38"/>
      </defs>
      <g transform="translate(237.634255276 309.381761364)scale(0.12 -0.12)">
       <use xlink:href="#DejaVuSans-31"/>
       <use x="63.623046875" xlink:href="#DejaVuSans-38"/>
       <use x="127.24609375" xlink:href="#DejaVuSans-3a"/>
       <use x="160.9375" xlink:href="#DejaVuSans-30"/>
       <use x="224.560546875" xlink:href="#DejaVuSans-30"/>
       <use x="288.18359375" xlink:href="#DejaVuSans-3a"/>
       <use x="321.875" xlink:href="#DejaVuSans-30"/>
       <use x="385.498046875" xlink:href="#DejaVuSans-30"/>
      </g>
     </g>
    </g>
    <g id="xtick_3">
     <g id="line2d_6">
      <g>
       <use style="stroke:#000000;stroke-width:0.5;" x="373.046476145" xlink:href="#m93b0483c22" y="296.263636364"/>
      </g>
     </g>
     <g id="line2d_7">
      <g>
       <use style="stroke:#000000;stroke-width:0.5;" x="373.046476145" xlink:href="#m741efc42ff" y="63.9"/>
      </g>
     </g>
     <g id="text_3">
      <!-- 21:00:00 -->
      <defs>
       <path d="
M19.1875 8.29688
L53.6094 8.29688
L53.6094 0
L7.32812 0
L7.32812 8.29688
Q12.9375 14.1094 22.625 23.8906
Q32.3281 33.6875 34.8125 36.5312
Q39.5469 41.8438 41.4219 45.5312
Q43.3125 49.2188 43.3125 52.7812
Q43.3125 58.5938 39.2344 62.25
Q35.1562 65.9219 28.6094 65.9219
Q23.9688 65.9219 18.8125 64.3125
Q13.6719 62.7031 7.8125 59.4219
L7.8125 69.3906
Q13.7656 71.7812 18.9375 73
Q24.125 74.2188 28.4219 74.2188
Q39.75 74.2188 46.4844 68.5469
Q53.2188 62.8906 53.2188 53.4219
Q53.2188 48.9219 51.5312 44.8906
Q49.8594 40.875 45.4062 35.4062
Q44.1875 33.9844 37.6406 27.2188
Q31.1094 20.4531 19.1875 8.29688" id="DejaVuSans-32"/>
      </defs>
      <g transform="translate(346.937101126 309.381761364)scale(0.12 -0.12)">
       <use xlink:href="#DejaVuSans-32"/>
       <use x="63.623046875" xlink:href="#DejaVuSans-31"/>
       <use x="127.24609375" xlink:href="#DejaVuSans-3a"/>
       <use x="160.9375" xlink:href="#DejaVuSans-30"/>
       <use x="224.560546875" xlink:href="#DejaVuSans-30"/>
       <use x="288.18359375" xlink:href="#DejaVuSans-3a"/>
       <use x="321.875" xlink:href="#DejaVuSans-30"/>
       <use x="385.498046875" xlink:href="#DejaVuSans-30"/>
      </g>
     </g>
    </g>
    <g id="xtick_4">
     <g id="line2d_8">
      <g>
       <use style="stroke:#000000;stroke-width:0.5;" x="482.568697022" xlink:href="#m93b0483c22" y="296.263636364"/>
      </g>
     </g>
     <g id="line2d_9">
      <g>
       <use style="stroke:#000000;stroke-width:0.5;" x="482.568697022" xlink:href="#m741efc42ff" y="63.9"/>
      </g>
     </g>
     <g id="text_4">
      <!-- 00:00:00 -->
      <g transform="translate(456.415259476 309.381761364)scale(0.12 -0.12)">
       <use xlink:href="#DejaVuSans-30"/>
       <use x="63.623046875" xlink:href="#DejaVuSans-30"/>
       <use x="127.24609375" xlink:href="#DejaVuSans-3a"/>
       <use x="160.9375" xlink:href="#DejaVuSans-30"/>
       <use x="224.560546875" xlink:href="#DejaVuSans-30"/>
       <use x="288.18359375" xlink:href="#DejaVuSans-3a"/>
       <use x="321.875" xlink:href="#DejaVuSans-30"/>
       <use x="385.498046875" xlink:href="#DejaVuSans-30"/>
      </g>
     </g>
    </g>
    <g id="xtick_5">
     <g id="line2d_10">
      <g>
       <use style="stroke:#000000;stroke-width:0.5;" x="592.090917899" xlink:href="#m93b0483c22" y="296.263636364"/>
      </g>
     </g>
     <g id="line2d_11">
      <g>
       <use style="stroke:#000000;stroke-width:0.5;" x="592.090917899" xlink:href="#m741efc42ff" y="63.9"/>
      </g>
     </g>
     <g id="text_5">
      <!-- 03:00:00 -->
      <defs>
       <path d="
M40.5781 39.3125
Q47.6562 37.7969 51.625 33
Q55.6094 28.2188 55.6094 21.1875
Q55.6094 10.4062 48.1875 4.48438
Q40.7656 -1.42188 27.0938 -1.42188
Q22.5156 -1.42188 17.6562 -0.515625
Q12.7969 0.390625 7.625 2.20312
L7.625 11.7188
Q11.7188 9.32812 16.5938 8.10938
Q21.4844 6.89062 26.8125 6.89062
Q36.0781 6.89062 40.9375 10.5469
Q45.7969 14.2031 45.7969 21.1875
Q45.7969 27.6406 41.2812 31.2656
Q36.7656 34.9062 28.7188 34.9062
L20.2188 34.9062
L20.2188 43.0156
L29.1094 43.0156
Q36.375 43.0156 40.2344 45.9219
Q44.0938 48.8281 44.0938 54.2969
Q44.0938 59.9062 40.1094 62.9062
Q36.1406 65.9219 28.7188 65.9219
Q24.6562 65.9219 20.0156 65.0312
Q15.375 64.1562 9.8125 62.3125
L9.8125 71.0938
Q15.4375 72.6562 20.3438 73.4375
Q25.25 74.2188 29.5938 74.2188
Q40.8281 74.2188 47.3594 69.1094
Q53.9062 64.0156 53.9062 55.3281
Q53.9062 49.2656 50.4375 45.0938
Q46.9688 40.9219 40.5781 39.3125" id="DejaVuSans-33"/>
      </defs>
      <g transform="translate(565.937480445 309.381761364)scale(0.12 -0.12)">
       <use xlink:href="#DejaVuSans-30"/>
       <use x="63.623046875" xlink:href="#DejaVuSans-33"/>
       <use x="127.24609375" xlink:href="#DejaVuSans-3a"/>
       <use x="160.9375" xlink:href="#DejaVuSans-30"/>
       <use x="224.560546875" xlink:href="#DejaVuSans-30"/>
       <use x="288.18359375" xlink:href="#DejaVuSans-3a"/>
       <use x="321.875" xlink:href="#DejaVuSans-30"/>
       <use x="385.498046875" xlink:href="#DejaVuSans-30"/>
      </g>
     </g>
    </g>
    <g id="xtick_6">
     <g id="line2d_12">
      <g>
       <use style="stroke:#000000;stroke-width:0.5;" x="701.613138776" xlink:href="#m93b0483c22" y="296.263636364"/>
      </g>
     </g>
     <g id="line2d_13">
      <g>
       <use style="stroke:#000000;stroke-width:0.5;" x="701.613138776" xlink:href="#m741efc42ff" y="63.9"/>
      </g>
     </g>
     <g id="text_6">
      <!-- 06:00:00 -->
      <defs>
       <path d="
M33.0156 40.375
Q26.375 40.375 22.4844 35.8281
Q18.6094 31.2969 18.6094 23.3906
Q18.6094 15.5312 22.4844 10.9531
Q26.375 6.39062 33.0156 6.39062
Q39.6562 6.39062 43.5312 10.9531
Q47.4062 15.5312 47.4062 23.3906
Q47.4062 31.2969 43.5312 35.8281
Q39.6562 40.375 33.0156 40.375
M52.5938 71.2969
L52.5938 62.3125
Q48.875 64.0625 45.0938 64.9844
Q41.3125 65.9219 37.5938 65.9219
Q27.8281 65.9219 22.6719 59.3281
Q17.5312 52.7344 16.7969 39.4062
Q19.6719 43.6562 24.0156 45.9219
Q28.375 48.1875 33.5938 48.1875
Q44.5781 48.1875 50.9531 41.5156
Q57.3281 34.8594 57.3281 23.3906
Q57.3281 12.1562 50.6875 5.35938
Q44.0469 -1.42188 33.0156 -1.42188
Q20.3594 -1.42188 13.6719 8.26562
Q6.98438 17.9688 6.98438 36.375
Q6.98438 53.6562 15.1875 63.9375
Q23.3906 74.2188 37.2031 74.2188
Q40.9219 74.2188 44.7031 73.4844
Q48.4844 72.75 52.5938 71.2969" id="DejaVuSans-36"/>
      </defs>
      <g transform="translate(675.459701295 309.381761364)scale(0.12 -0.12)">
       <use xlink:href="#DejaVuSans-30"/>
       <use x="63.623046875" xlink:href="#DejaVuSans-36"/>
       <use x="127.24609375" xlink:href="#DejaVuSans-3a"/>
       <use x="160.9375" xlink:href="#DejaVuSans-30"/>
       <use x="224.560546875" xlink:href="#DejaVuSans-30"/>
       <use x="288.18359375" xlink:href="#DejaVuSans-3a"/>
       <use x="321.875" xlink:href="#DejaVuSans-30"/>
       <use x="385.498046875" xlink:href="#DejaVuSans-30"/>
      </g>
     </g>
    </g>
    <g id="xtick_7">
     <g id="line2d_14">
      <g>
       <use style="stroke:#000000;stroke-width:0.5;" x="811.135359653" xlink:href="#m93b0483c22" y="296.263636364"/>
      </g>
     </g>
     <g id="line2d_15">
      <g>
       <use style="stroke:#000000;stroke-width:0.5;" x="811.135359653" xlink:href="#m741efc42ff" y="63.9"/>
      </g>
     </g>
     <g id="text_7">
      <!-- 09:00:00 -->
      <defs>
       <path d="
M10.9844 1.51562
L10.9844 10.5
Q14.7031 8.73438 18.5 7.8125
Q22.3125 6.89062 25.9844 6.89062
Q35.75 6.89062 40.8906 13.4531
Q46.0469 20.0156 46.7812 33.4062
Q43.9531 29.2031 39.5938 26.9531
Q35.25 24.7031 29.9844 24.7031
Q19.0469 24.7031 12.6719 31.3125
Q6.29688 37.9375 6.29688 49.4219
Q6.29688 60.6406 12.9375 67.4219
Q19.5781 74.2188 30.6094 74.2188
Q43.2656 74.2188 49.9219 64.5156
Q56.5938 54.8281 56.5938 36.375
Q56.5938 19.1406 48.4062 8.85938
Q40.2344 -1.42188 26.4219 -1.42188
Q22.7031 -1.42188 18.8906 -0.6875
Q15.0938 0.046875 10.9844 1.51562
M30.6094 32.4219
Q37.25 32.4219 41.125 36.9531
Q45.0156 41.5 45.0156 49.4219
Q45.0156 57.2812 41.125 61.8438
Q37.25 66.4062 30.6094 66.4062
Q23.9688 66.4062 20.0938 61.8438
Q16.2188 57.2812 16.2188 49.4219
Q16.2188 41.5 20.0938 36.9531
Q23.9688 32.4219 30.6094 32.4219" id="DejaVuSans-39"/>
      </defs>
      <g transform="translate(784.981922145 309.381761364)scale(0.12 -0.12)">
       <use xlink:href="#DejaVuSans-30"/>
       <use x="63.623046875" xlink:href="#DejaVuSans-39"/>
       <use x="127.24609375" xlink:href="#DejaVuSans-3a"/>
       <use x="160.9375" xlink:href="#DejaVuSans-30"/>
       <use x="224.560546875" xlink:href="#DejaVuSans-30"/>
       <use x="288.18359375" xlink:href="#DejaVuSans-3a"/>
       <use x="321.875" xlink:href="#DejaVuSans-30"/>
       <use x="385.498046875" xlink:href="#DejaVuSans-30"/>
      </g>
     </g>
    </g>
    <g id="xtick_8">
     <g id="line2d_16">
      <g>
       <use style="stroke:#000000;stroke-width:0.5;" x="920.65758053" xlink:href="#m93b0483c22" y="296.263636364"/>
      </g>
     </g>
     <g id="line2d_17">
      <g>
       <use style="stroke:#000000;stroke-width:0.5;" x="920.65758053" xlink:href="#m741efc42ff" y="63.9"/>
      </g>
     </g>
     <g id="text_8">
      <!-- 12:00:00 -->
      <g transform="translate(894.767580495 309.381761364)scale(0.12 -0.12)">
       <use xlink:href="#DejaVuSans-31"/>
       <use x="63.623046875" xlink:href="#DejaVuSans-32"/>
       <use x="127.24609375" xlink:href="#DejaVuSans-3a"/>
       <use x="160.9375" xlink:href="#DejaVuSans-30"/>
       <use x="224.560546875" xlink:href="#DejaVuSans-30"/>
       <use x="288.18359375" xlink:href="#DejaVuSans-3a"/>
       <use x="321.875" xlink:href="#DejaVuSans-30"/>
       <use x="385.498046875" xlink:href="#DejaVuSans-30"/>
      </g>
     </g>
    </g>
    <g id="xtick_9">
     <g id="line2d_18">
      <g>
       <use style="stroke:#000000;stroke-width:0.5;" x="1030.17980141" xlink:href="#m93b0483c22" y="296.263636364"/>
      </g>
     </g>
     <g id="line2d_19">
      <g>
       <use style="stroke:#000000;stroke-width:0.5;" x="1030.17980141" xlink:href="#m741efc42ff" y="63.9"/>
      </g>
     </g>
     <g id="text_9">
      <!-- 15:00:00 -->
      <g transform="translate(1004.28980146 309.381761364)scale(0.12 -0.12)">
       <use xlink:href="#DejaVuSans-31"/>
       <use x="63.623046875" xlink:href="#DejaVuSans-35"/>
       <use x="127.24609375" xlink:href="#DejaVuSans-3a"/>
       <use x="160.9375" xlink:href="#DejaVuSans-30"/>
       <use x="224.560546875" xlink:href="#DejaVuSans-30"/>
       <use x="288.18359375" xlink:href="#DejaVuSans-3a"/>
       <use x="321.875" xlink:href="#DejaVuSans-30"/>
       <use x="385.498046875" xlink:href="#DejaVuSans-30"/>
      </g>
     </g>
    </g>
    <g id="text_10">
     <!-- time (UTC) -->
     <defs>
      <path d="
M8.01562 75.875
L15.8281 75.875
Q23.1406 64.3594 26.7812 53.3125
Q30.4219 42.2812 30.4219 31.3906
Q30.4219 20.4531 26.7812 9.375
Q23.1406 -1.70312 15.8281 -13.1875
L8.01562 -13.1875
Q14.5 -2 17.7031 9.0625
Q20.9062 20.125 20.9062 31.3906
Q20.9062 42.6719 17.7031 53.6562
Q14.5 64.6562 8.01562 75.875" id="DejaVuSans-29"/>
      <path d="
M52 44.1875
Q55.375 50.25 60.0625 53.125
Q64.75 56 71.0938 56
Q79.6406 56 84.2812 50.0156
Q88.9219 44.0469 88.9219 33.0156
L88.9219 0
L79.8906 0
L79.8906 32.7188
Q79.8906 40.5781 77.0938 44.375
Q74.3125 48.1875 68.6094 48.1875
Q61.625 48.1875 57.5625 43.5469
Q53.5156 38.9219 53.5156 30.9062
L53.5156 0
L44.4844 0
L44.4844 32.7188
Q44.4844 40.625 41.7031 44.4062
Q38.9219 48.1875 33.1094 48.1875
Q26.2188 48.1875 22.1562 43.5312
Q18.1094 38.875 18.1094 30.9062
L18.1094 0
L9.07812 0
L9.07812 54.6875
L18.1094 54.6875
L18.1094 46.1875
Q21.1875 51.2188 25.4844 53.6094
Q29.7812 56 35.6875 56
Q41.6562 56 45.8281 52.9688
Q50 49.9531 52 44.1875" id="DejaVuSans-6d"/>
      <path d="
M64.4062 67.2812
L64.4062 56.8906
Q59.4219 61.5312 53.7812 63.8125
Q48.1406 66.1094 41.7969 66.1094
Q29.2969 66.1094 22.6562 58.4688
Q16.0156 50.8281 16.0156 36.375
Q16.0156 21.9688 22.6562 14.3281
Q29.2969 6.6875 41.7969 6.6875
Q48.1406 6.6875 53.7812 8.98438
Q59.4219 11.2812 64.4062 15.9219
L64.4062 5.60938
Q59.2344 2.09375 53.4375 0.328125
Q47.6562 -1.42188 41.2188 -1.42188
Q24.6562 -1.42188 15.125 8.70312
Q5.60938 18.8438 5.60938 36.375
Q5.60938 53.9531 15.125 64.0781
Q24.6562 74.2188 41.2188 74.2188
Q47.75 74.2188 53.5312 72.4844
Q59.3281 70.75 64.4062 67.2812" id="DejaVuSans-43"/>
      <path id="DejaVuSans-20"/>
      <path d="
M9.42188 54.6875
L18.4062 54.6875
L18.4062 0
L9.42188 0
z

M9.42188 75.9844
L18.4062 75.9844
L18.4062 64.5938
L9.42188 64.5938
z
" id="DejaVuSans-69"/>
      <path d="
M18.3125 70.2188
L18.3125 54.6875
L36.8125 54.6875
L36.8125 47.7031
L18.3125 47.7031
L18.3125 18.0156
Q18.3125 11.3281 20.1406 9.42188
Q21.9688 7.51562 27.5938 7.51562
L36.8125 7.51562
L36.8125 0
L27.5938 0
Q17.1875 0 13.2344 3.875
Q9.28125 7.76562 9.28125 18.0156
L9.28125 47.7031
L2.6875 47.7031
L2.6875 54.6875
L9.28125 54.6875
L9.28125 70.2188
z
" id="DejaVuSans-74"/>
      <path d="
M31 75.875
Q24.4688 64.6562 21.2812 53.6562
Q18.1094 42.6719 18.1094 31.3906
Q18.1094 20.125 21.3125 9.0625
Q24.5156 -2 31 -13.1875
L23.1875 -13.1875
Q15.875 -1.70312 12.2344 9.375
Q8.59375 20.4531 8.59375 31.3906
Q8.59375 42.2812 12.2031 53.3125
Q15.8281 64.3594 23.1875 75.875
z
" id="DejaVuSans-28"/>
      <path d="
M56.2031 29.5938
L56.2031 25.2031
L14.8906 25.2031
Q15.4844 15.9219 20.4844 11.0625
Q25.4844 6.20312 34.4219 6.20312
Q39.5938 6.20312 44.4531 7.46875
Q49.3125 8.73438 54.1094 11.2812
L54.1094 2.78125
Q49.2656 0.734375 44.1875 -0.34375
Q39.1094 -1.42188 33.8906 -1.42188
Q20.7969 -1.42188 13.1562 6.1875
Q5.51562 13.8125 5.51562 26.8125
Q5.51562 40.2344 12.7656 48.1094
Q20.0156 56 32.3281 56
Q43.3594 56 49.7812 48.8906
Q56.2031 41.7969 56.2031 29.5938
M47.2188 32.2344
Q47.125 39.5938 43.0938 43.9844
Q39.0625 48.3906 32.4219 48.3906
Q24.9062 48.3906 20.3906 44.1406
Q15.875 39.8906 15.1875 32.1719
z
" id="DejaVuSans-65"/>
      <path d="
M8.6875 72.9062
L18.6094 72.9062
L18.6094 28.6094
Q18.6094 16.8906 22.8438 11.7344
Q27.0938 6.59375 36.625 6.59375
Q46.0938 6.59375 50.3438 11.7344
Q54.5938 16.8906 54.5938 28.6094
L54.5938 72.9062
L64.5 72.9062
L64.5 27.3906
Q64.5 13.1406 57.4375 5.85938
Q50.3906 -1.42188 36.625 -1.42188
Q22.7969 -1.42188 15.7344 5.85938
Q8.6875 13.1406 8.6875 27.3906
z
" id="DejaVuSans-55"/>
      <path d="
M-0.296875 72.9062
L61.375 72.9062
L61.375 64.5938
L35.5 64.5938
L35.5 0
L25.5938 0
L25.5938 64.5938
L-0.296875 64.5938
z
" id="DejaVuSans-54"/>
     </defs>
     <g transform="translate(598.5459375 325.995511364)scale(0.12 -0.12)">
      <use xlink:href="#DejaVuSans-74"/>
      <use x="39.208984375" xlink:href="#DejaVuSans-69"/>
      <use x="66.9921875" xlink:href="#DejaVuSans-6d"/>
      <use x="164.404296875" xlink:href="#DejaVuSans-65"/>
      <use x="225.927734375" xlink:href="#DejaVuSans-20"/>
      <use x="257.71484375" xlink:href="#DejaVuSans-28"/>
      <use x="296.728515625" xlink:href="#DejaVuSans-55"/>
      <use x="369.921875" xlink:href="#DejaVuSans-54"/>
      <use x="425.130859375" xlink:href="#DejaVuSans-43"/>
      <use x="494.955078125" xlink:href="#DejaVuSans-29"/>
     </g>
    </g>
   </g>
   <g id="matplotlib.axis_2">
    <g id="ytick_1">
     <g id="line2d_20">
      <defs>
       <path d="
M0 0
L4 0" id="m728421d6d4" style="stroke:#000000;stroke-width:0.5;"/>
      </defs>
      <g>
       <use style="stroke:#000000;stroke-width:0.5;" x="153.675" xlink:href="#m728421d6d4" y="264.766292798"/>
      </g>
     </g>
     <g id="line2d_21">
      <defs>
       <path d="
M0 0
L-4 0" id="mcb0005524f" style="stroke:#000000;stroke-width:0.5;"/>
      </defs>
      <g>
       <use style="stroke:#000000;stroke-width:0.5;" x="1106.46" xlink:href="#mcb0005524f" y="264.766292798"/>
      </g>
     </g>
     <g id="text_11">
      <!-- −1200 -->
      <defs>
       <path d="
M10.5938 35.5
L73.1875 35.5
L73.1875 27.2031
L10.5938 27.2031
z
" id="DejaVuSans-2212"/>
      </defs>
      <g transform="translate(111.1475 268.077542798)scale(0.12 -0.12)">
       <use xlink:href="#DejaVuSans-2212"/>
       <use x="83.7890625" xlink:href="#DejaVuSans-31"/>
       <use x="147.412109375" xlink:href="#DejaVuSans-32"/>
       <use x="211.03515625" xlink:href="#DejaVuSans-30"/>
       <use x="274.658203125" xlink:href="#DejaVuSans-30"/>
      </g>
     </g>
    </g>
    <g id="ytick_2">
     <g id="line2d_22">
      <g>
       <use style="stroke:#000000;stroke-width:0.5;" x="153.675" xlink:href="#m728421d6d4" y="231.288577332"/>
      </g>
     </g>
     <g id="line2d_23">
      <g>
       <use style="stroke:#000000;stroke-width:0.5;" x="1106.46" xlink:href="#mcb0005524f" y="231.288577332"/>
      </g>
     </g>
     <g id="text_12">
      <!-- −1000 -->
      <g transform="translate(111.1475 234.599827332)scale(0.12 -0.12)">
       <use xlink:href="#DejaVuSans-2212"/>
       <use x="83.7890625" xlink:href="#DejaVuSans-31"/>
       <use x="147.412109375" xlink:href="#DejaVuSans-30"/>
       <use x="211.03515625" xlink:href="#DejaVuSans-30"/>
       <use x="274.658203125" xlink:href="#DejaVuSans-30"/>
      </g>
     </g>
    </g>
    <g id="ytick_3">
     <g id="line2d_24">
      <g>
       <use style="stroke:#000000;stroke-width:0.5;" x="153.675" xlink:href="#m728421d6d4" y="197.810861865"/>
      </g>
     </g>
     <g id="line2d_25">
      <g>
       <use style="stroke:#000000;stroke-width:0.5;" x="1106.46" xlink:href="#mcb0005524f" y="197.810861865"/>
      </g>
     </g>
     <g id="text_13">
      <!-- −800 -->
      <g transform="translate(118.7825 201.122111865)scale(0.12 -0.12)">
       <use xlink:href="#DejaVuSans-2212"/>
       <use x="83.7890625" xlink:href="#DejaVuSans-38"/>
       <use x="147.412109375" xlink:href="#DejaVuSans-30"/>
       <use x="211.03515625" xlink:href="#DejaVuSans-30"/>
      </g>
     </g>
    </g>
    <g id="ytick_4">
     <g id="line2d_26">
      <g>
       <use style="stroke:#000000;stroke-width:0.5;" x="153.675" xlink:href="#m728421d6d4" y="164.333146399"/>
      </g>
     </g>
     <g id="line2d_27">
      <g>
       <use style="stroke:#000000;stroke-width:0.5;" x="1106.46" xlink:href="#mcb0005524f" y="164.333146399"/>
      </g>
     </g>
     <g id="text_14">
      <!-- −600 -->
      <g transform="translate(118.7825 167.644396399)scale(0.12 -0.12)">
       <use xlink:href="#DejaVuSans-2212"/>
       <use x="83.7890625" xlink:href="#DejaVuSans-36"/>
       <use x="147.412109375" xlink:href="#DejaVuSans-30"/>
       <use x="211.03515625" xlink:href="#DejaVuSans-30"/>
      </g>
     </g>
    </g>
    <g id="ytick_5">
     <g id="line2d_28">
      <g>
       <use style="stroke:#000000;stroke-width:0.5;" x="153.675" xlink:href="#m728421d6d4" y="130.855430933"/>
      </g>
     </g>
     <g id="line2d_29">
      <g>
       <use style="stroke:#000000;stroke-width:0.5;" x="1106.46" xlink:href="#mcb0005524f" y="130.855430933"/>
      </g>
     </g>
     <g id="text_15">
      <!-- −400 -->
      <defs>
       <path d="
M37.7969 64.3125
L12.8906 25.3906
L37.7969 25.3906
z

M35.2031 72.9062
L47.6094 72.9062
L47.6094 25.3906
L58.0156 25.3906
L58.0156 17.1875
L47.6094 17.1875
L47.6094 0
L37.7969 0
L37.7969 17.1875
L4.89062 17.1875
L4.89062 26.7031
z
" id="DejaVuSans-34"/>
      </defs>
      <g transform="translate(118.7825 134.166680933)scale(0.12 -0.12)">
       <use xlink:href="#DejaVuSans-2212"/>
       <use x="83.7890625" xlink:href="#DejaVuSans-34"/>
       <use x="147.412109375" xlink:href="#DejaVuSans-30"/>
       <use x="211.03515625" xlink:href="#DejaVuSans-30"/>
      </g>
     </g>
    </g>
    <g id="ytick_6">
     <g id="line2d_30">
      <g>
       <use style="stroke:#000000;stroke-width:0.5;" x="153.675" xlink:href="#m728421d6d4" y="97.3777154664"/>
      </g>
     </g>
     <g id="line2d_31">
      <g>
       <use style="stroke:#000000;stroke-width:0.5;" x="1106.46" xlink:href="#mcb0005524f" y="97.3777154664"/>
      </g>
     </g>
     <g id="text_16">
      <!-- −200 -->
      <g transform="translate(118.7825 100.688965466)scale(0.12 -0.12)">
       <use xlink:href="#DejaVuSans-2212"/>
       <use x="83.7890625" xlink:href="#DejaVuSans-32"/>
       <use x="147.412109375" xlink:href="#DejaVuSans-30"/>
       <use x="211.03515625" xlink:href="#DejaVuSans-30"/>
      </g>
     </g>
    </g>
    <g id="ytick_7">
     <g id="line2d_32">
      <g>
       <use style="stroke:#000000;stroke-width:0.5;" x="153.675" xlink:href="#m728421d6d4" y="63.9"/>
      </g>
     </g>
     <g id="line2d_33">
      <g>
       <use style="stroke:#000000;stroke-width:0.5;" x="1106.46" xlink:href="#mcb0005524f" y="63.9"/>
      </g>
     </g>
     <g id="text_17">
      <!-- 0 -->
      <g transform="translate(143.628125 67.21125)scale(0.12 -0.12)">
       <use xlink:href="#DejaVuSans-30"/>
      </g>
     </g>
    </g>
    <g id="text_18">
     <!-- depth (meters) -->
     <defs>
      <path d="
M44.2812 53.0781
L44.2812 44.5781
Q40.4844 46.5312 36.375 47.5
Q32.2812 48.4844 27.875 48.4844
Q21.1875 48.4844 17.8438 46.4375
Q14.5 44.3906 14.5 40.2812
Q14.5 37.1562 16.8906 35.375
Q19.2812 33.5938 26.5156 31.9844
L29.5938 31.2969
Q39.1562 29.25 43.1875 25.5156
Q47.2188 21.7812 47.2188 15.0938
Q47.2188 7.46875 41.1875 3.01562
Q35.1562 -1.42188 24.6094 -1.42188
Q20.2188 -1.42188 15.4531 -0.5625
Q10.6875 0.296875 5.42188 2
L5.42188 11.2812
Q10.4062 8.6875 15.2344 7.39062
Q20.0625 6.10938 24.8125 6.10938
Q31.1562 6.10938 34.5625 8.28125
Q37.9844 10.4531 37.9844 14.4062
Q37.9844 18.0625 35.5156 20.0156
Q33.0625 21.9688 24.7031 23.7812
L21.5781 24.5156
Q13.2344 26.2656 9.51562 29.9062
Q5.8125 33.5469 5.8125 39.8906
Q5.8125 47.6094 11.2812 51.7969
Q16.75 56 26.8125 56
Q31.7812 56 36.1719 55.2656
Q40.5781 54.5469 44.2812 53.0781" id="DejaVuSans-73"/>
      <path d="
M45.4062 46.3906
L45.4062 75.9844
L54.3906 75.9844
L54.3906 0
L45.4062 0
L45.4062 8.20312
Q42.5781 3.32812 38.25 0.953125
Q33.9375 -1.42188 27.875 -1.42188
Q17.9688 -1.42188 11.7344 6.48438
Q5.51562 14.4062 5.51562 27.2969
Q5.51562 40.1875 11.7344 48.0938
Q17.9688 56 27.875 56
Q33.9375 56 38.25 53.625
Q42.5781 51.2656 45.4062 46.3906
M14.7969 27.2969
Q14.7969 17.3906 18.875 11.75
Q22.9531 6.10938 30.0781 6.10938
Q37.2031 6.10938 41.2969 11.75
Q45.4062 17.3906 45.4062 27.2969
Q45.4062 37.2031 41.2969 42.8438
Q37.2031 48.4844 30.0781 48.4844
Q22.9531 48.4844 18.875 42.8438
Q14.7969 37.2031 14.7969 27.2969" id="DejaVuSans-64"/>
      <path d="
M18.1094 8.20312
L18.1094 -20.7969
L9.07812 -20.7969
L9.07812 54.6875
L18.1094 54.6875
L18.1094 46.3906
Q20.9531 51.2656 25.2656 53.625
Q29.5938 56 35.5938 56
Q45.5625 56 51.7812 48.0938
Q58.0156 40.1875 58.0156 27.2969
Q58.0156 14.4062 51.7812 6.48438
Q45.5625 -1.42188 35.5938 -1.42188
Q29.5938 -1.42188 25.2656 0.953125
Q20.9531 3.32812 18.1094 8.20312
M48.6875 27.2969
Q48.6875 37.2031 44.6094 42.8438
Q40.5312 48.4844 33.4062 48.4844
Q26.2656 48.4844 22.1875 42.8438
Q18.1094 37.2031 18.1094 27.2969
Q18.1094 17.3906 22.1875 11.75
Q26.2656 6.10938 33.4062 6.10938
Q40.5312 6.10938 44.6094 11.75
Q48.6875 17.3906 48.6875 27.2969" id="DejaVuSans-70"/>
      <path d="
M54.8906 33.0156
L54.8906 0
L45.9062 0
L45.9062 32.7188
Q45.9062 40.4844 42.875 44.3281
Q39.8438 48.1875 33.7969 48.1875
Q26.5156 48.1875 22.3125 43.5469
Q18.1094 38.9219 18.1094 30.9062
L18.1094 0
L9.07812 0
L9.07812 75.9844
L18.1094 75.9844
L18.1094 46.1875
Q21.3438 51.125 25.7031 53.5625
Q30.0781 56 35.7969 56
Q45.2188 56 50.0469 50.1719
Q54.8906 44.3438 54.8906 33.0156" id="DejaVuSans-68"/>
      <path d="
M41.1094 46.2969
Q39.5938 47.1719 37.8125 47.5781
Q36.0312 48 33.8906 48
Q26.2656 48 22.1875 43.0469
Q18.1094 38.0938 18.1094 28.8125
L18.1094 0
L9.07812 0
L9.07812 54.6875
L18.1094 54.6875
L18.1094 46.1875
Q20.9531 51.1719 25.4844 53.5781
Q30.0312 56 36.5312 56
Q37.4531 56 38.5781 55.875
Q39.7031 55.7656 41.0625 55.5156
z
" id="DejaVuSans-72"/>
     </defs>
     <g transform="translate(103.651875 224.792130682)rotate(-90.0)scale(0.12 -0.12)">
      <use xlink:href="#DejaVuSans-64"/>
      <use x="63.4765625" xlink:href="#DejaVuSans-65"/>
      <use x="125.0" xlink:href="#DejaVuSans-70"/>
      <use x="188.4765625" xlink:href="#DejaVuSans-74"/>
      <use x="227.685546875" xlink:href="#DejaVuSans-68"/>
      <use x="291.064453125" xlink:href="#DejaVuSans-20"/>
      <use x="322.8515625" xlink:href="#DejaVuSans-28"/>
      <use x="361.865234375" xlink:href="#DejaVuSans-6d"/>
      <use x="459.27734375" xlink:href="#DejaVuSans-65"/>
      <use x="520.80078125" xlink:href="#DejaVuSans-74"/>
      <use x="560.009765625" xlink:href="#DejaVuSans-65"/>
      <use x="621.533203125" xlink:href="#DejaVuSans-72"/>
      <use x="662.646484375" xlink:href="#DejaVuSans-73"/>
      <use x="714.74609375" xlink:href="#DejaVuSans-29"/>
     </g>
    </g>
   </g>
   <g id="patch_3">
    <path d="
M153.675 63.9
L1106.46 63.9" style="fill:none;stroke:#000000;"/>
   </g>
   <g id="patch_4">
    <path d="
M1106.46 296.264
L1106.46 63.9" style="fill:none;stroke:#000000;"/>
   </g>
   <g id="patch_5">
    <path d="
M153.675 296.264
L1106.46 296.264" style="fill:none;stroke:#000000;"/>
   </g>
   <g id="patch_6">
    <path d="
M153.675 296.264
L153.675 63.9" style="fill:none;stroke:#000000;"/>
   </g>
  </g>
  <g id="axes_2">
   <g id="patch_7">
    <path d="
M153.675 575.1
L1106.46 575.1
L1106.46 342.736
L153.675 342.736
z
" style="fill:#ffffff;"/>
   </g>
   <g id="line2d_34">
    <path clip-path="url(#p3f00df8ba8)" d="
M36.144 373.579
L239.815 370.919
L240.413 372.695
L242.228 373.24
L243.445 379.864
L244.054 409.282
L245.271 419.34
L245.879 432.017
L247.096 454.936
L248.921 477.856
L250.138 491.328
L251.355 500.646
L251.974 509.854
L252.572 513.705
L253.799 519.002
L255.006 521.051
L255.614 523.195
L256.831 528.139
L257.44 529.442
L258.667 530.844
L259.265 532.505
L259.884 534.633
L260.482 535.766
L263.534 540.015
L265.968 541.113
L267.175 541.409
L270.217 541.392
L270.836 541.567
L273.878 541.547
L275.693 541.582
L276.92 541.534
L281.18 541.472
L282.995 541.423
L286.646 541.331
L288.471 541.395
L289.079 541.713
L296.989 541.712
L297.608 541.574
L298.216 541.707
L301.857 541.654
L302.476 541.448
L303.693 541.416
L304.291 541.675
L305.518 541.645
L306.126 541.597
L306.755 541.359
L307.343 541.531
L307.952 541.555
L309.767 541.716
L324.989 541.727
L328.021 541.718
L338.993 541.74
L353.586 541.646
L356.02 541.584
L357.227 541.75
L357.845 541.626
L359.052 541.52
L360.887 541.611
L362.104 541.741
L362.713 541.533
L363.321 541.726
L366.353 541.637
L366.972 541.423
L368.189 541.503
L369.396 541.645
L370.623 541.472
L371.83 541.449
L372.448 541.583
L373.077 541.537
L373.655 541.618
L374.263 541.551
L374.882 541.621
L376.089 541.52
L387.051 541.575
L387.66 541.077
L388.876 541.57
L389.475 541.618
L390.692 541.49
L392.517 541.668
L394.353 541.57
L396.168 541.585
L397.993 541.619
L398.602 541.714
L399.21 541.62
L401.046 541.648
L404.078 541.694
L406.522 541.678
L410.781 541.597
L411.389 541.694
L411.988 541.638
L413.813 541.68
L419.299 541.619
L419.898 541.658
L421.115 541.569
L422.342 541.65
L424.775 541.695
L426.591 541.608
L427.818 541.654
L428.416 541.503
L429.035 541.688
L430.252 541.674
L431.458 541.61
L432.067 541.69
L433.892 541.616
L434.501 541.688
L440.595 541.632
L441.204 541.692
L441.802 541.515
L442.421 541.656
L449.104 541.651
L451.548 541.635
L452.764 541.674
L453.373 541.465
L453.971 541.655
L458.839 541.623
L459.447 541.666
L460.056 541.504
L460.674 541.633
L461.283 541.568
L461.891 541.668
L464.934 541.644
L465.542 541.42
L467.367 541.719
L469.791 541.71
L471.018 541.709
L471.627 541.611
L472.235 541.665
L472.844 541.568
L474.05 541.699
L477.711 541.678
L478.928 541.67
L487.446 541.658
L489.87 541.298
L490.489 540.955
L491.716 541.253
L492.324 541.061
L493.521 541.093
L494.738 540.845
L495.346 540.991
L496.563 540.97
L497.172 540.738
L498.389 541.354
L499.007 541.177
L500.224 541.197
L501.441 541.158
L502.049 541.087
L502.658 541.171
L503.256 541.036
L503.865 541.338
L505.082 541.2
L506.299 541.515
L506.907 541.351
L507.515 541.615
L509.341 541.431
L510.568 541.665
L511.785 541.647
L512.992 541.644
L513.6 541.495
L514.219 541.662
L514.827 541.625
L516.642 541.304
L519.117 541.165
L521.52 539.729
L522.118 539.03
L523.345 538.208
L524.552 537.905
L525.161 537.457
L525.779 536.418
L526.388 535.709
L527.594 534.686
L528.203 533.996
L528.822 533.547
L530.038 532.419
L530.637 531.995
L532.462 528.606
L533.081 527.915
L534.906 525.026
L535.515 523.481
L536.113 522.394
L536.721 521.779
L537.34 520.543
L537.969 520.013
L539.155 519.268
L540.372 519.422
L540.991 519.265
L541.589 519.775
L542.197 519.708
L542.806 519.795
L543.425 519.612
L544.631 519.733
L545.24 519.478
L547.075 519.43
L548.282 519.589
L548.89 519.968
L549.499 521.831
L550.118 525.058
L551.334 527.74
L552.541 529.215
L553.768 532.004
L554.377 532.527
L555.654 533.442
L556.202 534.913
L558.027 537.262
L559.843 538.236
L560.451 538.861
L561.07 540.029
L561.678 540.672
L564.731 541.343
L571.414 541.489
L572.63 541.417
L573.229 541.429
L574.466 541.655
L575.054 541.44
L575.663 541.562
L576.879 541.563
L578.107 541.448
L578.715 541.392
L579.922 541.461
L581.139 541.315
L581.747 541.556
L582.356 541.496
L583.583 541.549
L593.916 541.554
L595.133 541.342
L595.742 541.611
L597.577 541.602
L604.27 541.499
L604.879 541.113
L606.085 541.564
L607.921 541.491
L609.138 541.479
L609.746 541.552
L610.345 541.463
L612.17 541.592
L612.778 541.507
L615.831 541.504
L616.429 541.563
L620.688 541.463
L621.307 541.221
L621.915 541.467
L622.524 541.348
L623.731 541.425
L624.948 541.525
L625.566 541.383
L626.783 541.371
L627.392 541.179
L628.608 541.34
L629.217 541.104
L629.825 541.381
L632.868 541.296
L633.476 541.319
L634.085 541.545
L636.518 541.429
L637.117 541.512
L641.376 541.358
L643.201 541.425
L643.81 541.319
L646.852 541.407
L647.46 541.39
L648.079 541.504
L649.286 541.383
L650.513 541.486
L651.72 541.32
L652.328 541.583
L653.555 541.51
L654.164 541.565
L658.413 541.099
L659.021 541.559
L663.889 541.321
L664.497 541.409
L665.126 541.307
L669.365 541.464
L670.582 541.091
L671.799 541.425
L673.016 541.032
L673.624 541.426
L676.666 541.518
L677.275 540.761
L677.893 540.898
L678.502 541.403
L679.1 541.352
L680.317 541.087
L680.936 541.21
L682.143 541.221
L683.359 541.09
L685.185 541.31
L686.402 541.111
L687.01 541.218
L687.619 541.19
L688.846 541.383
L689.444 541.305
L690.063 540.959
L691.269 541.244
L692.496 541.259
L693.145 541.299
L696.745 541.382
L697.973 541.599
L701.633 541.661
L702.84 541.532
L710.132 541.513
L710.75 541.474
L712.576 541.654
L718.65 541.575
L719.269 541.39
L720.485 541.498
L721.094 541.569
L722.909 541.514
L723.528 541.695
L726.57 541.677
L727.168 541.58
L727.777 541.657
L730.221 541.571
L732.655 541.595
L735.697 541.427
L736.924 541.561
L744.814 541.519
L745.432 541.465
L746.03 541.548
L747.258 541.499
L748.474 541.602
L750.3 541.667
L751.517 541.617
L752.125 541.34
L752.734 541.599
L753.332 541.633
L753.94 541.438
L754.559 541.543
L755.776 541.498
L756.384 541.637
L757.591 541.451
L758.21 541.692
L758.818 541.624
L760.025 541.668
L760.644 541.548
L761.85 541.571
L762.459 541.37
L763.676 541.633
L765.501 541.589
L766.718 541.522
L772.813 541.534
L773.421 541.392
L774.638 541.467
L775.297 541.623
L780.114 541.656
L783.156 541.652
L783.775 541.534
L785.59 541.678
L788.014 541.646
L794.088 541.656
L794.717 541.595
L795.326 541.705
L802.668 541.715
L803.225 541.468
L805.051 541.666
L806.268 541.57
L806.886 541.655
L808.093 541.379
L809.929 541.552
L812.352 541.592
L812.961 541.327
L813.569 541.687
L815.405 541.611
L816.611 541.565
L817.839 541.663
L819.664 541.702
L828.781 541.685
L831.225 541.642
L832.441 541.402
L833.658 541.339
L836.701 541.39
L838.516 541.449
L840.95 541.247
L842.167 541.341
L842.785 541.3
L844.002 541.461
L845.828 541.579
L846.426 541.623
L847.673 541.544
L848.88 541.657
L849.468 541.559
L850.077 541.573
L850.695 541.456
L853.119 541.622
L856.79 541.623
L890.843 541.498
L893.287 541.55
L904.858 541.557
L906.663 541.507
L907.89 541.535
L910.932 541.57
L912.139 541.496
L917.007 541.507
L919.441 541.513
L924.917 541.489
L927.361 541.431
L928.568 541.472
L935.889 541.481
L938.303 541.483
L940.747 541.457
L941.954 541.42
L942.572 541.518
L950.472 541.418
L951.699 541.426
L955.34 541.398
L957.784 541.468
L959.609 541.464
L961.434 541.512
L967.529 541.39
L969.344 541.571
L972.387 541.617
L973.593 541.329
L974.81 541.593
L975.429 541.602
L976.037 541.295
L978.461 541.582
L996.127 541.513
L997.932 541.532
L1002.81 541.44
L1003.43 541.393
L1004.64 541.459
L1005.85 541.29
L1006.45 541.45
L1008.29 541.411
L1010.1 541.434
L1016.8 541.437
L1017.42 541.286
L1018.01 541.444
L1019.25 541.275
L1019.85 541.378
L1020.45 541.193
L1021.05 541.386
L1023.49 541.3
L1024.1 541.4
L1024.71 541.262
L1026.53 541.389
L1028.36 541.242
L1028.97 541.386
L1038.1 541.462
L1038.71 541.273
L1039.94 541.453
L1040.53 541.343
L1041.75 541.448
L1042.36 541.355
L1046.61 541.466
L1047.84 541.362
L1049.05 541.441
L1056.34 541.344
L1058.8 541.186
L1059.99 540.9
L1060.6 540.482
L1061.21 540.294
L1061.83 540.247
L1062.44 539.782
L1063.06 539.672
L1063.64 539.353
L1064.26 538.782
L1065.47 537.223
L1066.72 536.544
L1067.31 535.456
L1068.51 534.903
L1069.12 533.687
L1069.74 533.148
L1070.96 531.467
L1071.57 530.865
L1072.77 530.053
L1073.38 529.337
L1074 528.001
L1074.62 524.031
L1075.81 523.691
L1077.04 527.756
L1078.25 528
L1078.86 527.829
L1079.47 527.493
L1080.69 525.33
L1081.3 524.516
L1082.52 522.198
L1084.34 518.77
L1084.95 516.484
L1085.58 513.377
L1086.2 511.704
L1086.78 508.517
L1087.38 506.993
L1087.98 501.778
L1089.21 494.812
L1090.42 491.256
L1091.04 484.112
L1091.64 478.656
L1093.47 463.456
L1094.08 453.602
L1094.68 447.126
L1095.3 437.708
L1096.5 430.528
L1097.12 424.305
L1097.72 416.601
L1098.34 411.018
L1098.95 410.558
L1099.55 393.231
L1100.16 372.04
L1101.38 367.926
L1101.99 367.593
L1103.23 368.02
L1103.82 367.929
L1104.46 367.368
L1105.03 367.293
L1106.25 367.384
L1106.46 367.384
L1106.46 367.384" style="fill:none;stroke:#0000ff;stroke-linecap:square;"/>
   </g>
   <g id="matplotlib.axis_3">
    <g id="xtick_10">
     <g id="line2d_35">
      <g>
       <use style="stroke:#000000;stroke-width:0.5;" x="154.002034391" xlink:href="#m93b0483c22" y="575.1"/>
      </g>
     </g>
     <g id="line2d_36">
      <g>
       <use style="stroke:#000000;stroke-width:0.5;" x="154.002034391" xlink:href="#m741efc42ff" y="342.736363636"/>
      </g>
     </g>
     <g id="text_19">
      <!-- 15:00:00 -->
      <g transform="translate(128.112034426 588.218125)scale(0.12 -0.12)">
       <use xlink:href="#DejaVuSans-31"/>
       <use x="63.623046875" xlink:href="#DejaVuSans-35"/>
       <use x="127.24609375" xlink:href="#DejaVuSans-3a"/>
       <use x="160.9375" xlink:href="#DejaVuSans-30"/>
       <use x="224.560546875" xlink:href="#DejaVuSans-30"/>
       <use x="288.18359375" xlink:href="#DejaVuSans-3a"/>
       <use x="321.875" xlink:href="#DejaVuSans-30"/>
       <use x="385.498046875" xlink:href="#DejaVuSans-30"/>
      </g>
     </g>
    </g>
    <g id="xtick_11">
     <g id="line2d_37">
      <g>
       <use style="stroke:#000000;stroke-width:0.5;" x="263.524255268" xlink:href="#m93b0483c22" y="575.1"/>
      </g>
     </g>
     <g id="line2d_38">
      <g>
       <use style="stroke:#000000;stroke-width:0.5;" x="263.524255268" xlink:href="#m741efc42ff" y="342.736363636"/>
      </g>
     </g>
     <g id="text_20">
      <!-- 18:00:00 -->
      <g transform="translate(237.634255276 588.218125)scale(0.12 -0.12)">
       <use xlink:href="#DejaVuSans-31"/>
       <use x="63.623046875" xlink:href="#DejaVuSans-38"/>
       <use x="127.24609375" xlink:href="#DejaVuSans-3a"/>
       <use x="160.9375" xlink:href="#DejaVuSans-30"/>
       <use x="224.560546875" xlink:href="#DejaVuSans-30"/>
       <use x="288.18359375" xlink:href="#DejaVuSans-3a"/>
       <use x="321.875" xlink:href="#DejaVuSans-30"/>
       <use x="385.498046875" xlink:href="#DejaVuSans-30"/>
      </g>
     </g>
    </g>
    <g id="xtick_12">
     <g id="line2d_39">
      <g>
       <use style="stroke:#000000;stroke-width:0.5;" x="373.046476145" xlink:href="#m93b0483c22" y="575.1"/>
      </g>
     </g>
     <g id="line2d_40">
      <g>
       <use style="stroke:#000000;stroke-width:0.5;" x="373.046476145" xlink:href="#m741efc42ff" y="342.736363636"/>
      </g>
     </g>
     <g id="text_21">
      <!-- 21:00:00 -->
      <g transform="translate(346.937101126 588.218125)scale(0.12 -0.12)">
       <use xlink:href="#DejaVuSans-32"/>
       <use x="63.623046875" xlink:href="#DejaVuSans-31"/>
       <use x="127.24609375" xlink:href="#DejaVuSans-3a"/>
       <use x="160.9375" xlink:href="#DejaVuSans-30"/>
       <use x="224.560546875" xlink:href="#DejaVuSans-30"/>
       <use x="288.18359375" xlink:href="#DejaVuSans-3a"/>
       <use x="321.875" xlink:href="#DejaVuSans-30"/>
       <use x="385.498046875" xlink:href="#DejaVuSans-30"/>
      </g>
     </g>
    </g>
    <g id="xtick_13">
     <g id="line2d_41">
      <g>
       <use style="stroke:#000000;stroke-width:0.5;" x="482.568697022" xlink:href="#m93b0483c22" y="575.1"/>
      </g>
     </g>
     <g id="line2d_42">
      <g>
       <use style="stroke:#000000;stroke-width:0.5;" x="482.568697022" xlink:href="#m741efc42ff" y="342.736363636"/>
      </g>
     </g>
     <g id="text_22">
      <!-- 00:00:00 -->
      <g transform="translate(456.415259476 588.218125)scale(0.12 -0.12)">
       <use xlink:href="#DejaVuSans-30"/>
       <use x="63.623046875" xlink:href="#DejaVuSans-30"/>
       <use x="127.24609375" xlink:href="#DejaVuSans-3a"/>
       <use x="160.9375" xlink:href="#DejaVuSans-30"/>
       <use x="224.560546875" xlink:href="#DejaVuSans-30"/>
       <use x="288.18359375" xlink:href="#DejaVuSans-3a"/>
       <use x="321.875" xlink:href="#DejaVuSans-30"/>
       <use x="385.498046875" xlink:href="#DejaVuSans-30"/>
      </g>
     </g>
    </g>
    <g id="xtick_14">
     <g id="line2d_43">
      <g>
       <use style="stroke:#000000;stroke-width:0.5;" x="592.090917899" xlink:href="#m93b0483c22" y="575.1"/>
      </g>
     </g>
     <g id="line2d_44">
      <g>
       <use style="stroke:#000000;stroke-width:0.5;" x="592.090917899" xlink:href="#m741efc42ff" y="342.736363636"/>
      </g>
     </g>
     <g id="text_23">
      <!-- 03:00:00 -->
      <g transform="translate(565.937480445 588.218125)scale(0.12 -0.12)">
       <use xlink:href="#DejaVuSans-30"/>
       <use x="63.623046875" xlink:href="#DejaVuSans-33"/>
       <use x="127.24609375" xlink:href="#DejaVuSans-3a"/>
       <use x="160.9375" xlink:href="#DejaVuSans-30"/>
       <use x="224.560546875" xlink:href="#DejaVuSans-30"/>
       <use x="288.18359375" xlink:href="#DejaVuSans-3a"/>
       <use x="321.875" xlink:href="#DejaVuSans-30"/>
       <use x="385.498046875" xlink:href="#DejaVuSans-30"/>
      </g>
     </g>
    </g>
    <g id="xtick_15">
     <g id="line2d_45">
      <g>
       <use style="stroke:#000000;stroke-width:0.5;" x="701.613138776" xlink:href="#m93b0483c22" y="575.1"/>
      </g>
     </g>
     <g id="line2d_46">
      <g>
       <use style="stroke:#000000;stroke-width:0.5;" x="701.613138776" xlink:href="#m741efc42ff" y="342.736363636"/>
      </g>
     </g>
     <g id="text_24">
      <!-- 06:00:00 -->
      <g transform="translate(675.459701295 588.218125)scale(0.12 -0.12)">
       <use xlink:href="#DejaVuSans-30"/>
       <use x="63.623046875" xlink:href="#DejaVuSans-36"/>
       <use x="127.24609375" xlink:href="#DejaVuSans-3a"/>
       <use x="160.9375" xlink:href="#DejaVuSans-30"/>
       <use x="224.560546875" xlink:href="#DejaVuSans-30"/>
       <use x="288.18359375" xlink:href="#DejaVuSans-3a"/>
       <use x="321.875" xlink:href="#DejaVuSans-30"/>
       <use x="385.498046875" xlink:href="#DejaVuSans-30"/>
      </g>
     </g>
    </g>
    <g id="xtick_16">
     <g id="line2d_47">
      <g>
       <use style="stroke:#000000;stroke-width:0.5;" x="811.135359653" xlink:href="#m93b0483c22" y="575.1"/>
      </g>
     </g>
     <g id="line2d_48">
      <g>
       <use style="stroke:#000000;stroke-width:0.5;" x="811.135359653" xlink:href="#m741efc42ff" y="342.736363636"/>
      </g>
     </g>
     <g id="text_25">
      <!-- 09:00:00 -->
      <g transform="translate(784.981922145 588.218125)scale(0.12 -0.12)">
       <use xlink:href="#DejaVuSans-30"/>
       <use x="63.623046875" xlink:href="#DejaVuSans-39"/>
       <use x="127.24609375" xlink:href="#DejaVuSans-3a"/>
       <use x="160.9375" xlink:href="#DejaVuSans-30"/>
       <use x="224.560546875" xlink:href="#DejaVuSans-30"/>
       <use x="288.18359375" xlink:href="#DejaVuSans-3a"/>
       <use x="321.875" xlink:href="#DejaVuSans-30"/>
       <use x="385.498046875" xlink:href="#DejaVuSans-30"/>
      </g>
     </g>
    </g>
    <g id="xtick_17">
     <g id="line2d_49">
      <g>
       <use style="stroke:#000000;stroke-width:0.5;" x="920.65758053" xlink:href="#m93b0483c22" y="575.1"/>
      </g>
     </g>
     <g id="line2d_50">
      <g>
       <use style="stroke:#000000;stroke-width:0.5;" x="920.65758053" xlink:href="#m741efc42ff" y="342.736363636"/>
      </g>
     </g>
     <g id="text_26">
      <!-- 12:00:00 -->
      <g transform="translate(894.767580495 588.218125)scale(0.12 -0.12)">
       <use xlink:href="#DejaVuSans-31"/>
       <use x="63.623046875" xlink:href="#DejaVuSans-32"/>
       <use x="127.24609375" xlink:href="#DejaVuSans-3a"/>
       <use x="160.9375" xlink:href="#DejaVuSans-30"/>
       <use x="224.560546875" xlink:href="#DejaVuSans-30"/>
       <use x="288.18359375" xlink:href="#DejaVuSans-3a"/>
       <use x="321.875" xlink:href="#DejaVuSans-30"/>
       <use x="385.498046875" xlink:href="#DejaVuSans-30"/>
      </g>
     </g>
    </g>
    <g id="xtick_18">
     <g id="line2d_51">
      <g>
       <use style="stroke:#000000;stroke-width:0.5;" x="1030.17980141" xlink:href="#m93b0483c22" y="575.1"/>
      </g>
     </g>
     <g id="line2d_52">
      <g>
       <use style="stroke:#000000;stroke-width:0.5;" x="1030.17980141" xlink:href="#m741efc42ff" y="342.736363636"/>
      </g>
     </g>
     <g id="text_27">
      <!-- 15:00:00 -->
      <g transform="translate(1004.28980146 588.218125)scale(0.12 -0.12)">
       <use xlink:href="#DejaVuSans-31"/>
       <use x="63.623046875" xlink:href="#DejaVuSans-35"/>
       <use x="127.24609375" xlink:href="#DejaVuSans-3a"/>
       <use x="160.9375" xlink:href="#DejaVuSans-30"/>
       <use x="224.560546875" xlink:href="#DejaVuSans-30"/>
       <use x="288.18359375" xlink:href="#DejaVuSans-3a"/>
       <use x="321.875" xlink:href="#DejaVuSans-30"/>
       <use x="385.498046875" xlink:href="#DejaVuSans-30"/>
      </g>
     </g>
    </g>
    <g id="text_28">
     <!-- time (UTC) -->
     <g transform="translate(598.5459375 604.831875)scale(0.12 -0.12)">
      <use xlink:href="#DejaVuSans-74"/>
      <use x="39.208984375" xlink:href="#DejaVuSans-69"/>
      <use x="66.9921875" xlink:href="#DejaVuSans-6d"/>
      <use x="164.404296875" xlink:href="#DejaVuSans-65"/>
      <use x="225.927734375" xlink:href="#DejaVuSans-20"/>
      <use x="257.71484375" xlink:href="#DejaVuSans-28"/>
      <use x="296.728515625" xlink:href="#DejaVuSans-55"/>
      <use x="369.921875" xlink:href="#DejaVuSans-54"/>
      <use x="425.130859375" xlink:href="#DejaVuSans-43"/>
      <use x="494.955078125" xlink:href="#DejaVuSans-29"/>
     </g>
    </g>
   </g>
   <g id="matplotlib.axis_4">
    <g id="ytick_8">
     <g id="text_29">
      <!-- 0 -->
      <g transform="translate(143.628125 578.41125)scale(0.12 -0.12)">
       <use xlink:href="#DejaVuSans-30"/>
      </g>
     </g>
    </g>
    <g id="ytick_9">
     <g id="line2d_53">
      <g>
       <use style="stroke:#000000;stroke-width:0.5;" x="153.675" xlink:href="#m728421d6d4" y="536.372727273"/>
      </g>
     </g>
     <g id="line2d_54">
      <g>
       <use style="stroke:#000000;stroke-width:0.5;" x="1106.46" xlink:href="#mcb0005524f" y="536.372727273"/>
      </g>
     </g>
     <g id="text_30">
      <!-- 5 -->
      <g transform="translate(144.014375 539.683977273)scale(0.12 -0.12)">
       <use xlink:href="#DejaVuSans-35"/>
      </g>
     </g>
    </g>
    <g id="ytick_10">
     <g id="line2d_55">
      <g>
       <use style="stroke:#000000;stroke-width:0.5;" x="153.675" xlink:href="#m728421d6d4" y="497.645454545"/>
      </g>
     </g>
     <g id="line2d_56">
      <g>
       <use style="stroke:#000000;stroke-width:0.5;" x="1106.46" xlink:href="#mcb0005524f" y="497.645454545"/>
      </g>
     </g>
     <g id="text_31">
      <!-- 10 -->
      <g transform="translate(136.52 500.956704545)scale(0.12 -0.12)">
       <use xlink:href="#DejaVuSans-31"/>
       <use x="63.623046875" xlink:href="#DejaVuSans-30"/>
      </g>
     </g>
    </g>
    <g id="ytick_11">
     <g id="line2d_57">
      <g>
       <use style="stroke:#000000;stroke-width:0.5;" x="153.675" xlink:href="#m728421d6d4" y="458.918181818"/>
      </g>
     </g>
     <g id="line2d_58">
      <g>
       <use style="stroke:#000000;stroke-width:0.5;" x="1106.46" xlink:href="#mcb0005524f" y="458.918181818"/>
      </g>
     </g>
     <g id="text_32">
      <!-- 15 -->
      <g transform="translate(136.77125 462.229431818)scale(0.12 -0.12)">
       <use xlink:href="#DejaVuSans-31"/>
       <use x="63.623046875" xlink:href="#DejaVuSans-35"/>
      </g>
     </g>
    </g>
    <g id="ytick_12">
     <g id="line2d_59">
      <g>
       <use style="stroke:#000000;stroke-width:0.5;" x="153.675" xlink:href="#m728421d6d4" y="420.190909091"/>
      </g>
     </g>
     <g id="line2d_60">
      <g>
       <use style="stroke:#000000;stroke-width:0.5;" x="1106.46" xlink:href="#mcb0005524f" y="420.190909091"/>
      </g>
     </g>
     <g id="text_33">
      <!-- 20 -->
      <g transform="translate(136.08125 423.502159091)scale(0.12 -0.12)">
       <use xlink:href="#DejaVuSans-32"/>
       <use x="63.623046875" xlink:href="#DejaVuSans-30"/>
      </g>
     </g>
    </g>
    <g id="ytick_13">
     <g id="line2d_61">
      <g>
       <use style="stroke:#000000;stroke-width:0.5;" x="153.675" xlink:href="#m728421d6d4" y="381.463636364"/>
      </g>
     </g>
     <g id="line2d_62">
      <g>
       <use style="stroke:#000000;stroke-width:0.5;" x="1106.46" xlink:href="#mcb0005524f" y="381.463636364"/>
      </g>
     </g>
     <g id="text_34">
      <!-- 25 -->
      <g transform="translate(136.3325 384.774886364)scale(0.12 -0.12)">
       <use xlink:href="#DejaVuSans-32"/>
       <use x="63.623046875" xlink:href="#DejaVuSans-35"/>
      </g>
     </g>
    </g>
    <g id="ytick_14">
     <g id="line2d_63">
      <g>
       <use style="stroke:#000000;stroke-width:0.5;" x="153.675" xlink:href="#m728421d6d4" y="342.736363636"/>
      </g>
     </g>
     <g id="line2d_64">
      <g>
       <use style="stroke:#000000;stroke-width:0.5;" x="1106.46" xlink:href="#mcb0005524f" y="342.736363636"/>
      </g>
     </g>
     <g id="text_35">
      <!-- 30 -->
      <g transform="translate(136.116875 346.047613636)scale(0.12 -0.12)">
       <use xlink:href="#DejaVuSans-33"/>
       <use x="63.623046875" xlink:href="#DejaVuSans-30"/>
      </g>
     </g>
    </g>
    <g id="text_36">
     <!-- temperature (celsius) -->
     <defs>
      <path d="
M8.5 21.5781
L8.5 54.6875
L17.4844 54.6875
L17.4844 21.9219
Q17.4844 14.1562 20.5 10.2656
Q23.5312 6.39062 29.5938 6.39062
Q36.8594 6.39062 41.0781 11.0312
Q45.3125 15.6719 45.3125 23.6875
L45.3125 54.6875
L54.2969 54.6875
L54.2969 0
L45.3125 0
L45.3125 8.40625
Q42.0469 3.42188 37.7188 1
Q33.4062 -1.42188 27.6875 -1.42188
Q18.2656 -1.42188 13.375 4.4375
Q8.5 10.2969 8.5 21.5781
M31.1094 56
z
" id="DejaVuSans-75"/>
      <path d="
M9.42188 75.9844
L18.4062 75.9844
L18.4062 0
L9.42188 0
z
" id="DejaVuSans-6c"/>
      <path d="
M48.7812 52.5938
L48.7812 44.1875
Q44.9688 46.2969 41.1406 47.3438
Q37.3125 48.3906 33.4062 48.3906
Q24.6562 48.3906 19.8125 42.8438
Q14.9844 37.3125 14.9844 27.2969
Q14.9844 17.2812 19.8125 11.7344
Q24.6562 6.20312 33.4062 6.20312
Q37.3125 6.20312 41.1406 7.25
Q44.9688 8.29688 48.7812 10.4062
L48.7812 2.09375
Q45.0156 0.34375 40.9844 -0.53125
Q36.9688 -1.42188 32.4219 -1.42188
Q20.0625 -1.42188 12.7812 6.34375
Q5.51562 14.1094 5.51562 27.2969
Q5.51562 40.6719 12.8594 48.3281
Q20.2188 56 33.0156 56
Q37.1562 56 41.1094 55.1406
Q45.0625 54.2969 48.7812 52.5938" id="DejaVuSans-63"/>
      <path d="
M34.2812 27.4844
Q23.3906 27.4844 19.1875 25
Q14.9844 22.5156 14.9844 16.5
Q14.9844 11.7188 18.1406 8.90625
Q21.2969 6.10938 26.7031 6.10938
Q34.1875 6.10938 38.7031 11.4062
Q43.2188 16.7031 43.2188 25.4844
L43.2188 27.4844
z

M52.2031 31.2031
L52.2031 0
L43.2188 0
L43.2188 8.29688
Q40.1406 3.32812 35.5469 0.953125
Q30.9531 -1.42188 24.3125 -1.42188
Q15.9219 -1.42188 10.9531 3.29688
Q6 8.01562 6 15.9219
Q6 25.1406 12.1719 29.8281
Q18.3594 34.5156 30.6094 34.5156
L43.2188 34.5156
L43.2188 35.4062
Q43.2188 41.6094 39.1406 45
Q35.0625 48.3906 27.6875 48.3906
Q23 48.3906 18.5469 47.2656
Q14.1094 46.1406 10.0156 43.8906
L10.0156 52.2031
Q14.9375 54.1094 19.5781 55.0469
Q24.2188 56 28.6094 56
Q40.4844 56 46.3438 49.8438
Q52.2031 43.7031 52.2031 31.2031" id="DejaVuSans-61"/>
     </defs>
     <g transform="translate(128.585625 523.080681818)rotate(-90.0)scale(0.12 -0.12)">
      <use xlink:href="#DejaVuSans-74"/>
      <use x="39.208984375" xlink:href="#DejaVuSans-65"/>
      <use x="100.732421875" xlink:href="#DejaVuSans-6d"/>
      <use x="198.14453125" xlink:href="#DejaVuSans-70"/>
      <use x="261.62109375" xlink:href="#DejaVuSans-65"/>
      <use x="323.14453125" xlink:href="#DejaVuSans-72"/>
      <use x="364.2578125" xlink:href="#DejaVuSans-61"/>
      <use x="425.537109375" xlink:href="#DejaVuSans-74"/>
      <use x="464.74609375" xlink:href="#DejaVuSans-75"/>
      <use x="528.125" xlink:href="#DejaVuSans-72"/>
      <use x="566.98828125" xlink:href="#DejaVuSans-65"/>
      <use x="628.51171875" xlink:href="#DejaVuSans-20"/>
      <use x="660.298828125" xlink:href="#DejaVuSans-28"/>
      <use x="699.3125" xlink:href="#DejaVuSans-63"/>
      <use x="754.29296875" xlink:href="#DejaVuSans-65"/>
      <use x="815.81640625" xlink:href="#DejaVuSans-6c"/>
      <use x="843.599609375" xlink:href="#DejaVuSans-73"/>
      <use x="895.69921875" xlink:href="#DejaVuSans-69"/>
      <use x="923.482421875" xlink:href="#DejaVuSans-75"/>
      <use x="986.861328125" xlink:href="#DejaVuSans-73"/>
      <use x="1038.9609375" xlink:href="#DejaVuSans-29"/>
     </g>
    </g>
   </g>
   <g id="patch_8">
    <path d="
M153.675 342.736
L1106.46 342.736" style="fill:none;stroke:#000000;"/>
   </g>
   <g id="patch_9">
    <path d="
M1106.46 575.1
L1106.46 342.736" style="fill:none;stroke:#000000;"/>
   </g>
   <g id="patch_10">
    <path d="
M153.675 575.1
L1106.46 575.1" style="fill:none;stroke:#000000;"/>
   </g>
   <g id="patch_11">
    <path d="
M153.675 575.1
L153.675 342.736" style="fill:none;stroke:#000000;"/>
   </g>
  </g>
 </g>
 <defs>
  <clipPath id="p3f00df8ba8">
   <rect height="232.363636364" width="952.785" x="153.675" y="342.736363636"/>
  </clipPath>
  <clipPath id="p8348b65751">
   <rect height="232.363636364" width="952.785" x="153.675" y="63.9"/>
  </clipPath>
 </defs>
</svg>
