<?xml version="1.0" encoding="utf-8" standalone="no"?>
<!DOCTYPE svg PUBLIC "-//W3C//DTD SVG 1.1//EN"
  "http://www.w3.org/Graphics/SVG/1.1/DTD/svg11.dtd">
<!-- Created with matplotlib (http://matplotlib.org/) -->
<svg height="4608pt" version="1.1" viewBox="0 0 576 4608" width="576pt" xmlns="http://www.w3.org/2000/svg" xmlns:xlink="http://www.w3.org/1999/xlink">
 <defs>
  <style type="text/css">
*{stroke-linecap:butt;stroke-linejoin:round;}
  </style>
 </defs>
 <g id="figure_1">
  <g id="patch_1">
   <path d="M 0 4608 
L 576 4608 
L 576 0 
L 0 0 
z
" style="fill:#ffffff;"/>
  </g>
  <g id="axes_1">
   <g id="patch_2">
    <path d="M 72 4032 
L 518.4 4032 
L 518.4 552.96 
L 72 552.96 
z
" style="fill:#ffffff;"/>
   </g>
   <g id="matplotlib.axis_1">
    <g id="xtick_1">
     <g id="line2d_1">
      <path clip-path="url(#p7bd7b34cd7)" d="M 478.89444 4032 
L 478.89444 552.96 
" style="fill:none;stroke:#b0b0b0;stroke-linecap:square;stroke-width:0.8;"/>
     </g>
     <g id="line2d_2">
      <defs>
       <path d="M 0 0 
L 0 3.5 
" id="m50b54d8ee1" style="stroke:#000000;stroke-width:0.8;"/>
      </defs>
      <g>
       <use style="stroke:#000000;stroke-width:0.8;" x="478.89444" xlink:href="#m50b54d8ee1" y="4032"/>
      </g>
     </g>
     <g id="text_1">
      <!-- 134 -->
      <defs>
       <path d="M 12.40625 8.296875 
L 28.515625 8.296875 
L 28.515625 63.921875 
L 10.984375 60.40625 
L 10.984375 69.390625 
L 28.421875 72.90625 
L 38.28125 72.90625 
L 38.28125 8.296875 
L 54.390625 8.296875 
L 54.390625 0 
L 12.40625 0 
z
" id="DejaVuSans-31"/>
       <path d="M 40.578125 39.3125 
Q 47.65625 37.796875 51.625 33 
Q 55.609375 28.21875 55.609375 21.1875 
Q 55.609375 10.40625 48.1875 4.484375 
Q 40.765625 -1.421875 27.09375 -1.421875 
Q 22.515625 -1.421875 17.65625 -0.515625 
Q 12.796875 0.390625 7.625 2.203125 
L 7.625 11.71875 
Q 11.71875 9.328125 16.59375 8.109375 
Q 21.484375 6.890625 26.8125 6.890625 
Q 36.078125 6.890625 40.9375 10.546875 
Q 45.796875 14.203125 45.796875 21.1875 
Q 45.796875 27.640625 41.28125 31.265625 
Q 36.765625 34.90625 28.71875 34.90625 
L 20.21875 34.90625 
L 20.21875 43.015625 
L 29.109375 43.015625 
Q 36.375 43.015625 40.234375 45.921875 
Q 44.09375 48.828125 44.09375 54.296875 
Q 44.09375 59.90625 40.109375 62.90625 
Q 36.140625 65.921875 28.71875 65.921875 
Q 24.65625 65.921875 20.015625 65.03125 
Q 15.375 64.15625 9.8125 62.3125 
L 9.8125 71.09375 
Q 15.4375 72.65625 20.34375 73.4375 
Q 25.25 74.21875 29.59375 74.21875 
Q 40.828125 74.21875 47.359375 69.109375 
Q 53.90625 64.015625 53.90625 55.328125 
Q 53.90625 49.265625 50.4375 45.09375 
Q 46.96875 40.921875 40.578125 39.3125 
" id="DejaVuSans-33"/>
       <path d="M 37.796875 64.3125 
L 12.890625 25.390625 
L 37.796875 25.390625 
z
M 35.203125 72.90625 
L 47.609375 72.90625 
L 47.609375 25.390625 
L 58.015625 25.390625 
L 58.015625 17.1875 
L 47.609375 17.1875 
L 47.609375 0 
L 37.796875 0 
L 37.796875 17.1875 
L 4.890625 17.1875 
L 4.890625 26.703125 
z
" id="DejaVuSans-34"/>
      </defs>
      <g transform="translate(469.35069 4046.598437)scale(0.1 -0.1)">
       <use xlink:href="#DejaVuSans-31"/>
       <use x="63.623047" xlink:href="#DejaVuSans-33"/>
       <use x="127.246094" xlink:href="#DejaVuSans-34"/>
      </g>
     </g>
    </g>
    <g id="xtick_2">
     <g id="line2d_3">
      <path clip-path="url(#p7bd7b34cd7)" d="M 427.152558 4032 
L 427.152558 552.96 
" style="fill:none;stroke:#b0b0b0;stroke-linecap:square;stroke-width:0.8;"/>
     </g>
     <g id="line2d_4">
      <g>
       <use style="stroke:#000000;stroke-width:0.8;" x="427.152558" xlink:href="#m50b54d8ee1" y="4032"/>
      </g>
     </g>
     <g id="text_2">
      <!-- 136 -->
      <defs>
       <path d="M 33.015625 40.375 
Q 26.375 40.375 22.484375 35.828125 
Q 18.609375 31.296875 18.609375 23.390625 
Q 18.609375 15.53125 22.484375 10.953125 
Q 26.375 6.390625 33.015625 6.390625 
Q 39.65625 6.390625 43.53125 10.953125 
Q 47.40625 15.53125 47.40625 23.390625 
Q 47.40625 31.296875 43.53125 35.828125 
Q 39.65625 40.375 33.015625 40.375 
M 52.59375 71.296875 
L 52.59375 62.3125 
Q 48.875 64.0625 45.09375 64.984375 
Q 41.3125 65.921875 37.59375 65.921875 
Q 27.828125 65.921875 22.671875 59.328125 
Q 17.53125 52.734375 16.796875 39.40625 
Q 19.671875 43.65625 24.015625 45.921875 
Q 28.375 48.1875 33.59375 48.1875 
Q 44.578125 48.1875 50.953125 41.515625 
Q 57.328125 34.859375 57.328125 23.390625 
Q 57.328125 12.15625 50.6875 5.359375 
Q 44.046875 -1.421875 33.015625 -1.421875 
Q 20.359375 -1.421875 13.671875 8.265625 
Q 6.984375 17.96875 6.984375 36.375 
Q 6.984375 53.65625 15.1875 63.9375 
Q 23.390625 74.21875 37.203125 74.21875 
Q 40.921875 74.21875 44.703125 73.484375 
Q 48.484375 72.75 52.59375 71.296875 
" id="DejaVuSans-36"/>
      </defs>
      <g transform="translate(417.608808 4046.598437)scale(0.1 -0.1)">
       <use xlink:href="#DejaVuSans-31"/>
       <use x="63.623047" xlink:href="#DejaVuSans-33"/>
       <use x="127.246094" xlink:href="#DejaVuSans-36"/>
      </g>
     </g>
    </g>
    <g id="xtick_3">
     <g id="line2d_5">
      <path clip-path="url(#p7bd7b34cd7)" d="M 375.410675 4032 
L 375.410675 552.96 
" style="fill:none;stroke:#b0b0b0;stroke-linecap:square;stroke-width:0.8;"/>
     </g>
     <g id="line2d_6">
      <g>
       <use style="stroke:#000000;stroke-width:0.8;" x="375.410675" xlink:href="#m50b54d8ee1" y="4032"/>
      </g>
     </g>
     <g id="text_3">
      <!-- 138 -->
      <defs>
       <path d="M 31.78125 34.625 
Q 24.75 34.625 20.71875 30.859375 
Q 16.703125 27.09375 16.703125 20.515625 
Q 16.703125 13.921875 20.71875 10.15625 
Q 24.75 6.390625 31.78125 6.390625 
Q 38.8125 6.390625 42.859375 10.171875 
Q 46.921875 13.96875 46.921875 20.515625 
Q 46.921875 27.09375 42.890625 30.859375 
Q 38.875 34.625 31.78125 34.625 
M 21.921875 38.8125 
Q 15.578125 40.375 12.03125 44.71875 
Q 8.5 49.078125 8.5 55.328125 
Q 8.5 64.0625 14.71875 69.140625 
Q 20.953125 74.21875 31.78125 74.21875 
Q 42.671875 74.21875 48.875 69.140625 
Q 55.078125 64.0625 55.078125 55.328125 
Q 55.078125 49.078125 51.53125 44.71875 
Q 48 40.375 41.703125 38.8125 
Q 48.828125 37.15625 52.796875 32.3125 
Q 56.78125 27.484375 56.78125 20.515625 
Q 56.78125 9.90625 50.3125 4.234375 
Q 43.84375 -1.421875 31.78125 -1.421875 
Q 19.734375 -1.421875 13.25 4.234375 
Q 6.78125 9.90625 6.78125 20.515625 
Q 6.78125 27.484375 10.78125 32.3125 
Q 14.796875 37.15625 21.921875 38.8125 
M 18.3125 54.390625 
Q 18.3125 48.734375 21.84375 45.5625 
Q 25.390625 42.390625 31.78125 42.390625 
Q 38.140625 42.390625 41.71875 45.5625 
Q 45.3125 48.734375 45.3125 54.390625 
Q 45.3125 60.0625 41.71875 63.234375 
Q 38.140625 66.40625 31.78125 66.40625 
Q 25.390625 66.40625 21.84375 63.234375 
Q 18.3125 60.0625 18.3125 54.390625 
" id="DejaVuSans-38"/>
      </defs>
      <g transform="translate(365.866925 4046.598437)scale(0.1 -0.1)">
       <use xlink:href="#DejaVuSans-31"/>
       <use x="63.623047" xlink:href="#DejaVuSans-33"/>
       <use x="127.246094" xlink:href="#DejaVuSans-38"/>
      </g>
     </g>
    </g>
    <g id="xtick_4">
     <g id="line2d_7">
      <path clip-path="url(#p7bd7b34cd7)" d="M 323.668792 4032 
L 323.668792 552.96 
" style="fill:none;stroke:#b0b0b0;stroke-linecap:square;stroke-width:0.8;"/>
     </g>
     <g id="line2d_8">
      <g>
       <use style="stroke:#000000;stroke-width:0.8;" x="323.668792" xlink:href="#m50b54d8ee1" y="4032"/>
      </g>
     </g>
     <g id="text_4">
      <!-- 140 -->
      <defs>
       <path d="M 31.78125 66.40625 
Q 24.171875 66.40625 20.328125 58.90625 
Q 16.5 51.421875 16.5 36.375 
Q 16.5 21.390625 20.328125 13.890625 
Q 24.171875 6.390625 31.78125 6.390625 
Q 39.453125 6.390625 43.28125 13.890625 
Q 47.125 21.390625 47.125 36.375 
Q 47.125 51.421875 43.28125 58.90625 
Q 39.453125 66.40625 31.78125 66.40625 
M 31.78125 74.21875 
Q 44.046875 74.21875 50.515625 64.515625 
Q 56.984375 54.828125 56.984375 36.375 
Q 56.984375 17.96875 50.515625 8.265625 
Q 44.046875 -1.421875 31.78125 -1.421875 
Q 19.53125 -1.421875 13.0625 8.265625 
Q 6.59375 17.96875 6.59375 36.375 
Q 6.59375 54.828125 13.0625 64.515625 
Q 19.53125 74.21875 31.78125 74.21875 
" id="DejaVuSans-30"/>
      </defs>
      <g transform="translate(314.125042 4046.598437)scale(0.1 -0.1)">
       <use xlink:href="#DejaVuSans-31"/>
       <use x="63.623047" xlink:href="#DejaVuSans-34"/>
       <use x="127.246094" xlink:href="#DejaVuSans-30"/>
      </g>
     </g>
    </g>
    <g id="xtick_5">
     <g id="line2d_9">
      <path clip-path="url(#p7bd7b34cd7)" d="M 271.926909 4032 
L 271.926909 552.96 
" style="fill:none;stroke:#b0b0b0;stroke-linecap:square;stroke-width:0.8;"/>
     </g>
     <g id="line2d_10">
      <g>
       <use style="stroke:#000000;stroke-width:0.8;" x="271.926909" xlink:href="#m50b54d8ee1" y="4032"/>
      </g>
     </g>
     <g id="text_5">
      <!-- 142 -->
      <defs>
       <path d="M 19.1875 8.296875 
L 53.609375 8.296875 
L 53.609375 0 
L 7.328125 0 
L 7.328125 8.296875 
Q 12.9375 14.109375 22.625 23.890625 
Q 32.328125 33.6875 34.8125 36.53125 
Q 39.546875 41.84375 41.421875 45.53125 
Q 43.3125 49.21875 43.3125 52.78125 
Q 43.3125 58.59375 39.234375 62.25 
Q 35.15625 65.921875 28.609375 65.921875 
Q 23.96875 65.921875 18.8125 64.3125 
Q 13.671875 62.703125 7.8125 59.421875 
L 7.8125 69.390625 
Q 13.765625 71.78125 18.9375 73 
Q 24.125 74.21875 28.421875 74.21875 
Q 39.75 74.21875 46.484375 68.546875 
Q 53.21875 62.890625 53.21875 53.421875 
Q 53.21875 48.921875 51.53125 44.890625 
Q 49.859375 40.875 45.40625 35.40625 
Q 44.1875 33.984375 37.640625 27.21875 
Q 31.109375 20.453125 19.1875 8.296875 
" id="DejaVuSans-32"/>
      </defs>
      <g transform="translate(262.383159 4046.598437)scale(0.1 -0.1)">
       <use xlink:href="#DejaVuSans-31"/>
       <use x="63.623047" xlink:href="#DejaVuSans-34"/>
       <use x="127.246094" xlink:href="#DejaVuSans-32"/>
      </g>
     </g>
    </g>
    <g id="xtick_6">
     <g id="line2d_11">
      <path clip-path="url(#p7bd7b34cd7)" d="M 220.185027 4032 
L 220.185027 552.96 
" style="fill:none;stroke:#b0b0b0;stroke-linecap:square;stroke-width:0.8;"/>
     </g>
     <g id="line2d_12">
      <g>
       <use style="stroke:#000000;stroke-width:0.8;" x="220.185027" xlink:href="#m50b54d8ee1" y="4032"/>
      </g>
     </g>
     <g id="text_6">
      <!-- 144 -->
      <g transform="translate(210.641277 4046.598437)scale(0.1 -0.1)">
       <use xlink:href="#DejaVuSans-31"/>
       <use x="63.623047" xlink:href="#DejaVuSans-34"/>
       <use x="127.246094" xlink:href="#DejaVuSans-34"/>
      </g>
     </g>
    </g>
    <g id="xtick_7">
     <g id="line2d_13">
      <path clip-path="url(#p7bd7b34cd7)" d="M 168.443144 4032 
L 168.443144 552.96 
" style="fill:none;stroke:#b0b0b0;stroke-linecap:square;stroke-width:0.8;"/>
     </g>
     <g id="line2d_14">
      <g>
       <use style="stroke:#000000;stroke-width:0.8;" x="168.443144" xlink:href="#m50b54d8ee1" y="4032"/>
      </g>
     </g>
     <g id="text_7">
      <!-- 146 -->
      <g transform="translate(158.899394 4046.598437)scale(0.1 -0.1)">
       <use xlink:href="#DejaVuSans-31"/>
       <use x="63.623047" xlink:href="#DejaVuSans-34"/>
       <use x="127.246094" xlink:href="#DejaVuSans-36"/>
      </g>
     </g>
    </g>
    <g id="xtick_8">
     <g id="line2d_15">
      <path clip-path="url(#p7bd7b34cd7)" d="M 116.701261 4032 
L 116.701261 552.96 
" style="fill:none;stroke:#b0b0b0;stroke-linecap:square;stroke-width:0.8;"/>
     </g>
     <g id="line2d_16">
      <g>
       <use style="stroke:#000000;stroke-width:0.8;" x="116.701261" xlink:href="#m50b54d8ee1" y="4032"/>
      </g>
     </g>
     <g id="text_8">
      <!-- 148 -->
      <g transform="translate(107.157511 4046.598437)scale(0.1 -0.1)">
       <use xlink:href="#DejaVuSans-31"/>
       <use x="63.623047" xlink:href="#DejaVuSans-34"/>
       <use x="127.246094" xlink:href="#DejaVuSans-38"/>
      </g>
     </g>
    </g>
    <g id="text_9">
     <!-- Depth [m] -->
     <defs>
      <path d="M 19.671875 64.796875 
L 19.671875 8.109375 
L 31.59375 8.109375 
Q 46.6875 8.109375 53.6875 14.9375 
Q 60.6875 21.78125 60.6875 36.53125 
Q 60.6875 51.171875 53.6875 57.984375 
Q 46.6875 64.796875 31.59375 64.796875 
z
M 9.8125 72.90625 
L 30.078125 72.90625 
Q 51.265625 72.90625 61.171875 64.09375 
Q 71.09375 55.28125 71.09375 36.53125 
Q 71.09375 17.671875 61.125 8.828125 
Q 51.171875 0 30.078125 0 
L 9.8125 0 
z
" id="DejaVuSans-44"/>
      <path d="M 56.203125 29.59375 
L 56.203125 25.203125 
L 14.890625 25.203125 
Q 15.484375 15.921875 20.484375 11.0625 
Q 25.484375 6.203125 34.421875 6.203125 
Q 39.59375 6.203125 44.453125 7.46875 
Q 49.3125 8.734375 54.109375 11.28125 
L 54.109375 2.78125 
Q 49.265625 0.734375 44.1875 -0.34375 
Q 39.109375 -1.421875 33.890625 -1.421875 
Q 20.796875 -1.421875 13.15625 6.1875 
Q 5.515625 13.8125 5.515625 26.8125 
Q 5.515625 40.234375 12.765625 48.109375 
Q 20.015625 56 32.328125 56 
Q 43.359375 56 49.78125 48.890625 
Q 56.203125 41.796875 56.203125 29.59375 
M 47.21875 32.234375 
Q 47.125 39.59375 43.09375 43.984375 
Q 39.0625 48.390625 32.421875 48.390625 
Q 24.90625 48.390625 20.390625 44.140625 
Q 15.875 39.890625 15.1875 32.171875 
z
" id="DejaVuSans-65"/>
      <path d="M 18.109375 8.203125 
L 18.109375 -20.796875 
L 9.078125 -20.796875 
L 9.078125 54.6875 
L 18.109375 54.6875 
L 18.109375 46.390625 
Q 20.953125 51.265625 25.265625 53.625 
Q 29.59375 56 35.59375 56 
Q 45.5625 56 51.78125 48.09375 
Q 58.015625 40.1875 58.015625 27.296875 
Q 58.015625 14.40625 51.78125 6.484375 
Q 45.5625 -1.421875 35.59375 -1.421875 
Q 29.59375 -1.421875 25.265625 0.953125 
Q 20.953125 3.328125 18.109375 8.203125 
M 48.6875 27.296875 
Q 48.6875 37.203125 44.609375 42.84375 
Q 40.53125 48.484375 33.40625 48.484375 
Q 26.265625 48.484375 22.1875 42.84375 
Q 18.109375 37.203125 18.109375 27.296875 
Q 18.109375 17.390625 22.1875 11.75 
Q 26.265625 6.109375 33.40625 6.109375 
Q 40.53125 6.109375 44.609375 11.75 
Q 48.6875 17.390625 48.6875 27.296875 
" id="DejaVuSans-70"/>
      <path d="M 18.3125 70.21875 
L 18.3125 54.6875 
L 36.8125 54.6875 
L 36.8125 47.703125 
L 18.3125 47.703125 
L 18.3125 18.015625 
Q 18.3125 11.328125 20.140625 9.421875 
Q 21.96875 7.515625 27.59375 7.515625 
L 36.8125 7.515625 
L 36.8125 0 
L 27.59375 0 
Q 17.1875 0 13.234375 3.875 
Q 9.28125 7.765625 9.28125 18.015625 
L 9.28125 47.703125 
L 2.6875 47.703125 
L 2.6875 54.6875 
L 9.28125 54.6875 
L 9.28125 70.21875 
z
" id="DejaVuSans-74"/>
      <path d="M 54.890625 33.015625 
L 54.890625 0 
L 45.90625 0 
L 45.90625 32.71875 
Q 45.90625 40.484375 42.875 44.328125 
Q 39.84375 48.1875 33.796875 48.1875 
Q 26.515625 48.1875 22.3125 43.546875 
Q 18.109375 38.921875 18.109375 30.90625 
L 18.109375 0 
L 9.078125 0 
L 9.078125 75.984375 
L 18.109375 75.984375 
L 18.109375 46.1875 
Q 21.34375 51.125 25.703125 53.5625 
Q 30.078125 56 35.796875 56 
Q 45.21875 56 50.046875 50.171875 
Q 54.890625 44.34375 54.890625 33.015625 
" id="DejaVuSans-68"/>
      <path id="DejaVuSans-20"/>
      <path d="M 8.59375 75.984375 
L 29.296875 75.984375 
L 29.296875 69 
L 17.578125 69 
L 17.578125 -6.203125 
L 29.296875 -6.203125 
L 29.296875 -13.1875 
L 8.59375 -13.1875 
z
" id="DejaVuSans-5b"/>
      <path d="M 52 44.1875 
Q 55.375 50.25 60.0625 53.125 
Q 64.75 56 71.09375 56 
Q 79.640625 56 84.28125 50.015625 
Q 88.921875 44.046875 88.921875 33.015625 
L 88.921875 0 
L 79.890625 0 
L 79.890625 32.71875 
Q 79.890625 40.578125 77.09375 44.375 
Q 74.3125 48.1875 68.609375 48.1875 
Q 61.625 48.1875 57.5625 43.546875 
Q 53.515625 38.921875 53.515625 30.90625 
L 53.515625 0 
L 44.484375 0 
L 44.484375 32.71875 
Q 44.484375 40.625 41.703125 44.40625 
Q 38.921875 48.1875 33.109375 48.1875 
Q 26.21875 48.1875 22.15625 43.53125 
Q 18.109375 38.875 18.109375 30.90625 
L 18.109375 0 
L 9.078125 0 
L 9.078125 54.6875 
L 18.109375 54.6875 
L 18.109375 46.1875 
Q 21.1875 51.21875 25.484375 53.609375 
Q 29.78125 56 35.6875 56 
Q 41.65625 56 45.828125 52.96875 
Q 50 49.953125 52 44.1875 
" id="DejaVuSans-6d"/>
      <path d="M 30.421875 75.984375 
L 30.421875 -13.1875 
L 9.71875 -13.1875 
L 9.71875 -6.203125 
L 21.390625 -6.203125 
L 21.390625 69 
L 9.71875 69 
L 9.71875 75.984375 
z
" id="DejaVuSans-5d"/>
     </defs>
     <g transform="translate(269.609375 4060.276563)scale(0.1 -0.1)">
      <use xlink:href="#DejaVuSans-44"/>
      <use x="77.001953" xlink:href="#DejaVuSans-65"/>
      <use x="138.525391" xlink:href="#DejaVuSans-70"/>
      <use x="202.001953" xlink:href="#DejaVuSans-74"/>
      <use x="241.210938" xlink:href="#DejaVuSans-68"/>
      <use x="304.589844" xlink:href="#DejaVuSans-20"/>
      <use x="336.376953" xlink:href="#DejaVuSans-5b"/>
      <use x="375.390625" xlink:href="#DejaVuSans-6d"/>
      <use x="472.802734" xlink:href="#DejaVuSans-5d"/>
     </g>
    </g>
   </g>
   <g id="matplotlib.axis_2">
    <g id="ytick_1">
     <g id="line2d_17">
      <path clip-path="url(#p7bd7b34cd7)" d="M 72 3585.201132 
L 518.4 3585.201132 
" style="fill:none;stroke:#b0b0b0;stroke-linecap:square;stroke-width:0.8;"/>
     </g>
     <g id="line2d_18">
      <defs>
       <path d="M 0 0 
L -3.5 0 
" id="mfeb498111d" style="stroke:#000000;stroke-width:0.8;"/>
      </defs>
      <g>
       <use style="stroke:#000000;stroke-width:0.8;" x="72" xlink:href="#mfeb498111d" y="3585.201132"/>
      </g>
     </g>
     <g id="text_10">
      <!-- 0 -->
      <g transform="translate(58.6375 3589.000351)scale(0.1 -0.1)">
       <use xlink:href="#DejaVuSans-30"/>
      </g>
     </g>
    </g>
    <g id="ytick_2">
     <g id="line2d_19">
      <path clip-path="url(#p7bd7b34cd7)" d="M 72 3077.475147 
L 518.4 3077.475147 
" style="fill:none;stroke:#b0b0b0;stroke-linecap:square;stroke-width:0.8;"/>
     </g>
     <g id="line2d_20">
      <g>
       <use style="stroke:#000000;stroke-width:0.8;" x="72" xlink:href="#mfeb498111d" y="3077.475147"/>
      </g>
     </g>
     <g id="text_11">
      <!-- 5000 -->
      <defs>
       <path d="M 10.796875 72.90625 
L 49.515625 72.90625 
L 49.515625 64.59375 
L 19.828125 64.59375 
L 19.828125 46.734375 
Q 21.96875 47.46875 24.109375 47.828125 
Q 26.265625 48.1875 28.421875 48.1875 
Q 40.625 48.1875 47.75 41.5 
Q 54.890625 34.8125 54.890625 23.390625 
Q 54.890625 11.625 47.5625 5.09375 
Q 40.234375 -1.421875 26.90625 -1.421875 
Q 22.3125 -1.421875 17.546875 -0.640625 
Q 12.796875 0.140625 7.71875 1.703125 
L 7.71875 11.625 
Q 12.109375 9.234375 16.796875 8.0625 
Q 21.484375 6.890625 26.703125 6.890625 
Q 35.15625 6.890625 40.078125 11.328125 
Q 45.015625 15.765625 45.015625 23.390625 
Q 45.015625 31 40.078125 35.4375 
Q 35.15625 39.890625 26.703125 39.890625 
Q 22.75 39.890625 18.8125 39.015625 
Q 14.890625 38.140625 10.796875 36.28125 
z
" id="DejaVuSans-35"/>
      </defs>
      <g transform="translate(39.55 3081.274365)scale(0.1 -0.1)">
       <use xlink:href="#DejaVuSans-35"/>
       <use x="63.623047" xlink:href="#DejaVuSans-30"/>
       <use x="127.246094" xlink:href="#DejaVuSans-30"/>
       <use x="190.869141" xlink:href="#DejaVuSans-30"/>
      </g>
     </g>
    </g>
    <g id="ytick_3">
     <g id="line2d_21">
      <path clip-path="url(#p7bd7b34cd7)" d="M 72 2569.749161 
L 518.4 2569.749161 
" style="fill:none;stroke:#b0b0b0;stroke-linecap:square;stroke-width:0.8;"/>
     </g>
     <g id="line2d_22">
      <g>
       <use style="stroke:#000000;stroke-width:0.8;" x="72" xlink:href="#mfeb498111d" y="2569.749161"/>
      </g>
     </g>
     <g id="text_12">
      <!-- 10000 -->
      <g transform="translate(33.1875 2573.54838)scale(0.1 -0.1)">
       <use xlink:href="#DejaVuSans-31"/>
       <use x="63.623047" xlink:href="#DejaVuSans-30"/>
       <use x="127.246094" xlink:href="#DejaVuSans-30"/>
       <use x="190.869141" xlink:href="#DejaVuSans-30"/>
       <use x="254.492188" xlink:href="#DejaVuSans-30"/>
      </g>
     </g>
    </g>
    <g id="ytick_4">
     <g id="line2d_23">
      <path clip-path="url(#p7bd7b34cd7)" d="M 72 2062.023175 
L 518.4 2062.023175 
" style="fill:none;stroke:#b0b0b0;stroke-linecap:square;stroke-width:0.8;"/>
     </g>
     <g id="line2d_24">
      <g>
       <use style="stroke:#000000;stroke-width:0.8;" x="72" xlink:href="#mfeb498111d" y="2062.023175"/>
      </g>
     </g>
     <g id="text_13">
      <!-- 15000 -->
      <g transform="translate(33.1875 2065.822394)scale(0.1 -0.1)">
       <use xlink:href="#DejaVuSans-31"/>
       <use x="63.623047" xlink:href="#DejaVuSans-35"/>
       <use x="127.246094" xlink:href="#DejaVuSans-30"/>
       <use x="190.869141" xlink:href="#DejaVuSans-30"/>
       <use x="254.492188" xlink:href="#DejaVuSans-30"/>
      </g>
     </g>
    </g>
    <g id="ytick_5">
     <g id="line2d_25">
      <path clip-path="url(#p7bd7b34cd7)" d="M 72 1554.297189 
L 518.4 1554.297189 
" style="fill:none;stroke:#b0b0b0;stroke-linecap:square;stroke-width:0.8;"/>
     </g>
     <g id="line2d_26">
      <g>
       <use style="stroke:#000000;stroke-width:0.8;" x="72" xlink:href="#mfeb498111d" y="1554.297189"/>
      </g>
     </g>
     <g id="text_14">
      <!-- 20000 -->
      <g transform="translate(33.1875 1558.096408)scale(0.1 -0.1)">
       <use xlink:href="#DejaVuSans-32"/>
       <use x="63.623047" xlink:href="#DejaVuSans-30"/>
       <use x="127.246094" xlink:href="#DejaVuSans-30"/>
       <use x="190.869141" xlink:href="#DejaVuSans-30"/>
       <use x="254.492188" xlink:href="#DejaVuSans-30"/>
      </g>
     </g>
    </g>
    <g id="ytick_6">
     <g id="line2d_27">
      <path clip-path="url(#p7bd7b34cd7)" d="M 72 1046.571203 
L 518.4 1046.571203 
" style="fill:none;stroke:#b0b0b0;stroke-linecap:square;stroke-width:0.8;"/>
     </g>
     <g id="line2d_28">
      <g>
       <use style="stroke:#000000;stroke-width:0.8;" x="72" xlink:href="#mfeb498111d" y="1046.571203"/>
      </g>
     </g>
     <g id="text_15">
      <!-- 25000 -->
      <g transform="translate(33.1875 1050.370422)scale(0.1 -0.1)">
       <use xlink:href="#DejaVuSans-32"/>
       <use x="63.623047" xlink:href="#DejaVuSans-35"/>
       <use x="127.246094" xlink:href="#DejaVuSans-30"/>
       <use x="190.869141" xlink:href="#DejaVuSans-30"/>
       <use x="254.492188" xlink:href="#DejaVuSans-30"/>
      </g>
     </g>
    </g>
    <g id="text_16">
     <!-- Date and time (UTC) -->
     <defs>
      <path d="M 34.28125 27.484375 
Q 23.390625 27.484375 19.1875 25 
Q 14.984375 22.515625 14.984375 16.5 
Q 14.984375 11.71875 18.140625 8.90625 
Q 21.296875 6.109375 26.703125 6.109375 
Q 34.1875 6.109375 38.703125 11.40625 
Q 43.21875 16.703125 43.21875 25.484375 
L 43.21875 27.484375 
z
M 52.203125 31.203125 
L 52.203125 0 
L 43.21875 0 
L 43.21875 8.296875 
Q 40.140625 3.328125 35.546875 0.953125 
Q 30.953125 -1.421875 24.3125 -1.421875 
Q 15.921875 -1.421875 10.953125 3.296875 
Q 6 8.015625 6 15.921875 
Q 6 25.140625 12.171875 29.828125 
Q 18.359375 34.515625 30.609375 34.515625 
L 43.21875 34.515625 
L 43.21875 35.40625 
Q 43.21875 41.609375 39.140625 45 
Q 35.0625 48.390625 27.6875 48.390625 
Q 23 48.390625 18.546875 47.265625 
Q 14.109375 46.140625 10.015625 43.890625 
L 10.015625 52.203125 
Q 14.9375 54.109375 19.578125 55.046875 
Q 24.21875 56 28.609375 56 
Q 40.484375 56 46.34375 49.84375 
Q 52.203125 43.703125 52.203125 31.203125 
" id="DejaVuSans-61"/>
      <path d="M 54.890625 33.015625 
L 54.890625 0 
L 45.90625 0 
L 45.90625 32.71875 
Q 45.90625 40.484375 42.875 44.328125 
Q 39.84375 48.1875 33.796875 48.1875 
Q 26.515625 48.1875 22.3125 43.546875 
Q 18.109375 38.921875 18.109375 30.90625 
L 18.109375 0 
L 9.078125 0 
L 9.078125 54.6875 
L 18.109375 54.6875 
L 18.109375 46.1875 
Q 21.34375 51.125 25.703125 53.5625 
Q 30.078125 56 35.796875 56 
Q 45.21875 56 50.046875 50.171875 
Q 54.890625 44.34375 54.890625 33.015625 
" id="DejaVuSans-6e"/>
      <path d="M 45.40625 46.390625 
L 45.40625 75.984375 
L 54.390625 75.984375 
L 54.390625 0 
L 45.40625 0 
L 45.40625 8.203125 
Q 42.578125 3.328125 38.25 0.953125 
Q 33.9375 -1.421875 27.875 -1.421875 
Q 17.96875 -1.421875 11.734375 6.484375 
Q 5.515625 14.40625 5.515625 27.296875 
Q 5.515625 40.1875 11.734375 48.09375 
Q 17.96875 56 27.875 56 
Q 33.9375 56 38.25 53.625 
Q 42.578125 51.265625 45.40625 46.390625 
M 14.796875 27.296875 
Q 14.796875 17.390625 18.875 11.75 
Q 22.953125 6.109375 30.078125 6.109375 
Q 37.203125 6.109375 41.296875 11.75 
Q 45.40625 17.390625 45.40625 27.296875 
Q 45.40625 37.203125 41.296875 42.84375 
Q 37.203125 48.484375 30.078125 48.484375 
Q 22.953125 48.484375 18.875 42.84375 
Q 14.796875 37.203125 14.796875 27.296875 
" id="DejaVuSans-64"/>
      <path d="M 9.421875 54.6875 
L 18.40625 54.6875 
L 18.40625 0 
L 9.421875 0 
z
M 9.421875 75.984375 
L 18.40625 75.984375 
L 18.40625 64.59375 
L 9.421875 64.59375 
z
" id="DejaVuSans-69"/>
      <path d="M 31 75.875 
Q 24.46875 64.65625 21.28125 53.65625 
Q 18.109375 42.671875 18.109375 31.390625 
Q 18.109375 20.125 21.3125 9.0625 
Q 24.515625 -2 31 -13.1875 
L 23.1875 -13.1875 
Q 15.875 -1.703125 12.234375 9.375 
Q 8.59375 20.453125 8.59375 31.390625 
Q 8.59375 42.28125 12.203125 53.3125 
Q 15.828125 64.359375 23.1875 75.875 
z
" id="DejaVuSans-28"/>
      <path d="M 8.6875 72.90625 
L 18.609375 72.90625 
L 18.609375 28.609375 
Q 18.609375 16.890625 22.84375 11.734375 
Q 27.09375 6.59375 36.625 6.59375 
Q 46.09375 6.59375 50.34375 11.734375 
Q 54.59375 16.890625 54.59375 28.609375 
L 54.59375 72.90625 
L 64.5 72.90625 
L 64.5 27.390625 
Q 64.5 13.140625 57.4375 5.859375 
Q 50.390625 -1.421875 36.625 -1.421875 
Q 22.796875 -1.421875 15.734375 5.859375 
Q 8.6875 13.140625 8.6875 27.390625 
z
" id="DejaVuSans-55"/>
      <path d="M -0.296875 72.90625 
L 61.375 72.90625 
L 61.375 64.59375 
L 35.5 64.59375 
L 35.5 0 
L 25.59375 0 
L 25.59375 64.59375 
L -0.296875 64.59375 
z
" id="DejaVuSans-54"/>
      <path d="M 64.40625 67.28125 
L 64.40625 56.890625 
Q 59.421875 61.53125 53.78125 63.8125 
Q 48.140625 66.109375 41.796875 66.109375 
Q 29.296875 66.109375 22.65625 58.46875 
Q 16.015625 50.828125 16.015625 36.375 
Q 16.015625 21.96875 22.65625 14.328125 
Q 29.296875 6.6875 41.796875 6.6875 
Q 48.140625 6.6875 53.78125 8.984375 
Q 59.421875 11.28125 64.40625 15.921875 
L 64.40625 5.609375 
Q 59.234375 2.09375 53.4375 0.328125 
Q 47.65625 -1.421875 41.21875 -1.421875 
Q 24.65625 -1.421875 15.125 8.703125 
Q 5.609375 18.84375 5.609375 36.375 
Q 5.609375 53.953125 15.125 64.078125 
Q 24.65625 74.21875 41.21875 74.21875 
Q 47.75 74.21875 53.53125 72.484375 
Q 59.328125 70.75 64.40625 67.28125 
" id="DejaVuSans-43"/>
      <path d="M 8.015625 75.875 
L 15.828125 75.875 
Q 23.140625 64.359375 26.78125 53.3125 
Q 30.421875 42.28125 30.421875 31.390625 
Q 30.421875 20.453125 26.78125 9.375 
Q 23.140625 -1.703125 15.828125 -13.1875 
L 8.015625 -13.1875 
Q 14.5 -2 17.703125 9.0625 
Q 20.90625 20.125 20.90625 31.390625 
Q 20.90625 42.671875 17.703125 53.65625 
Q 14.5 64.65625 8.015625 75.875 
" id="DejaVuSans-29"/>
     </defs>
     <g transform="translate(27.107812 2344.003438)rotate(-90)scale(0.1 -0.1)">
      <use xlink:href="#DejaVuSans-44"/>
      <use x="77.001953" xlink:href="#DejaVuSans-61"/>
      <use x="138.28125" xlink:href="#DejaVuSans-74"/>
      <use x="177.490234" xlink:href="#DejaVuSans-65"/>
      <use x="239.013672" xlink:href="#DejaVuSans-20"/>
      <use x="270.800781" xlink:href="#DejaVuSans-61"/>
      <use x="332.080078" xlink:href="#DejaVuSans-6e"/>
      <use x="395.458984" xlink:href="#DejaVuSans-64"/>
      <use x="458.935547" xlink:href="#DejaVuSans-20"/>
      <use x="490.722656" xlink:href="#DejaVuSans-74"/>
      <use x="529.931641" xlink:href="#DejaVuSans-69"/>
      <use x="557.714844" xlink:href="#DejaVuSans-6d"/>
      <use x="655.126953" xlink:href="#DejaVuSans-65"/>
      <use x="716.650391" xlink:href="#DejaVuSans-20"/>
      <use x="748.4375" xlink:href="#DejaVuSans-28"/>
      <use x="787.451172" xlink:href="#DejaVuSans-55"/>
      <use x="860.644531" xlink:href="#DejaVuSans-54"/>
      <use x="921.650391" xlink:href="#DejaVuSans-43"/>
      <use x="991.474609" xlink:href="#DejaVuSans-29"/>
     </g>
    </g>
    <g id="text_17">
     <!-- +1.5296e9 -->
     <defs>
      <path d="M 46 62.703125 
L 46 35.5 
L 73.1875 35.5 
L 73.1875 27.203125 
L 46 27.203125 
L 46 0 
L 37.796875 0 
L 37.796875 27.203125 
L 10.59375 27.203125 
L 10.59375 35.5 
L 37.796875 35.5 
L 37.796875 62.703125 
z
" id="DejaVuSans-2b"/>
      <path d="M 10.6875 12.40625 
L 21 12.40625 
L 21 0 
L 10.6875 0 
z
" id="DejaVuSans-2e"/>
      <path d="M 10.984375 1.515625 
L 10.984375 10.5 
Q 14.703125 8.734375 18.5 7.8125 
Q 22.3125 6.890625 25.984375 6.890625 
Q 35.75 6.890625 40.890625 13.453125 
Q 46.046875 20.015625 46.78125 33.40625 
Q 43.953125 29.203125 39.59375 26.953125 
Q 35.25 24.703125 29.984375 24.703125 
Q 19.046875 24.703125 12.671875 31.3125 
Q 6.296875 37.9375 6.296875 49.421875 
Q 6.296875 60.640625 12.9375 67.421875 
Q 19.578125 74.21875 30.609375 74.21875 
Q 43.265625 74.21875 49.921875 64.515625 
Q 56.59375 54.828125 56.59375 36.375 
Q 56.59375 19.140625 48.40625 8.859375 
Q 40.234375 -1.421875 26.421875 -1.421875 
Q 22.703125 -1.421875 18.890625 -0.6875 
Q 15.09375 0.046875 10.984375 1.515625 
M 30.609375 32.421875 
Q 37.25 32.421875 41.125 36.953125 
Q 45.015625 41.5 45.015625 49.421875 
Q 45.015625 57.28125 41.125 61.84375 
Q 37.25 66.40625 30.609375 66.40625 
Q 23.96875 66.40625 20.09375 61.84375 
Q 16.21875 57.28125 16.21875 49.421875 
Q 16.21875 41.5 20.09375 36.953125 
Q 23.96875 32.421875 30.609375 32.421875 
" id="DejaVuSans-39"/>
     </defs>
     <g transform="translate(72 549.96)scale(0.1 -0.1)">
      <use xlink:href="#DejaVuSans-2b"/>
      <use x="83.789062" xlink:href="#DejaVuSans-31"/>
      <use x="147.412109" xlink:href="#DejaVuSans-2e"/>
      <use x="179.199219" xlink:href="#DejaVuSans-35"/>
      <use x="242.822266" xlink:href="#DejaVuSans-32"/>
      <use x="306.445312" xlink:href="#DejaVuSans-39"/>
      <use x="370.068359" xlink:href="#DejaVuSans-36"/>
      <use x="433.691406" xlink:href="#DejaVuSans-65"/>
      <use x="495.214844" xlink:href="#DejaVuSans-39"/>
     </g>
    </g>
   </g>
   <g id="line2d_29">
    <path clip-path="url(#p7bd7b34cd7)" d="M 577 4000.256269 
L 257.177084 3995.443729 
L 297.895643 3983.258305 
L 296.479338 3977.064048 
L 308.340906 3964.878625 
L 292.761555 3958.785913 
L 296.656399 3946.600489 
L 286.565231 3940.507777 
L 258.062258 3928.322354 
L 257.708188 3922.229642 
L 72 3910.044218 
L 193.267244 3903.951506 
L 143.343752 3891.867628 
L 141.927473 3885.774916 
L 142.635612 3879.682204 
L 141.927473 3873.589492 
L 144.93704 3867.496781 
L 145.999249 3861.404069 
L 104.219645 3855.311357 
L 93.951804 3849.1171 
L 94.128839 3843.024388 
L 93.59776 3836.931676 
L 93.59776 3830.838964 
L 94.482909 3818.755086 
L 93.951804 3812.662374 
L 95.191022 3806.569662 
L 91.296359 3800.47695 
L 92.358542 3794.282693 
L 92.535577 3788.189982 
L 153.2576 3776.004558 
L 323.920309 3769.911846 
L 235.401616 3757.726422 
L 125.463465 3751.633711 
L 94.128839 3739.448287 
L 88.994958 3727.364408 
L 90.942289 3721.170151 
L 89.171967 3715.07744 
L 92.181507 3702.892016 
L 87.40167 3690.706592 
L 87.0476 3684.613881 
L 87.0476 3678.521169 
L 88.463853 3672.428457 
L 315.42243 3666.335745 
L 314.18316 3660.243033 
L 346.227244 3648.05761 
L 162.994413 3641.964898 
L 107.406194 3629.779474 
L 121.21468 3617.695596 
L 127.587857 3611.602884 
L 127.233787 3605.408627 
L 127.587857 3599.41746 
L 122.099854 3593.223203 
L 124.57829 3587.130491 
L 117.851069 3575.046613 
L 123.870177 3568.953901 
L 118.028104 3562.861189 
L 118.382174 3556.768477 
L 128.29597 3550.675765 
L 121.922819 3544.481508 
L 120.683601 3538.388797 
L 107.937299 3532.39763 
L 113.248241 3526.304918 
L 102.803392 3520.212206 
L 113.95638 3514.119494 
L 109.176517 3501.832526 
L 97.669484 3495.841359 
L 91.473368 3489.748647 
L 93.951804 3483.655935 
L 92.535577 3477.461678 
L 100.678999 3471.368966 
L 105.989941 3465.276255 
L 102.803392 3459.183543 
L 117.851069 3447.099664 
L 90.057141 3441.006952 
L 97.846493 3428.821529 
L 102.272287 3422.627272 
L 88.463853 3410.441848 
L 90.942289 3404.349136 
L 97.13838 3392.265258 
L 102.980426 3386.172546 
L 105.458863 3373.987122 
L 103.865575 3367.894411 
L 115.903738 3361.801699 
L 329.585554 3355.708987 
L 328.700354 3349.51473 
L 326.044779 3337.329306 
L 326.044779 3331.33814 
L 328.877389 3325.245428 
L 329.054424 3319.152716 
L 329.762589 3313.060004 
L 323.743249 3306.967292 
L 324.628449 3300.87458 
L 324.097344 3294.781869 
L 323.389179 3288.689157 
L 323.743249 3282.596445 
L 323.566214 3276.503733 
L 324.274379 3270.411021 
L 325.336614 3264.318309 
L 327.106989 3258.225598 
L 317.015795 3252.031341 
L 299.134913 3245.938629 
L 240.181583 3239.845917 
L 175.91788 3233.753205 
L 122.099854 3227.762038 
L 117.851069 3215.47507 
L 119.975462 3209.382358 
L 112.717162 3197.196934 
L 116.611851 3185.01151 
L 115.372633 3178.918799 
L 99.793851 3166.83492 
L 105.281828 3160.742208 
L 122.807968 3154.649496 
L 117.142956 3142.362528 
L 116.434816 3136.371361 
L 113.425276 3130.278649 
L 114.841529 3124.185937 
L 115.549668 3118.093226 
L 114.664494 3112.000514 
L 118.028104 3105.907802 
L 118.205139 3093.722378 
L 116.080773 3087.629666 
L 120.683601 3075.342698 
L 112.009023 3069.249986 
L 116.788886 3063.157274 
L 112.540127 3051.073395 
L 111.831988 3044.879138 
L 123.870177 3032.693715 
L 121.391715 3026.702548 
L 122.099854 3020.609836 
L 116.257782 3014.517124 
L 114.31045 3008.424413 
L 110.94684 2996.137444 
L 111.477944 2990.044732 
L 110.2387 2977.859308 
L 113.425276 2971.766596 
L 113.425276 2965.673885 
L 114.31045 2953.590006 
L 111.831988 2947.497294 
L 113.071206 2941.404582 
L 111.831988 2935.311871 
L 113.95638 2929.219159 
L 111.654953 2923.024902 
L 114.133415 2917.033735 
L 113.071206 2910.941023 
L 113.95638 2904.848311 
L 112.717162 2898.7556 
L 114.664494 2892.662888 
L 111.123874 2886.570176 
L 113.602311 2880.477464 
L 113.779345 2874.384752 
L 112.009023 2868.29204 
L 115.018563 2862.097783 
L 112.009023 2849.91236 
L 113.779345 2837.828481 
L 112.186058 2831.634224 
L 112.894197 2825.541512 
L 112.363092 2813.356089 
L 114.664494 2801.27221 
L 114.841529 2795.179499 
L 155.559027 2788.985242 
L 116.080773 2776.901363 
L 113.602311 2770.707106 
L 115.549668 2764.614394 
L 116.611851 2758.521682 
L 115.372633 2740.243547 
L 116.434816 2721.965411 
L 116.080773 2715.974245 
L 114.841529 2709.881533 
L 115.195598 2703.788821 
L 114.487485 2697.696109 
L 116.434816 2691.603397 
L 115.372633 2685.40914 
L 116.080773 2679.316429 
L 118.205139 2667.131005 
L 116.434816 2661.038293 
L 116.434816 2648.954415 
L 113.95638 2642.760158 
L 114.31045 2630.676279 
L 114.841529 2624.482022 
L 114.31045 2612.296598 
L 115.726703 2606.305432 
L 114.841529 2594.018463 
L 115.903738 2588.027296 
L 193.621313 2575.740327 
L 129.00411 2569.647616 
L 137.14761 2563.656449 
L 127.056752 2557.462192 
L 122.630933 2551.36948 
L 119.444357 2545.276768 
L 153.2576 2539.285602 
L 120.860636 2533.19289 
L 138.563862 2520.905921 
L 133.961008 2514.813209 
L 228.851301 2502.627786 
L 227.612031 2496.636619 
L 133.606938 2484.34965 
L 137.14761 2472.164226 
L 138.917932 2460.080348 
L 219.468402 2453.987636 
L 353.131784 2447.793379 
L 310.465376 2441.700667 
L 312.235751 2435.607955 
L 311.35055 2423.422532 
L 312.058716 2417.431365 
L 314.537255 2411.338653 
L 305.331262 2405.144396 
L 303.560862 2399.051684 
L 299.489008 2386.866261 
L 294.708964 2380.875094 
L 145.645179 2368.68967 
L 176.803054 2362.495413 
L 126.879717 2356.402702 
L 124.047212 2350.411535 
L 117.674035 2344.318823 
L 132.013651 2338.226111 
L 147.415502 2332.031854 
L 128.827075 2325.939142 
L 131.305537 2313.753719 
L 132.190685 2307.661007 
L 134.669147 2295.475583 
L 130.066293 2289.484417 
L 122.276889 2283.29016 
L 136.616505 2271.104736 
L 139.449037 2265.113569 
L 133.07586 2259.020858 
L 125.109395 2252.928146 
L 125.463465 2246.835434 
L 127.587857 2240.742722 
L 118.559209 2234.65001 
L 289.220806 2228.557298 
L 307.986836 2222.464587 
L 304.977166 2216.371875 
L 309.934246 2210.279163 
L 308.340906 2197.992194 
L 300.551217 2191.899482 
L 298.957878 2179.815604 
L 213.449217 2173.621347 
L 126.348613 2167.528635 
L 128.118936 2161.435923 
L 127.056752 2155.343211 
L 136.970575 2143.157788 
L 124.224246 2137.065076 
L 128.118936 2124.981197 
L 136.262435 2118.78694 
L 139.449037 2106.601517 
L 138.740897 2100.508805 
L 126.171578 2088.323381 
L 122.276889 2082.230669 
L 139.980115 2070.045246 
L 139.094967 2063.952534 
L 143.697821 2051.868655 
L 138.563862 2045.775943 
L 143.874856 2033.488975 
L 125.463465 2027.396263 
L 128.118936 2015.210839 
L 133.429903 2009.118127 
L 133.606938 1996.932704 
L 140.86529 1990.941537 
L 138.209793 1978.756113 
L 148.831755 1972.663402 
L 166.181041 1966.469144 
L 155.027923 1960.477978 
L 149.893964 1954.385266 
L 159.807812 1948.292554 
L 175.740845 1942.199842 
L 177.511194 1936.005585 
L 161.224091 1929.912874 
L 151.487251 1923.820162 
L 154.673853 1917.72745 
L 326.398849 1905.542026 
L 324.982544 1899.449314 
L 221.59282 1887.263891 
L 166.181041 1881.171179 
L 156.798245 1875.078467 
L 156.090132 1868.985755 
L 151.310217 1862.994589 
L 155.736062 1856.901877 
L 295.063059 1850.809165 
L 181.582969 1844.716453 
L 150.956173 1838.623741 
L 139.272002 1832.531029 
L 128.65004 1826.336772 
L 133.429903 1814.151349 
L 138.563862 1808.160182 
L 127.764892 1802.06747 
L 129.535214 1795.974758 
L 125.994569 1789.882047 
L 135.200252 1777.696623 
L 142.812647 1771.603911 
L 149.185824 1765.511199 
L 147.238467 1759.418487 
L 154.496818 1753.325776 
L 161.401125 1747.233064 
L 175.91788 1741.140352 
L 169.721712 1735.04764 
L 169.898747 1728.954928 
L 163.879588 1722.862217 
L 152.90353 1716.667959 
L 173.439418 1710.676793 
L 141.042325 1704.482536 
L 128.118936 1698.491369 
L 133.606938 1692.398657 
L 169.721712 1686.305946 
L 152.549461 1680.111688 
L 139.094967 1668.02781 
L 146.707362 1661.935098 
L 141.750438 1649.648129 
L 146.884397 1643.555418 
L 146.530327 1631.369994 
L 146.884397 1625.277282 
L 145.999249 1619.286115 
L 145.999249 1613.091858 
L 146.884397 1601.00798 
L 144.2289 1588.822556 
L 143.343752 1576.637133 
L 142.989682 1564.451709 
L 142.635612 1558.358997 
L 150.779138 1552.266285 
L 142.989682 1546.173573 
L 145.114074 1533.98815 
L 144.93704 1527.793893 
L 142.458577 1515.608469 
L 138.740897 1509.515757 
L 139.449037 1497.330334 
L 149.716929 1485.14491 
L 165.649936 1479.153743 
L 161.224091 1473.061031 
L 149.893964 1466.96832 
L 145.822214 1460.875608 
L 147.946606 1454.782896 
L 146.707362 1448.690184 
L 146.353292 1442.597472 
L 211.501833 1436.504761 
L 144.58297 1430.412049 
L 138.740897 1424.319337 
L 132.190685 1418.12508 
L 129.00411 1405.939656 
L 132.898825 1399.846944 
L 132.013651 1387.763066 
L 132.544755 1381.568809 
L 139.803081 1369.383385 
L 121.745784 1363.392219 
L 114.664494 1357.197962 
L 105.812906 1351.10525 
L 104.219645 1339.021371 
L 104.750723 1332.928659 
L 100.147921 1326.835948 
L 101.741182 1320.743236 
L 115.726703 1308.456267 
L 133.961008 1302.363555 
L 119.798427 1296.270843 
L 129.535214 1290.178131 
L 297.010469 1278.094253 
L 272.048167 1271.899996 
L 218.760262 1259.714572 
L 133.783973 1253.723406 
L 115.549668 1247.630694 
L 133.07586 1241.537982 
L 135.908366 1235.44527 
L 110.415735 1229.352558 
L 111.654953 1223.259846 
L 106.698081 1217.167135 
L 115.549668 1211.074423 
L 106.344011 1198.888999 
L 102.803392 1192.796287 
L 113.425276 1186.703575 
L 112.540127 1180.610864 
L 104.573688 1174.518152 
L 99.616816 1168.42544 
L 96.78431 1162.332728 
L 98.908702 1156.138471 
L 104.219645 1150.147305 
L 100.147921 1144.054593 
L 102.095252 1137.860336 
L 93.420726 1131.767624 
L 105.458863 1119.5822 
L 121.56875 1113.489488 
L 154.319783 1107.498322 
L 107.583229 1101.40561 
L 106.344011 1095.312898 
L 98.377598 1089.220186 
L 102.449322 1083.127474 
L 109.353552 1077.034763 
L 94.128839 1064.747794 
L 105.281828 1052.56237 
L 107.937299 1046.469658 
L 94.128839 1040.478492 
L 93.420726 1034.284235 
L 96.076197 1028.191523 
L 107.05215 1022.200356 
L 108.468403 1016.006099 
L 95.191022 1003.922221 
L 97.13838 997.727964 
L 79.966361 985.440995 
L 79.081213 979.551373 
L 81.559649 973.357116 
L 88.817923 961.273238 
L 101.387139 955.180526 
L 108.468403 949.087814 
L 107.229159 942.995102 
L 102.449322 936.90239 
L 87.224635 924.615422 
L 86.693531 918.52271 
L 86.162452 906.337286 
L 88.463853 894.151862 
L 86.162452 888.160696 
L 85.808382 881.966439 
L 82.621832 875.873727 
L 84.038085 869.88256 
L 83.329946 863.789849 
L 84.392129 857.697137 
L 82.975902 851.604425 
L 84.21512 845.511713 
L 82.621832 839.317456 
L 84.569164 833.224744 
L 82.798867 827.233578 
L 84.038085 821.03932 
L 81.913719 808.955442 
L 81.559649 802.761185 
L 83.152937 796.770018 
L 82.621832 790.677307 
L 82.975902 784.584595 
L 81.559649 778.491883 
L 80.851536 772.399171 
L 89.349002 766.306459 
L 88.286818 760.112202 
L 80.497466 754.01949 
L 80.674501 747.926779 
L 110.59277 741.834067 
L 218.406193 735.8429 
L 222.655055 729.750188 
L 221.769855 723.657476 
L 74.47841 711.472053 
L 78.01903 705.277796 
L 76.956846 699.185084 
L 78.01903 693.092372 
L 77.133881 680.906948 
L 190.611721 674.814237 
L 340.207904 662.730358 
L 577 656.808491 
L 577 656.808491 
" style="fill:none;stroke:#1f77b4;stroke-linecap:square;stroke-width:1.5;"/>
   </g>
   <g id="patch_3">
    <path d="M 72 4032 
L 72 552.96 
" style="fill:none;stroke:#000000;stroke-linecap:square;stroke-linejoin:miter;stroke-width:0.8;"/>
   </g>
   <g id="patch_4">
    <path d="M 518.4 4032 
L 518.4 552.96 
" style="fill:none;stroke:#000000;stroke-linecap:square;stroke-linejoin:miter;stroke-width:0.8;"/>
   </g>
   <g id="patch_5">
    <path d="M 72 4032 
L 518.4 4032 
" style="fill:none;stroke:#000000;stroke-linecap:square;stroke-linejoin:miter;stroke-width:0.8;"/>
   </g>
   <g id="patch_6">
    <path d="M 72 552.96 
L 518.4 552.96 
" style="fill:none;stroke:#000000;stroke-linecap:square;stroke-linejoin:miter;stroke-width:0.8;"/>
   </g>
   <g id="text_18">
    <!-- ROV Hercules depth -->
    <defs>
     <path d="M 44.390625 34.1875 
Q 47.5625 33.109375 50.5625 29.59375 
Q 53.5625 26.078125 56.59375 19.921875 
L 66.609375 0 
L 56 0 
L 46.6875 18.703125 
Q 43.0625 26.03125 39.671875 28.421875 
Q 36.28125 30.8125 30.421875 30.8125 
L 19.671875 30.8125 
L 19.671875 0 
L 9.8125 0 
L 9.8125 72.90625 
L 32.078125 72.90625 
Q 44.578125 72.90625 50.734375 67.671875 
Q 56.890625 62.453125 56.890625 51.90625 
Q 56.890625 45.015625 53.6875 40.46875 
Q 50.484375 35.9375 44.390625 34.1875 
M 19.671875 64.796875 
L 19.671875 38.921875 
L 32.078125 38.921875 
Q 39.203125 38.921875 42.84375 42.21875 
Q 46.484375 45.515625 46.484375 51.90625 
Q 46.484375 58.296875 42.84375 61.546875 
Q 39.203125 64.796875 32.078125 64.796875 
z
" id="DejaVuSans-52"/>
     <path d="M 39.40625 66.21875 
Q 28.65625 66.21875 22.328125 58.203125 
Q 16.015625 50.203125 16.015625 36.375 
Q 16.015625 22.609375 22.328125 14.59375 
Q 28.65625 6.59375 39.40625 6.59375 
Q 50.140625 6.59375 56.421875 14.59375 
Q 62.703125 22.609375 62.703125 36.375 
Q 62.703125 50.203125 56.421875 58.203125 
Q 50.140625 66.21875 39.40625 66.21875 
M 39.40625 74.21875 
Q 54.734375 74.21875 63.90625 63.9375 
Q 73.09375 53.65625 73.09375 36.375 
Q 73.09375 19.140625 63.90625 8.859375 
Q 54.734375 -1.421875 39.40625 -1.421875 
Q 24.03125 -1.421875 14.8125 8.828125 
Q 5.609375 19.09375 5.609375 36.375 
Q 5.609375 53.65625 14.8125 63.9375 
Q 24.03125 74.21875 39.40625 74.21875 
" id="DejaVuSans-4f"/>
     <path d="M 28.609375 0 
L 0.78125 72.90625 
L 11.078125 72.90625 
L 34.1875 11.53125 
L 57.328125 72.90625 
L 67.578125 72.90625 
L 39.796875 0 
z
" id="DejaVuSans-56"/>
     <path d="M 9.8125 72.90625 
L 19.671875 72.90625 
L 19.671875 43.015625 
L 55.515625 43.015625 
L 55.515625 72.90625 
L 65.375 72.90625 
L 65.375 0 
L 55.515625 0 
L 55.515625 34.71875 
L 19.671875 34.71875 
L 19.671875 0 
L 9.8125 0 
z
" id="DejaVuSans-48"/>
     <path d="M 41.109375 46.296875 
Q 39.59375 47.171875 37.8125 47.578125 
Q 36.03125 48 33.890625 48 
Q 26.265625 48 22.1875 43.046875 
Q 18.109375 38.09375 18.109375 28.8125 
L 18.109375 0 
L 9.078125 0 
L 9.078125 54.6875 
L 18.109375 54.6875 
L 18.109375 46.1875 
Q 20.953125 51.171875 25.484375 53.578125 
Q 30.03125 56 36.53125 56 
Q 37.453125 56 38.578125 55.875 
Q 39.703125 55.765625 41.0625 55.515625 
z
" id="DejaVuSans-72"/>
     <path d="M 48.78125 52.59375 
L 48.78125 44.1875 
Q 44.96875 46.296875 41.140625 47.34375 
Q 37.3125 48.390625 33.40625 48.390625 
Q 24.65625 48.390625 19.8125 42.84375 
Q 14.984375 37.3125 14.984375 27.296875 
Q 14.984375 17.28125 19.8125 11.734375 
Q 24.65625 6.203125 33.40625 6.203125 
Q 37.3125 6.203125 41.140625 7.25 
Q 44.96875 8.296875 48.78125 10.40625 
L 48.78125 2.09375 
Q 45.015625 0.34375 40.984375 -0.53125 
Q 36.96875 -1.421875 32.421875 -1.421875 
Q 20.0625 -1.421875 12.78125 6.34375 
Q 5.515625 14.109375 5.515625 27.296875 
Q 5.515625 40.671875 12.859375 48.328125 
Q 20.21875 56 33.015625 56 
Q 37.15625 56 41.109375 55.140625 
Q 45.0625 54.296875 48.78125 52.59375 
" id="DejaVuSans-63"/>
     <path d="M 8.5 21.578125 
L 8.5 54.6875 
L 17.484375 54.6875 
L 17.484375 21.921875 
Q 17.484375 14.15625 20.5 10.265625 
Q 23.53125 6.390625 29.59375 6.390625 
Q 36.859375 6.390625 41.078125 11.03125 
Q 45.3125 15.671875 45.3125 23.6875 
L 45.3125 54.6875 
L 54.296875 54.6875 
L 54.296875 0 
L 45.3125 0 
L 45.3125 8.40625 
Q 42.046875 3.421875 37.71875 1 
Q 33.40625 -1.421875 27.6875 -1.421875 
Q 18.265625 -1.421875 13.375 4.4375 
Q 8.5 10.296875 8.5 21.578125 
M 31.109375 56 
z
" id="DejaVuSans-75"/>
     <path d="M 9.421875 75.984375 
L 18.40625 75.984375 
L 18.40625 0 
L 9.421875 0 
z
" id="DejaVuSans-6c"/>
     <path d="M 44.28125 53.078125 
L 44.28125 44.578125 
Q 40.484375 46.53125 36.375 47.5 
Q 32.28125 48.484375 27.875 48.484375 
Q 21.1875 48.484375 17.84375 46.4375 
Q 14.5 44.390625 14.5 40.28125 
Q 14.5 37.15625 16.890625 35.375 
Q 19.28125 33.59375 26.515625 31.984375 
L 29.59375 31.296875 
Q 39.15625 29.25 43.1875 25.515625 
Q 47.21875 21.78125 47.21875 15.09375 
Q 47.21875 7.46875 41.1875 3.015625 
Q 35.15625 -1.421875 24.609375 -1.421875 
Q 20.21875 -1.421875 15.453125 -0.5625 
Q 10.6875 0.296875 5.421875 2 
L 5.421875 11.28125 
Q 10.40625 8.6875 15.234375 7.390625 
Q 20.0625 6.109375 24.8125 6.109375 
Q 31.15625 6.109375 34.5625 8.28125 
Q 37.984375 10.453125 37.984375 14.40625 
Q 37.984375 18.0625 35.515625 20.015625 
Q 33.0625 21.96875 24.703125 23.78125 
L 21.578125 24.515625 
Q 13.234375 26.265625 9.515625 29.90625 
Q 5.8125 33.546875 5.8125 39.890625 
Q 5.8125 47.609375 11.28125 51.796875 
Q 16.75 56 26.8125 56 
Q 31.78125 56 36.171875 55.265625 
Q 40.578125 54.546875 44.28125 53.078125 
" id="DejaVuSans-73"/>
    </defs>
    <g transform="translate(234.67125 546.96)scale(0.12 -0.12)">
     <use xlink:href="#DejaVuSans-52"/>
     <use x="69.482422" xlink:href="#DejaVuSans-4f"/>
     <use x="148.177734" xlink:href="#DejaVuSans-56"/>
     <use x="216.585938" xlink:href="#DejaVuSans-20"/>
     <use x="248.373047" xlink:href="#DejaVuSans-48"/>
     <use x="323.568359" xlink:href="#DejaVuSans-65"/>
     <use x="385.091797" xlink:href="#DejaVuSans-72"/>
     <use x="426.173828" xlink:href="#DejaVuSans-63"/>
     <use x="481.154297" xlink:href="#DejaVuSans-75"/>
     <use x="544.533203" xlink:href="#DejaVuSans-6c"/>
     <use x="572.316406" xlink:href="#DejaVuSans-65"/>
     <use x="633.839844" xlink:href="#DejaVuSans-73"/>
     <use x="685.939453" xlink:href="#DejaVuSans-20"/>
     <use x="717.726562" xlink:href="#DejaVuSans-64"/>
     <use x="781.203125" xlink:href="#DejaVuSans-65"/>
     <use x="842.726562" xlink:href="#DejaVuSans-70"/>
     <use x="906.203125" xlink:href="#DejaVuSans-74"/>
     <use x="945.412109" xlink:href="#DejaVuSans-68"/>
    </g>
   </g>
  </g>
 </g>
 <defs>
  <clipPath id="p7bd7b34cd7">
   <rect height="3479.04" width="446.4" x="72" y="552.96"/>
  </clipPath>
 </defs>
</svg>
